# Blender 4.1.1
# www.blender.org
mtllib RightArm.mtl
o 右腕
v 0.159870 1.168504 -0.001482
v 0.159575 1.168994 -0.023017
v 0.169078 1.118370 -0.035541
v 0.169005 1.114993 -0.012829
v 0.160438 1.149782 -0.035869
v 0.161814 1.145809 0.003726
v 0.179595 1.168850 -0.002794
v 0.179190 1.169410 -0.023998
v 0.191524 1.154247 -0.031629
v 0.192316 1.152155 -0.000477
v 0.215049 1.121670 -0.008058
v 0.216562 1.125198 -0.034658
v 0.196802 1.118130 -0.045299
v 0.178591 1.149211 -0.041188
v 0.180034 1.144741 0.007658
v 0.194576 1.111339 -0.001138
v 0.171486 1.170357 -0.026250
v 0.171889 1.169610 0.001015
v 0.228293 1.059220 -0.047160
v 0.227916 1.056103 -0.028402
v 0.243094 1.072117 -0.050873
v 0.255385 1.082896 -0.037824
v 0.254095 1.079639 -0.018186
v 0.241107 1.065556 -0.014536
v 0.303626 1.001145 -0.057302
v 0.299559 1.001378 -0.036689
v 0.314493 1.018620 -0.061700
v 0.322312 1.031654 -0.047162
v 0.321139 1.027871 -0.028662
v 0.308815 1.014465 -0.023648
v 0.371869 0.982091 -0.049208
v 0.362586 0.989595 -0.054340
v 0.361781 0.985541 -0.035126
v 0.357677 0.980120 -0.051840
v 0.357579 0.978357 -0.041939
v 0.369036 0.991982 -0.038232
v 0.358159 1.009124 -0.050067
v 0.357090 1.005512 -0.033235
v 0.337493 0.981720 -0.039732
v 0.336568 0.983862 -0.058499
v 0.344886 0.994046 -0.028101
v 0.345718 1.000725 -0.062905
v 0.345462 1.012604 -0.031466
v 0.322642 0.986033 -0.057412
v 0.332376 0.999780 -0.025873
v 0.346978 1.016277 -0.050198
v 0.323912 0.986348 -0.038641
v 0.337850 1.008282 -0.064687
v 0.319137 0.994972 -0.068864
v 0.324486 1.002888 -0.071763
v 0.323496 0.987566 -0.067278
v 0.333709 1.001949 -0.072940
v 0.337695 0.994860 -0.071115
v 0.332466 0.986915 -0.068246
v 0.321162 0.989915 -0.082318
v 0.323831 0.994324 -0.085721
v 0.324609 0.986416 -0.078937
v 0.329947 0.995233 -0.085741
v 0.333397 0.991733 -0.082355
v 0.330725 0.987325 -0.078956
v 0.324586 0.983387 -0.090414
v 0.326098 0.986139 -0.092966
v 0.327002 0.981596 -0.087707
v 0.330025 0.987101 -0.092811
v 0.332441 0.985310 -0.090104
v 0.330930 0.982558 -0.087551
v 0.327454 0.980529 -0.093470
v 0.328177 0.981847 -0.094692
v 0.328981 0.979653 -0.092652
v 0.330109 0.981707 -0.094557
v 0.331471 0.981416 -0.093206
v 0.330747 0.980099 -0.091984
v 0.369573 0.994154 -0.047935
v 0.151448 1.161526 -0.006886
v 0.151651 1.161762 -0.020643
v 0.151892 1.133894 -0.026657
v 0.152129 1.132099 -0.014040
v 0.151424 1.149245 -0.029080
v 0.151934 1.146642 -0.003520
v 0.147385 1.150983 -0.014000
v 0.147523 1.151271 -0.018185
v 0.147655 1.142574 -0.020002
v 0.147669 1.141987 -0.016154
v 0.147526 1.147379 -0.020837
v 0.147530 1.146422 -0.012976
v 0.146320 1.146450 -0.017072
v 0.371486 0.980243 -0.040397
v 0.369587 0.977750 -0.048066
v 0.369527 0.976941 -0.043525
v 0.374790 0.983270 -0.041799
v 0.375041 0.984266 -0.046277
v 0.374845 0.978650 -0.044871
v 0.234871 1.067981 -0.012490
v 0.159536 1.171819 -0.011772
v 0.159773 1.161083 -0.031287
v 0.163148 1.131930 -0.001818
v 0.168511 1.112278 -0.025645
v 0.162381 1.136400 -0.037029
v 0.160770 1.158898 0.003923
v 0.208581 1.121918 -0.042871
v 0.179096 1.170335 -0.013259
v 0.183446 1.164170 -0.028523
v 0.202687 1.138105 -0.003581
v 0.218746 1.125140 -0.021058
v 0.203017 1.141116 -0.033517
v 0.184254 1.163017 -0.000086
v 0.193596 1.154490 -0.015871
v 0.169104 1.148998 -0.039195
v 0.187615 1.148014 0.006696
v 0.182249 1.110913 -0.005220
v 0.176062 1.170358 -0.026393
v 0.165942 1.169439 0.000188
v 0.183456 1.116719 -0.042871
v 0.186368 1.151673 -0.039706
v 0.170614 1.144535 0.006244
v 0.206240 1.115952 -0.001507
v 0.165542 1.170102 -0.024737
v 0.176464 1.169680 0.000345
v 0.194836 1.086738 -0.021359
v 0.174141 1.161588 -0.035918
v 0.175464 1.159156 0.007282
v 0.170606 1.173351 -0.012027
v 0.185384 1.135022 -0.043723
v 0.185075 1.128994 0.004411
v 0.225937 1.056048 -0.038561
v 0.250515 1.078692 -0.046123
v 0.256568 1.083195 -0.027319
v 0.233577 1.059513 -0.019812
v 0.234800 1.065058 -0.051360
v 0.248493 1.073025 -0.013806
v 0.279246 1.044048 -0.055666
v 0.195286 1.089924 -0.041035
v 0.230368 1.102877 -0.012884
v 0.212863 1.090491 -0.007870
v 0.215399 1.097239 -0.047480
v 0.232037 1.106314 -0.035563
v 0.298692 1.000124 -0.046887
v 0.317920 1.027926 -0.055348
v 0.323592 1.031387 -0.037377
v 0.303215 1.006781 -0.028373
v 0.304142 1.012405 -0.061012
v 0.315511 1.021920 -0.023781
v 0.363446 0.998913 -0.035591
v 0.289915 1.055137 -0.042467
v 0.267357 1.028050 -0.052296
v 0.288814 1.051653 -0.023978
v 0.266676 1.025247 -0.033538
v 0.277165 1.037513 -0.019993
v 0.369236 0.976683 -0.045970
v 0.347672 0.982141 -0.054693
v 0.364221 1.001907 -0.049110
v 0.373212 0.981994 -0.040472
v 0.370180 0.978340 -0.041466
v 0.370501 0.993751 -0.042861
v 0.338239 1.016385 -0.030832
v 0.375471 0.984158 -0.043925
v 0.316510 0.989685 -0.057223
v 0.325370 1.003408 -0.025312
v 0.347585 0.979827 -0.040795
v 0.352476 1.013548 -0.050381
v 0.365602 0.989193 -0.035435
v 0.329861 0.983943 -0.039058
v 0.370408 0.979857 -0.049245
v 0.366440 0.992834 -0.052033
v 0.342243 1.005768 -0.064431
v 0.342026 0.991206 -0.062113
v 0.353094 1.006493 -0.057367
v 0.340182 0.986933 -0.032236
v 0.351346 1.000507 -0.028522
v 0.359570 1.008625 -0.041240
v 0.336463 0.980701 -0.048973
v 0.351106 1.009817 -0.031989
v 0.328424 0.983911 -0.057773
v 0.338027 0.997260 -0.026459
v 0.339627 1.020155 -0.049512
v 0.316655 0.990063 -0.038124
v 0.330973 1.011549 -0.063932
v 0.322682 0.984992 -0.048618
v 0.348150 1.016041 -0.040303
v 0.339355 1.006974 -0.026309
v 0.327076 0.991995 -0.030415
v 0.342586 1.012904 -0.058583
v 0.323022 0.987049 -0.062910
v 0.320777 0.999571 -0.070333
v 0.320246 0.990718 -0.067786
v 0.336789 0.998923 -0.072335
v 0.336036 0.990322 -0.069605
v 0.327928 0.986081 -0.067435
v 0.329212 1.003535 -0.072712
v 0.324085 0.998812 -0.078728
v 0.316129 0.995860 -0.063752
v 0.323176 1.007172 -0.066888
v 0.335278 1.004770 -0.068711
v 0.340026 0.997518 -0.067241
v 0.333465 0.986167 -0.064146
v 0.321780 0.992314 -0.084271
v 0.322227 0.987767 -0.080371
v 0.332331 0.993882 -0.084304
v 0.332779 0.989335 -0.080403
v 0.327725 0.986277 -0.078438
v 0.326830 0.995372 -0.086240
v 0.324661 0.989941 -0.090373
v 0.331647 0.998867 -0.079243
v 0.335347 0.993367 -0.076569
v 0.331471 0.987593 -0.073414
v 0.323940 0.987503 -0.072926
v 0.320203 0.993039 -0.075559
v 0.324866 0.984825 -0.091905
v 0.325387 0.982213 -0.088881
v 0.331641 0.986484 -0.091637
v 0.332161 0.983872 -0.088613
v 0.329034 0.981737 -0.087235
v 0.327994 0.986961 -0.093283
v 0.330914 0.980766 -0.090397
v 0.329628 0.991084 -0.090210
v 0.332644 0.988731 -0.086889
v 0.330693 0.985234 -0.083733
v 0.325726 0.984092 -0.083897
v 0.322709 0.986445 -0.087217
v 0.327847 0.980998 -0.094267
v 0.328096 0.979953 -0.093148
v 0.330965 0.981508 -0.093970
v 0.331186 0.980562 -0.092760
v 0.329976 0.979707 -0.092300
v 0.329085 0.981753 -0.094818
v 0.329668 0.980241 -0.094005
v 0.328099 0.980069 -0.090579
v 0.330239 0.983965 -0.094192
v 0.332000 0.982743 -0.092230
v 0.326317 0.981366 -0.092472
v 0.327403 0.983343 -0.094305
v 0.373612 0.983679 -0.048195
v 0.353475 0.989800 -0.031371
v 0.359534 0.984703 -0.054308
v 0.354600 0.995349 -0.058141
v 0.151540 1.163636 -0.013460
v 0.151529 1.156645 -0.026080
v 0.152097 1.138093 -0.007587
v 0.152070 1.130692 -0.021031
v 0.151602 1.140855 -0.029367
v 0.151640 1.155247 -0.003302
v 0.155771 1.146527 0.000557
v 0.155011 1.165882 -0.003799
v 0.156332 1.129117 -0.029908
v 0.156630 1.126753 -0.013188
v 0.154980 1.166205 -0.021750
v 0.154792 1.149873 -0.032641
v 0.147457 1.151781 -0.015981
v 0.147540 1.149733 -0.019914
v 0.147627 1.143798 -0.014182
v 0.147699 1.141530 -0.018281
v 0.147594 1.144738 -0.020914
v 0.147439 1.149054 -0.012883
v 0.148962 1.155943 -0.010673
v 0.149190 1.156203 -0.019345
v 0.149272 1.146550 -0.008544
v 0.149335 1.138534 -0.023126
v 0.149445 1.137374 -0.015162
v 0.149095 1.148285 -0.024725
v 0.146563 1.148198 -0.015862
v 0.146656 1.146811 -0.018612
v 0.146718 1.144848 -0.018242
v 0.146702 1.144602 -0.016706
v 0.146615 1.146361 -0.015456
v 0.146624 1.148407 -0.017519
v 0.359081 0.981420 -0.037537
v 0.357073 0.977847 -0.047239
v 0.373122 0.988316 -0.046993
v 0.372751 0.986812 -0.040274
v 0.367723 0.982356 -0.038120
v 0.364813 0.977381 -0.042840
v 0.364879 0.978603 -0.049700
v 0.368279 0.985166 -0.051433
v 0.373965 0.980006 -0.047301
v 0.372651 0.977612 -0.046651
v 0.375555 0.980739 -0.043141
v 0.373745 0.978979 -0.042366
v 0.375696 0.981292 -0.045653
v 0.372603 0.977153 -0.044120
v 0.195410 1.132932 0.003591
v 0.195900 1.138079 -0.041862
v 0.205349 1.141187 -0.018325
v 0.184880 1.164394 -0.014237
v 0.174918 1.172817 -0.012563
v 0.181026 1.160910 0.006419
v 0.179812 1.162897 -0.035213
v 0.222795 1.096587 -0.007546
v 0.192386 1.087381 -0.031827
v 0.166817 1.161337 -0.034015
v 0.168075 1.158887 0.006133
v 0.165147 1.173162 -0.011703
v 0.173314 1.134694 -0.041342
v 0.173574 1.129122 0.001894
v 0.272193 1.035710 -0.056290
v 0.285504 1.051157 -0.050633
v 0.202721 1.087301 -0.012879
v 0.225393 1.102482 -0.043816
v 0.233689 1.106455 -0.023710
v 0.204262 1.092974 -0.046507
v 0.370948 0.987414 -0.049838
v 0.346856 0.979104 -0.048174
v 0.291070 1.055188 -0.032576
v 0.265264 1.024540 -0.043655
v 0.283661 1.045269 -0.019571
v 0.271048 1.030135 -0.025058
v 0.365846 0.979502 -0.039785
v 0.350465 0.988438 -0.058059
v 0.365463 1.001404 -0.042037
v 0.373768 0.988044 -0.043479
v 0.358739 0.994950 -0.031750
v 0.364455 0.977024 -0.046513
v 0.329827 1.007033 -0.068159
v 0.347707 1.010431 -0.058511
v 0.332869 0.989559 -0.030941
v 0.344974 1.004319 -0.026896
v 0.353785 1.013198 -0.040693
v 0.328678 0.982635 -0.048937
v 0.315520 0.988731 -0.048170
v 0.340856 1.019862 -0.039658
v 0.332271 1.010668 -0.025708
v 0.319973 0.995648 -0.029880
v 0.335203 1.016783 -0.057808
v 0.318711 0.990431 -0.063012
v 0.334249 0.990076 -0.074826
v 0.327881 0.999684 -0.079425
v 0.337841 0.991220 -0.065739
v 0.328134 0.985206 -0.063237
v 0.317822 1.002613 -0.065323
v 0.338892 1.001873 -0.068344
v 0.332268 0.986892 -0.085050
v 0.327064 0.990952 -0.090777
v 0.321216 0.989830 -0.073968
v 0.327696 0.986699 -0.072737
v 0.334355 0.996553 -0.078182
v 0.321295 0.996339 -0.077300
v 0.331414 0.983537 -0.093341
v 0.329565 0.980170 -0.090219
v 0.323699 0.984920 -0.085332
v 0.328289 0.984224 -0.083329
v 0.331655 0.990255 -0.088774
v 0.323086 0.988284 -0.089056
v 0.330470 0.980201 -0.093573
v 0.328828 0.980416 -0.094314
v 0.326539 0.982378 -0.093553
v 0.328768 0.983883 -0.094535
v 0.331788 0.981693 -0.091184
v 0.326919 0.980515 -0.091413
v 0.349706 0.984062 -0.034714
v 0.370369 0.984888 -0.038329
v 0.359942 0.999945 -0.054824
v 0.366158 0.981780 -0.051417
v 0.155349 1.157708 0.000841
v 0.156704 1.124697 -0.022521
v 0.154808 1.159516 -0.028771
v 0.155348 1.138832 -0.033143
v 0.156124 1.135255 -0.004678
v 0.154972 1.168644 -0.012383
v 0.149066 1.157336 -0.014808
v 0.149073 1.151972 -0.008409
v 0.149428 1.136489 -0.019566
v 0.149153 1.152985 -0.022812
v 0.149186 1.142956 -0.024881
v 0.149402 1.141154 -0.011098
v 0.146811 1.145591 -0.018948
v 0.146786 1.145100 -0.015689
v 0.146698 1.149017 -0.016552
v 0.146680 1.147629 -0.015070
v 0.146856 1.144011 -0.017651
v 0.146758 1.148069 -0.018469
v 0.372708 0.978894 -0.047725
v 0.374533 0.980318 -0.041988
v 0.374798 0.981414 -0.047042
v 0.372548 0.977905 -0.042648
v 0.371916 0.976835 -0.045587
v 0.375990 0.981767 -0.044244
vn 0.1591 -0.2171 0.9631
vn 0.6270 0.1717 0.7599
vn 0.7366 0.2514 0.6278
vn 0.1845 -0.1415 0.9726
vn 0.1125 0.2267 -0.9674
vn 0.6278 0.5305 -0.5697
vn 0.5687 0.4876 -0.6625
vn 0.1223 0.1739 -0.9771
vn 0.8109 0.5648 0.1531
vn 0.8046 0.5352 0.2572
vn 0.7520 0.6484 -0.1185
vn 0.7352 0.6693 -0.1070
vn 0.7203 0.6907 0.0637
vn 0.8011 0.5912 0.0930
vn 0.7410 0.6661 -0.0848
vn 0.7110 0.7011 -0.0541
vn 0.0252 0.9616 0.2733
vn 0.4076 0.8973 0.1692
vn 0.3783 0.9163 -0.1316
vn 0.0959 0.9752 -0.1994
vn 0.1321 0.0677 0.9889
vn 0.6729 0.3578 0.6474
vn 0.5799 0.6457 0.4968
vn 0.1138 0.5392 0.8344
vn -0.0213 0.7376 -0.6749
vn 0.5090 0.7517 -0.4195
vn 0.5956 0.5732 -0.5628
vn 0.0220 0.3983 -0.9170
vn 0.1148 -0.2126 0.9704
vn 0.0761 -0.1762 0.9814
vn 0.4250 0.2310 0.8752
vn 0.5117 0.1752 0.8411
vn -0.7119 -0.5791 -0.3973
vn -0.6698 -0.6343 -0.3861
vn -0.6664 -0.7374 0.1107
vn -0.7002 -0.6925 0.1737
vn -0.3167 0.6816 -0.6596
vn -0.2047 0.6973 -0.6869
vn -0.2475 0.3357 -0.9089
vn -0.3509 0.3340 -0.8748
vn -0.2895 -0.0375 0.9564
vn -0.1529 -0.0194 0.9881
vn -0.1349 0.4655 0.8747
vn -0.3006 0.4461 0.8430
vn -0.2253 0.9252 0.3053
vn -0.0151 0.9539 0.2997
vn -0.0471 0.9721 -0.2297
vn -0.2234 0.9452 -0.2382
vn -0.3559 0.0293 -0.9341
vn -0.2066 0.0855 -0.9747
vn -0.1928 -0.0253 -0.9809
vn -0.3873 -0.2178 -0.8958
vn -0.4071 -0.5926 0.6950
vn -0.1969 -0.4368 0.8778
vn -0.1357 -0.2931 0.9464
vn -0.3049 -0.3784 0.8740
vn -0.0401 0.1156 -0.9925
vn -0.0571 0.1225 -0.9908
vn -0.3278 -0.2657 -0.9066
vn -0.3365 -0.2732 -0.9012
vn 0.4462 0.6651 -0.5988
vn 0.4217 0.7043 -0.5710
vn 0.1937 0.4475 -0.8731
vn 0.2027 0.4127 -0.8880
vn -0.5203 -0.6447 0.5600
vn -0.5157 -0.6774 0.5245
vn -0.2562 -0.4920 0.8320
vn -0.2581 -0.4932 0.8307
vn 0.5220 0.4856 -0.7012
vn 0.4851 0.5760 -0.6579
vn 0.1746 0.3183 -0.9318
vn 0.1298 0.2166 -0.9676
vn 0.7663 0.5322 0.3599
vn 0.6834 0.6044 0.4094
vn 0.7006 0.7056 -0.1061
vn 0.7650 0.6327 -0.1201
vn -0.1784 -0.0056 -0.9839
vn -0.1077 0.0547 -0.9927
vn -0.4258 -0.2865 -0.8583
vn -0.4620 -0.2620 -0.8473
vn 0.6988 0.3229 -0.6383
vn 0.7324 0.2421 -0.6364
vn 0.5198 -0.0112 -0.8542
vn 0.4833 0.0476 -0.8741
vn -0.0390 -0.9483 -0.3151
vn -0.0602 -0.9019 -0.4276
vn -0.1312 -0.9853 0.1094
vn -0.1601 -0.9791 0.1258
vn 0.6099 0.6686 0.4255
vn 0.5735 0.6937 0.4357
vn 0.5821 0.8099 -0.0722
vn 0.6191 0.7799 -0.0919
vn -0.6007 -0.6825 -0.4164
vn -0.5604 -0.7111 -0.4246
vn -0.5733 -0.8079 0.1365
vn -0.6107 -0.7822 0.1232
vn 0.0421 -0.1384 0.9895
vn 0.0469 -0.0934 0.9945
vn 0.3523 0.3222 0.8787
vn 0.3655 0.2786 0.8881
vn -0.4625 -0.6764 0.5733
vn -0.4253 -0.6718 0.6065
vn -0.2106 -0.4285 0.8786
vn -0.2365 -0.4549 0.8586
vn -0.0382 -0.8141 0.5795
vn 0.0010 -0.8216 0.5701
vn 0.1625 -0.5748 0.8020
vn 0.1154 -0.5568 0.8226
vn 0.3641 -0.2166 -0.9058
vn 0.3057 -0.1939 -0.9322
vn 0.1385 -0.5139 -0.8466
vn 0.1947 -0.5458 -0.8150
vn 0.7214 0.5401 0.4335
vn 0.7773 0.4656 0.4231
vn 0.8258 0.5540 -0.1057
vn 0.7685 0.6339 -0.0870
vn 0.8085 0.4169 0.4153
vn 0.8589 0.3236 0.3970
vn 0.9045 0.4047 -0.1347
vn 0.8569 0.5021 -0.1169
vn 0.2610 -0.1994 0.9445
vn 0.2974 -0.2358 0.9252
vn 0.5549 0.1362 0.8207
vn 0.5132 0.1975 0.8352
vn -0.0549 -0.8924 -0.4479
vn -0.0080 -0.8957 -0.4447
vn -0.0826 -0.9911 0.1042
vn -0.1205 -0.9870 0.1064
vn 0.2209 0.6360 -0.7394
vn 0.2500 0.7512 -0.6109
vn -0.1134 0.7311 -0.6728
vn 0.0774 0.4596 -0.8847
vn 0.3800 0.7720 -0.5095
vn 0.5625 0.6061 -0.5624
vn 0.6311 0.2088 -0.7471
vn 0.3728 0.5773 -0.7264
vn -0.2590 -0.7469 0.6124
vn -0.1736 -0.7786 0.6030
vn -0.0224 -0.4916 0.8705
vn -0.1068 -0.4459 0.8887
vn 0.0910 -0.0279 0.9955
vn 0.1794 -0.1161 0.9769
vn 0.4127 0.3271 0.8501
vn 0.2994 0.4473 0.8428
vn 0.4304 0.7893 0.4379
vn 0.5824 0.6811 0.4438
vn 0.6153 0.7864 -0.0546
vn 0.4435 0.8957 -0.0312
vn -0.3485 -0.9310 -0.1086
vn -0.2395 -0.9619 -0.1320
vn -0.2375 -0.9589 0.1554
vn -0.3529 -0.9203 0.1686
vn -0.5458 -0.7685 -0.3339
vn -0.4650 -0.8737 -0.1429
vn -0.4398 -0.8825 0.1667
vn -0.5372 -0.8304 0.1478
vn 0.5383 0.7180 0.4412
vn 0.4466 0.7794 0.4394
vn 0.4641 0.8852 -0.0315
vn 0.5479 0.8351 -0.0490
vn 0.0700 -0.0452 0.9965
vn 0.0723 -0.0144 0.9973
vn 0.3021 0.4418 0.8447
vn 0.3497 0.3738 0.8590
vn -0.3965 -0.6804 0.6163
vn -0.3229 -0.7181 0.6165
vn -0.1498 -0.4221 0.8941
vn -0.1860 -0.4127 0.8917
vn 0.3967 0.7363 -0.5482
vn 0.3578 0.7828 -0.5090
vn 0.2319 0.6545 -0.7196
vn 0.2026 0.5001 -0.8419
vn -0.5502 -0.6224 -0.5567
vn -0.8062 -0.4376 -0.3982
vn -0.5959 -0.7670 -0.2377
vn -0.4957 -0.8172 -0.2938
vn 0.6287 -0.7462 -0.2190
vn 0.6510 -0.7574 -0.0509
vn 0.8990 -0.3974 -0.1842
vn 0.8687 -0.4100 -0.2781
vn 0.2673 0.8283 -0.4924
vn 0.2052 0.8304 -0.5180
vn -0.2793 0.8303 -0.4823
vn -0.2099 0.8655 -0.4549
vn 0.4957 -0.6512 -0.5747
vn 0.6769 -0.6772 -0.2883
vn 0.8855 -0.3732 -0.2768
vn 0.6815 -0.3191 -0.6586
vn -0.3486 -0.9160 -0.1986
vn -0.3439 -0.9274 -0.1470
vn 0.1390 -0.9681 -0.2085
vn -0.0377 -0.9322 -0.3599
vn -0.1741 0.1828 -0.9676
vn -0.5965 0.4799 -0.6433
vn -0.8511 0.0930 -0.5168
vn -0.4545 -0.2599 -0.8520
vn 0.6307 0.2084 -0.7476
vn 0.8517 0.0912 -0.5161
vn 0.5379 0.5953 -0.5969
vn 0.3366 0.5073 -0.7933
vn 0.7621 -0.5950 0.2553
vn 0.8023 -0.4643 0.3751
vn 0.9891 -0.1257 0.0770
vn 0.9715 -0.2364 0.0174
vn 0.1409 0.7205 -0.6790
vn 0.1531 0.5510 -0.8203
vn -0.3276 0.4465 -0.8326
vn -0.3465 0.6629 -0.6637
vn -0.9546 -0.2767 -0.1100
vn -0.9459 -0.3213 -0.0458
vn -0.6619 -0.7471 0.0614
vn -0.6916 -0.7208 -0.0462
vn -0.3194 -0.9428 -0.0959
vn -0.2122 -0.9747 0.0709
vn 0.2423 -0.9675 0.0727
vn 0.1585 -0.9799 -0.1212
vn 0.9077 0.0786 -0.4123
vn 0.9312 0.1146 -0.3462
vn 0.6723 0.5708 -0.4713
vn 0.6542 0.5659 -0.5017
vn -0.6967 0.6359 -0.3320
vn -0.7146 0.5832 -0.3864
vn -0.9541 0.1964 -0.2262
vn -0.9382 0.2627 -0.2252
vn 0.9185 0.1463 -0.3673
vn 0.8826 -0.0063 -0.4700
vn 0.6085 0.1088 -0.7860
vn 0.6343 0.3473 -0.6907
vn -0.0446 -0.8890 0.4558
vn 0.0131 -0.9755 0.2195
vn 0.4181 -0.8522 0.3145
vn 0.4148 -0.7709 0.4833
vn -0.8934 -0.4492 -0.0074
vn -0.8436 -0.5370 0.0084
vn -0.5454 -0.7732 0.3236
vn -0.5823 -0.7787 0.2337
vn -0.1010 -0.9214 0.3752
vn -0.0726 -0.8474 0.5259
vn 0.4009 -0.7361 0.5453
vn 0.3629 -0.8435 0.3960
vn 0.9358 0.2020 -0.2891
vn 0.9258 0.2282 -0.3013
vn 0.6302 0.4681 -0.6195
vn 0.6371 0.5485 -0.5414
vn -0.7540 0.3863 -0.5313
vn -0.7308 0.1686 -0.6614
vn -0.9135 -0.1785 -0.3656
vn -0.9536 0.0001 -0.3012
vn 0.4408 -0.4293 -0.7883
vn 0.7626 -0.4348 -0.4789
vn 0.5452 -0.8309 -0.1115
vn 0.1644 -0.9325 -0.3217
vn -0.1662 -0.3895 -0.9059
vn 0.2472 -0.3831 -0.8900
vn -0.0464 -0.9179 -0.3941
vn -0.3487 -0.7220 -0.5976
vn -0.6752 0.0377 -0.7367
vn -0.5895 -0.0977 -0.8019
vn -0.7532 -0.3958 -0.5255
vn -0.8530 -0.2862 -0.4363
vn 0.1801 0.4066 -0.8957
vn 0.2160 0.1601 -0.9632
vn -0.2173 0.1374 -0.9664
vn -0.2835 0.3033 -0.9097
vn 0.8059 -0.5030 0.3124
vn 0.7846 -0.5967 0.1685
vn 0.9482 -0.2987 -0.1079
vn 0.9838 -0.1791 0.0120
vn -0.7872 -0.6139 -0.0592
vn -0.6818 -0.7085 -0.1819
vn -0.3795 -0.9242 0.0423
vn -0.4988 -0.8296 0.2508
vn -0.0885 -0.8026 0.5899
vn -0.0529 -0.8107 0.5831
vn 0.0961 -0.5475 0.8313
vn 0.0599 -0.5310 0.8453
vn 0.3206 -0.2584 0.9113
vn 0.3617 -0.3051 0.8809
vn 0.6191 0.0271 0.7848
vn 0.5796 0.0979 0.8090
vn 0.6529 0.4446 -0.6132
vn 0.6780 0.3704 -0.6349
vn 0.4749 0.0804 -0.8763
vn 0.5285 0.1296 -0.8390
vn 0.3152 -0.2027 -0.9271
vn 0.3587 -0.2291 -0.9049
vn 0.1872 -0.5243 -0.8307
vn 0.1428 -0.5134 -0.8462
vn -0.5545 0.3680 0.7464
vn -0.7982 0.2721 0.5374
vn -0.7308 -0.0449 0.6811
vn -0.4686 -0.0507 0.8820
vn -0.6911 -0.7012 0.1751
vn -0.7682 -0.6265 0.1320
vn -0.7915 -0.5412 -0.2840
vn -0.7130 -0.5781 -0.3967
vn -0.4685 0.3081 -0.8280
vn -0.7363 0.2531 -0.6275
vn -0.7708 0.4706 -0.4295
vn -0.5311 0.6059 -0.5923
vn -0.5740 -0.2768 -0.7706
vn -0.7439 -0.2778 -0.6078
vn -0.7110 -0.0038 -0.7032
vn -0.4821 0.0060 -0.8761
vn -0.4936 -0.3631 0.7902
vn -0.6942 -0.3209 0.6443
vn -0.7081 -0.5202 0.4775
vn -0.5663 -0.5779 0.5877
vn -0.5399 0.8159 -0.2068
vn -0.7998 0.5808 -0.1519
vn -0.8199 0.5439 0.1788
vn -0.5542 0.7869 0.2715
vn -0.9161 0.3843 -0.1144
vn -0.9499 0.2963 -0.0999
vn -0.9627 0.2628 0.0643
vn -0.9322 0.3482 0.0987
vn -0.9206 0.1721 0.3507
vn -0.9557 0.1251 0.2664
vn -0.9290 -0.0433 0.3676
vn -0.8817 -0.0421 0.4700
vn -0.8966 -0.4326 0.0946
vn -0.9377 -0.3400 0.0720
vn -0.9469 -0.2888 -0.1413
vn -0.9113 -0.3695 -0.1815
vn -0.8824 0.1875 -0.4316
vn -0.9263 0.1518 -0.3449
vn -0.9366 0.2617 -0.2329
vn -0.8983 0.3299 -0.2903
vn -0.8973 -0.1921 -0.3974
vn -0.9393 -0.1535 -0.3067
vn -0.9289 -0.0050 -0.3704
vn -0.8809 -0.0025 -0.4733
vn -0.8573 -0.2344 0.4584
vn -0.9110 -0.1941 0.3638
vn -0.9175 -0.2961 0.2657
vn -0.8659 -0.3686 0.3380
vn -0.9407 -0.1539 -0.3023
vn -0.9728 -0.0833 -0.2162
vn -0.9299 -0.0167 -0.3676
vn -0.9182 -0.1930 0.3458
vn -0.9722 -0.1629 0.1683
vn -0.9246 -0.2901 0.2467
vn -0.9549 0.2817 -0.0940
vn -0.9887 0.1491 -0.0178
vn -0.9695 0.2305 0.0838
vn -0.9613 0.1176 0.2491
vn -0.9836 0.0116 0.1800
vn -0.9362 -0.0574 0.3468
vn -0.9406 -0.3345 0.0589
vn -0.9767 -0.2101 -0.0439
vn -0.9500 -0.2689 -0.1587
vn -0.9293 0.1400 -0.3418
vn -0.9763 0.1085 -0.1872
vn -0.9432 0.2436 -0.2261
vn 0.4461 -0.2775 -0.8509
vn 0.6740 -0.5138 -0.5308
vn 0.3060 -0.6194 -0.7230
vn 0.4334 -0.3924 0.8113
vn 0.7222 -0.5700 0.3919
vn 0.7632 -0.1072 0.6373
vn 0.7832 0.0978 -0.6140
vn 0.7703 -0.3959 -0.4999
vn 0.5574 -0.1810 -0.8103
vn 0.1125 -0.8379 0.5340
vn 0.5984 -0.7173 0.3569
vn 0.3349 -0.5702 0.7501
vn 0.1127 -0.8931 -0.4355
vn 0.5158 -0.8447 -0.1430
vn 0.1000 -0.9810 0.1664
vn 0.9210 0.1519 0.3588
vn 0.9505 -0.3105 -0.0152
vn 0.9547 0.1570 -0.2528
vn 0.1164 -0.2168 0.9693
vn 0.5190 0.1618 0.8393
vn 0.5796 0.2570 0.7733
vn 0.1294 -0.1353 0.9823
vn 0.1052 0.2273 -0.9681
vn 0.5244 0.5522 -0.6482
vn 0.5184 0.4913 -0.6999
vn 0.1447 0.1743 -0.9740
vn 0.7466 0.6112 0.2626
vn 0.7451 0.5605 0.3615
vn 0.7523 0.6481 -0.1180
vn 0.7390 0.6636 -0.1166
vn 0.7554 0.6481 0.0965
vn 0.7540 0.6373 0.1594
vn 0.7539 0.6479 -0.1091
vn 0.7366 0.6710 -0.0845
vn 0.1465 0.9651 0.2170
vn 0.5201 0.8488 0.0957
vn 0.5008 0.8627 -0.0699
vn -0.0058 0.9845 -0.1755
vn 0.0957 0.0702 0.9929
vn 0.6997 0.5010 0.5094
vn 0.6027 0.6773 0.4220
vn -0.0452 0.5528 0.8321
vn -0.0886 0.7416 -0.6650
vn 0.5249 0.7589 -0.3853
vn 0.6148 0.6433 -0.4563
vn 0.0493 0.3959 -0.9170
vn 0.1011 -0.2164 0.9711
vn 0.0793 -0.1743 0.9815
vn 0.4191 0.2273 0.8791
vn 0.4737 0.1640 0.8653
vn -0.7118 -0.5867 -0.3862
vn -0.6603 -0.6276 -0.4124
vn -0.6582 -0.7411 0.1322
vn -0.7013 -0.7025 0.1210
vn -0.2871 0.6763 -0.6784
vn -0.2025 0.6970 -0.6879
vn -0.2015 0.3215 -0.9252
vn -0.3147 0.3172 -0.8946
vn -0.2805 -0.0422 0.9589
vn -0.1480 -0.0211 0.9888
vn -0.1524 0.4694 0.8698
vn -0.2604 0.4334 0.8627
vn -0.2263 0.9251 0.3048
vn -0.0666 0.9574 0.2812
vn -0.0953 0.9729 -0.2107
vn -0.2411 0.9432 -0.2287
vn -0.3623 0.0332 -0.9315
vn -0.1950 0.0813 -0.9774
vn -0.1761 -0.0272 -0.9840
vn -0.4631 -0.1876 -0.8662
vn -0.5406 -0.5169 0.6638
vn -0.2724 -0.4188 0.8662
vn -0.2091 -0.2613 0.9423
vn -0.3930 -0.3189 0.8625
vn -0.0446 0.1120 -0.9927
vn -0.1129 0.0785 -0.9905
vn -0.3329 -0.2813 -0.9000
vn -0.3280 -0.2656 -0.9066
vn 0.4629 0.6724 -0.5776
vn 0.4336 0.7093 -0.5557
vn 0.2136 0.4959 -0.8417
vn 0.2219 0.4257 -0.8773
vn -0.5388 -0.6435 0.5437
vn -0.4718 -0.6676 0.5760
vn -0.2173 -0.4742 0.8532
vn -0.2557 -0.4929 0.8317
vn 0.5556 0.4875 -0.6736
vn 0.5311 0.5884 -0.6097
vn 0.2569 0.3584 -0.8975
vn 0.2219 0.2379 -0.9456
vn 0.7414 0.5355 0.4045
vn 0.6791 0.6030 0.4187
vn 0.6999 0.7074 -0.0989
vn 0.7678 0.6303 -0.1146
vn -0.0945 0.0198 -0.9953
vn -0.0289 0.1025 -0.9943
vn -0.3638 -0.2416 -0.8996
vn -0.4394 -0.2530 -0.8619
vn 0.6999 0.3228 -0.6372
vn 0.7414 0.2405 -0.6265
vn 0.5117 -0.0132 -0.8591
vn 0.4827 0.0474 -0.8745
vn -0.1046 -0.8964 -0.4306
vn -0.0685 -0.8909 -0.4490
vn -0.1326 -0.9853 0.1074
vn -0.1717 -0.9787 0.1128
vn 0.6069 0.6663 0.4332
vn 0.5717 0.6924 0.4402
vn 0.5809 0.8122 -0.0539
vn 0.6185 0.7821 -0.0763
vn -0.5988 -0.6809 -0.4216
vn -0.5887 -0.7285 -0.3503
vn -0.5740 -0.8054 0.1479
vn -0.6054 -0.7837 0.1393
vn 0.0722 -0.1144 0.9908
vn 0.0871 -0.0605 0.9944
vn 0.3788 0.3458 0.8584
vn 0.3835 0.2947 0.8753
vn -0.4357 -0.6642 0.6075
vn -0.4227 -0.6638 0.6170
vn -0.2005 -0.4029 0.8930
vn -0.2041 -0.4333 0.8778
vn -0.0379 -0.8148 0.5785
vn 0.0043 -0.8276 0.5613
vn 0.1620 -0.5657 0.8085
vn 0.1162 -0.5564 0.8227
vn 0.3532 -0.2220 -0.9088
vn 0.3032 -0.1953 -0.9327
vn 0.1382 -0.5123 -0.8476
vn 0.2177 -0.5334 -0.8174
vn 0.7207 0.5403 0.4343
vn 0.7768 0.4657 0.4239
vn 0.8252 0.5547 -0.1069
vn 0.7668 0.6357 -0.0895
vn 0.8076 0.4172 0.4167
vn 0.8518 0.3265 0.4097
vn 0.8998 0.4113 -0.1457
vn 0.8562 0.5029 -0.1183
vn 0.2627 -0.1989 0.9441
vn 0.2993 -0.2350 0.9247
vn 0.5566 0.1366 0.8195
vn 0.5144 0.1976 0.8345
vn -0.0553 -0.8918 -0.4491
vn -0.0118 -0.8904 -0.4550
vn -0.0760 -0.9906 0.1134
vn -0.1198 -0.9870 0.1074
vn 0.2052 0.6686 -0.7147
vn 0.2393 0.7643 -0.5988
vn -0.2232 0.7873 -0.5747
vn -0.1211 0.6945 -0.7092
vn 0.3678 0.7755 -0.5131
vn 0.5183 0.6242 -0.5845
vn 0.4067 0.3063 -0.8607
vn 0.2984 0.5963 -0.7452
vn -0.2585 -0.7470 0.6126
vn -0.1727 -0.7785 0.6034
vn -0.0220 -0.4915 0.8706
vn -0.1065 -0.4459 0.8887
vn 0.0909 -0.0278 0.9955
vn 0.1798 -0.1161 0.9768
vn 0.4125 0.3272 0.8502
vn 0.2990 0.4473 0.8429
vn 0.4289 0.7897 0.4387
vn 0.5809 0.6816 0.4450
vn 0.6161 0.7859 -0.0540
vn 0.4488 0.8932 -0.0283
vn -0.3688 -0.9214 -0.1224
vn -0.0338 -0.9485 -0.3151
vn -0.2662 -0.9544 0.1349
vn -0.3597 -0.9184 0.1647
vn -0.6566 -0.7392 -0.1497
vn -0.5114 -0.8536 -0.0987
vn -0.4470 -0.8774 0.1744
vn -0.5435 -0.8219 0.1704
vn 0.5377 0.7179 0.4422
vn 0.4471 0.7793 0.4391
vn 0.4614 0.8865 -0.0335
vn 0.5507 0.8335 -0.0439
vn 0.0921 -0.0333 0.9952
vn 0.0771 -0.0143 0.9969
vn 0.3052 0.4417 0.8437
vn 0.3641 0.3815 0.8497
vn -0.3967 -0.6778 0.6190
vn -0.3233 -0.7176 0.6169
vn -0.1469 -0.4220 0.8946
vn -0.1849 -0.3999 0.8977
vn 0.4203 0.7401 -0.5250
vn 0.3652 0.7816 -0.5057
vn 0.2701 0.6551 -0.7056
vn 0.1936 0.6757 -0.7113
vn -0.8192 -0.4397 -0.3682
vn -0.8988 -0.3123 -0.3077
vn -0.6745 -0.7211 -0.1584
vn -0.6037 -0.7754 -0.1852
vn 0.6067 -0.7763 -0.1711
vn 0.6687 -0.7395 -0.0780
vn 0.9005 -0.3896 -0.1934
vn 0.8677 -0.4255 -0.2571
vn 0.2053 0.8308 -0.5173
vn 0.1241 0.8298 -0.5441
vn -0.3618 0.7905 -0.4942
vn -0.2788 0.8358 -0.4730
vn 0.5347 -0.6379 -0.5543
vn 0.6569 -0.7419 -0.1343
vn 0.8577 -0.4146 -0.3041
vn 0.6057 -0.3772 -0.7006
vn -0.3438 -0.9189 -0.1937
vn -0.3184 -0.9310 -0.1784
vn 0.1402 -0.9675 -0.2106
vn 0.1335 -0.9627 -0.2353
vn -0.3777 0.1290 -0.9169
vn -0.6521 0.4740 -0.5917
vn -0.8231 0.1160 -0.5560
vn -0.4839 -0.0815 -0.8713
vn 0.6188 -0.0375 -0.7846
vn 0.8473 0.0297 -0.5302
vn 0.5897 0.4691 -0.6574
vn 0.4702 0.4938 -0.7315
vn 0.7879 -0.5766 0.2164
vn 0.8080 -0.4611 0.3666
vn 0.9901 -0.1225 0.0678
vn 0.9758 -0.2178 -0.0178
vn 0.1158 0.7144 -0.6901
vn 0.1527 0.5508 -0.8205
vn -0.3312 0.4430 -0.8331
vn -0.3807 0.6382 -0.6691
vn -0.9438 -0.3258 -0.0562
vn -0.9139 -0.4020 0.0560
vn -0.5622 -0.8089 0.1720
vn -0.6511 -0.7589 0.0068
vn -0.2090 -0.9779 -0.0054
vn -0.0709 -0.9829 0.1698
vn 0.3299 -0.9440 0.0013
vn 0.1993 -0.9659 -0.1651
vn 0.9093 0.0758 -0.4092
vn 0.9232 0.1297 -0.3618
vn 0.6348 0.5917 -0.4969
vn 0.6689 0.5577 -0.4914
vn -0.7152 0.6122 -0.3372
vn -0.7690 0.5503 -0.3252
vn -0.9803 0.1338 -0.1454
vn -0.9585 0.2247 -0.1755
vn 0.9145 0.1474 -0.3769
vn 0.8331 -0.0130 -0.5529
vn 0.5782 0.0976 -0.8100
vn 0.6295 0.3520 -0.6927
vn -0.0514 -0.8879 0.4571
vn -0.0144 -0.9815 0.1907
vn 0.3466 -0.8988 0.2684
vn 0.4068 -0.7770 0.4804
vn -0.8728 -0.4835 0.0669
vn -0.8405 -0.5412 0.0243
vn -0.5382 -0.7737 0.3343
vn -0.5336 -0.7922 0.2961
vn -0.0450 -0.9084 0.4156
vn -0.0652 -0.8447 0.5313
vn 0.4090 -0.7352 0.5406
vn 0.4121 -0.8357 0.3630
vn 0.9254 0.2134 -0.3131
vn 0.9238 0.2293 -0.3065
vn 0.6294 0.4680 -0.6204
vn 0.6203 0.5522 -0.5570
vn -0.7930 0.3665 -0.4866
vn -0.7393 0.1656 -0.6527
vn -0.9184 -0.1842 -0.3502
vn -0.9713 -0.0360 -0.2349
vn 0.4182 -0.4055 -0.8128
vn 0.6925 -0.5017 -0.5183
vn 0.5100 -0.8341 -0.2101
vn 0.1245 -0.9402 -0.3169
vn -0.2259 -0.3057 -0.9250
vn 0.2097 -0.3991 -0.8926
vn -0.0667 -0.9023 -0.4260
vn -0.4434 -0.7017 -0.5577
vn -0.6769 0.0324 -0.7353
vn -0.5982 -0.1608 -0.7850
vn -0.7195 -0.3816 -0.5802
vn -0.8510 -0.2846 -0.4414
vn 0.1857 0.4100 -0.8930
vn 0.2508 0.1404 -0.9578
vn -0.1256 0.1123 -0.9857
vn -0.2735 0.3026 -0.9130
vn 0.8087 -0.5014 0.3076
vn 0.8066 -0.5810 0.1085
vn 0.9279 -0.3602 -0.0962
vn 0.9827 -0.1844 0.0138
vn -0.7812 -0.6218 -0.0558
vn -0.6121 -0.7736 -0.1642
vn -0.3420 -0.9387 0.0429
vn -0.4952 -0.8299 0.2568
vn -0.0526 -0.8112 0.5824
vn 0.0947 -0.5481 0.8310
vn 0.0591 -0.5313 0.8451
vn 0.3197 -0.2587 0.9115
vn 0.3517 -0.3088 0.8837
vn 0.6299 0.0285 0.7761
vn 0.5808 0.0981 0.8081
vn 0.6342 0.4493 -0.6292
vn 0.6765 0.3705 -0.6365
vn 0.4636 0.0772 -0.8827
vn 0.4458 0.1218 -0.8868
vn 0.3159 -0.2024 -0.9270
vn 0.3669 -0.2249 -0.9027
vn 0.1889 -0.5345 -0.8238
vn 0.1429 -0.5145 -0.8455
vn -0.5173 0.4062 0.7532
vn -0.7920 0.2842 0.5403
vn -0.7281 -0.0423 0.6841
vn -0.4871 -0.0406 0.8724
vn -0.6832 -0.7142 0.1520
vn -0.7685 -0.6260 0.1324
vn -0.7910 -0.5422 -0.2835
vn -0.6895 -0.6363 -0.3460
vn -0.5069 0.3218 -0.7997
vn -0.7230 0.2683 -0.6367
vn -0.7681 0.4748 -0.4296
vn -0.4996 0.6333 -0.5911
vn -0.5401 -0.3147 -0.7805
vn -0.7519 -0.2662 -0.6032
vn -0.7271 0.0080 -0.6865
vn -0.4962 0.0146 -0.8681
vn -0.4641 -0.3850 0.7977
vn -0.6926 -0.3205 0.6462
vn -0.7098 -0.5179 0.4775
vn -0.5292 -0.6158 0.5837
vn -0.5490 0.8087 -0.2110
vn -0.8087 0.5660 -0.1601
vn -0.8300 0.5344 0.1599
vn -0.5751 0.7780 0.2530
vn -0.9179 0.3785 -0.1196
vn -0.9496 0.2979 -0.0976
vn -0.9620 0.2635 0.0716
vn -0.9334 0.3466 0.0933
vn -0.9202 0.1742 0.3507
vn -0.9555 0.1275 0.2659
vn -0.9293 -0.0450 0.3667
vn -0.8825 -0.0441 0.4683
vn -0.8953 -0.4361 0.0911
vn -0.9358 -0.3470 0.0616
vn -0.9484 -0.2811 -0.1465
vn -0.9134 -0.3628 -0.1847
vn -0.8829 0.1863 -0.4311
vn -0.9291 0.1402 -0.3423
vn -0.9378 0.2547 -0.2360
vn -0.9000 0.3242 -0.2913
vn -0.8988 -0.1876 -0.3962
vn -0.9390 -0.1557 -0.3068
vn -0.9262 -0.0132 -0.3769
vn -0.8817 -0.0013 -0.4718
vn -0.8593 -0.2356 0.4540
vn -0.9133 -0.1976 0.3562
vn -0.9146 -0.3074 0.2628
vn -0.8641 -0.3731 0.3378
vn -0.9387 -0.1682 -0.3010
vn -0.9722 -0.0611 -0.2262
vn -0.9309 -0.0136 -0.3651
vn -0.9199 -0.1883 0.3440
vn -0.9722 -0.1682 0.1631
vn -0.9174 -0.3219 0.2340
vn -0.9556 0.2765 -0.1015
vn -0.9888 0.1480 -0.0179
vn -0.9656 0.2514 0.0666
vn -0.9601 0.1387 0.2427
vn -0.9886 0.0050 0.1507
vn -0.9344 -0.0448 0.3534
vn -0.9402 -0.3360 0.0566
vn -0.9808 -0.1908 -0.0408
vn -0.9472 -0.2841 -0.1484
vn -0.9349 0.1142 -0.3361
vn -0.9797 0.0995 -0.1741
vn -0.9424 0.2499 -0.2223
vn 0.5024 -0.2517 -0.8272
vn 0.6434 -0.5083 -0.5724
vn 0.2874 -0.5505 -0.7838
vn 0.4185 -0.4663 0.7794
vn 0.7164 -0.5445 0.4363
vn 0.6889 -0.1058 0.7171
vn 0.8406 0.0722 -0.5368
vn 0.7696 -0.3583 -0.5285
vn 0.5739 -0.1121 -0.8112
vn 0.1486 -0.8784 0.4543
vn 0.5608 -0.7287 0.3932
vn 0.2642 -0.6041 0.7519
vn 0.1884 -0.8506 -0.4910
vn 0.6279 -0.7678 -0.1270
vn 0.0419 -0.9941 0.0998
vn 0.9095 0.0566 0.4119
vn 0.9021 -0.4292 -0.0441
vn 0.9591 0.2302 -0.1649
vt 0.312500 0.562500
vt 0.312500 0.563802
vt 0.312500 0.562500
vt 0.312500 0.563802
vt 0.312500 0.572917
vt 0.312500 0.572917
vt 0.312500 0.623698
vt 0.312500 0.625000
vt 0.312500 0.625000
vt 0.312500 0.614583
vt 0.312500 0.623698
vt 0.312500 0.614583
vt 0.312500 0.572917
vt 0.312500 0.593750
vt 0.312500 0.614583
vt 0.312500 0.614583
vt 0.312500 0.578125
vt 0.312500 0.593750
vt 0.312500 0.593750
vt 0.312500 0.573809
vt 0.312500 0.613691
vt 0.312500 0.609375
vt 0.312500 0.573809
vt 0.312500 0.613691
vt 0.312500 0.565056
vt 0.312500 0.563802
vt 0.312500 0.623698
vt 0.312500 0.613691
vt 0.312500 0.622444
vt 0.312500 0.614896
vt 0.312500 0.617500
vt 0.312500 0.572604
vt 0.312500 0.570000
vt 0.312500 0.623698
vt 0.312500 0.624227
vt 0.312500 0.624861
vt 0.312500 0.624227
vt 0.312500 0.562639
vt 0.312500 0.563273
vt 0.312500 0.623776
vt 0.312500 0.625000
vt 0.312500 0.614896
vt 0.312500 0.623698
vt 0.312500 0.563724
vt 0.312500 0.623776
vt 0.312500 0.624227
vt 0.312500 0.623915
vt 0.312500 0.615379
vt 0.312500 0.624783
vt 0.312500 0.594063
vt 0.312500 0.593828
vt 0.312500 0.563802
vt 0.312500 0.563585
vt 0.312500 0.572121
vt 0.312500 0.562717
vt 0.312500 0.624227
vt 0.312500 0.572772
vt 0.312500 0.571759
vt 0.312500 0.593660
vt 0.312500 0.614728
vt 0.312500 0.615741
vt 0.312500 0.593840
vt 0.312500 0.595993
vt 0.312500 0.617500
vt 0.312500 0.623776
vt 0.312500 0.623776
vt 0.312500 0.614896
vt 0.312500 0.563784
vt 0.312500 0.563657
vt 0.312500 0.623716
vt 0.312500 0.623843
vt 0.312500 0.572604
vt 0.312500 0.614896
vt 0.312500 0.563273
vt 0.312500 0.593750
vt 0.312500 0.562500
vt 0.312500 0.572121
vt 0.312500 0.591508
vt 0.312500 0.624783
vt 0.312500 0.624855
vt 0.312500 0.563667
vt 0.312500 0.563657
vt 0.312500 0.562645
vt 0.312500 0.569589
vt 0.312500 0.615741
vt 0.312500 0.603434
vt 0.312500 0.617911
vt 0.312500 0.562717
vt 0.312500 0.584066
vt 0.312500 0.569589
vt 0.312500 0.623834
vt 0.312500 0.617911
vt 0.312500 0.624855
vt 0.312500 0.623843
vt 0.312500 0.617911
vt 0.312500 0.617911
vt 0.312500 0.569589
s 0
usemtl Material.002
f 16/1/1 280/2/1 124/3/1
f 116/4/2 103/5/2 280/2/2
f 280/2/3 10/6/3 109/4/3
f 124/3/4 109/4/4 15/1/4
f 114/7/5 123/8/5 14/9/5
f 9/10/6 281/11/6 114/7/6
f 105/12/7 100/7/7 281/11/7
f 281/11/8 13/9/8 123/8/8
f 103/13/9 107/14/9 10/13/9
f 11/13/10 282/14/10 103/13/10
f 282/14/11 12/15/11 105/16/11
f 282/14/12 9/15/12 107/14/12
f 7/17/13 283/18/13 101/19/13
f 10/13/14 283/18/14 106/20/14
f 107/18/15 102/21/15 283/18/15
f 283/18/16 8/22/16 101/19/16
f 118/23/17 122/18/17 18/13/17
f 7/17/18 284/19/18 118/23/18
f 284/19/19 8/22/19 111/24/19
f 284/19/20 17/15/20 122/18/20
f 15/1/21 285/25/21 121/26/21
f 10/6/22 285/25/22 109/4/22
f 106/20/23 118/23/23 285/25/23
f 121/26/24 118/23/24 18/13/24
f 111/24/25 120/27/25 17/15/25
f 111/24/26 102/28/26 286/29/26
f 286/29/27 9/10/27 114/7/27
f 286/29/28 14/9/28 120/27/28
f 134/1/29 116/2/29 16/1/29
f 24/1/30 287/2/30 134/1/30
f 130/2/31 133/13/31 287/2/31
f 287/2/32 11/13/32 116/2/32
f 132/30/33 97/18/33 3/31/33
f 132/30/34 125/19/34 288/19/34
f 125/19/35 119/32/35 288/19/35
f 97/18/36 119/32/36 4/33/36
f 117/16/37 95/34/37 2/15/37
f 17/15/38 289/34/38 117/16/38
f 120/34/39 108/9/39 289/34/39
f 289/34/40 5/9/40 95/34/40
f 6/1/41 290/2/41 99/2/41
f 115/1/42 121/2/42 290/2/42
f 290/2/43 18/13/43 112/13/43
f 99/2/44 112/13/44 1/13/44
f 1/13/45 291/14/45 94/14/45
f 112/13/46 122/14/46 291/14/46
f 122/14/47 117/16/47 291/14/47
f 291/14/48 2/15/48 94/14/48
f 108/9/49 98/35/49 5/9/49
f 14/9/50 292/36/50 108/9/50
f 123/9/51 113/37/51 292/36/51
f 292/36/52 3/31/52 98/35/52
f 4/33/53 293/38/53 96/39/53
f 110/39/54 124/1/54 293/38/54
f 293/38/55 15/1/55 115/1/55
f 96/39/56 115/1/56 6/1/56
f 21/9/57 294/40/57 129/27/57
f 131/41/58 141/37/58 294/40/58
f 141/37/59 145/42/59 294/40/59
f 129/27/60 145/42/60 19/16/60
f 22/15/61 295/43/61 126/27/61
f 144/15/62 138/43/62 295/43/62
f 138/43/63 131/41/63 295/43/63
f 126/27/64 131/41/64 21/9/64
f 119/32/65 110/39/65 4/33/65
f 20/13/66 296/44/66 119/32/66
f 128/4/67 134/1/67 296/44/67
f 296/44/68 16/1/68 110/39/68
f 12/15/69 297/34/69 100/34/69
f 136/16/70 126/34/70 297/34/70
f 297/34/71 21/9/71 135/9/71
f 100/34/72 135/9/72 13/9/72
f 133/13/73 104/14/73 11/13/73
f 23/13/74 298/14/74 133/13/74
f 127/14/75 136/16/75 298/14/75
f 104/14/76 136/16/76 12/15/76
f 13/9/77 299/45/77 113/46/77
f 135/9/78 129/27/78 299/45/78
f 299/45/79 19/16/79 132/30/79
f 113/46/80 132/30/80 3/31/80
f 73/15/81 300/47/81 164/27/81
f 268/48/82 232/49/82 300/47/82
f 300/47/83 31/9/83 273/9/83
f 164/27/84 273/9/84 32/9/84
f 150/30/85 171/50/85 40/31/85
f 34/16/86 301/51/86 150/30/86
f 267/19/87 159/13/87 301/51/87
f 301/51/88 39/13/88 171/50/88
f 146/13/89 127/14/89 23/13/89
f 29/13/90 302/14/90 146/13/90
f 139/14/91 144/16/91 302/14/91
f 302/14/92 22/15/92 127/14/92
f 19/16/93 303/51/93 125/19/93
f 145/42/94 137/50/94 303/51/94
f 303/51/95 26/13/95 147/13/95
f 303/51/96 20/13/96 125/19/96
f 148/1/97 130/2/97 24/1/97
f 30/1/98 304/2/98 148/1/98
f 142/2/99 146/13/99 304/2/99
f 304/2/100 23/13/100 130/2/100
f 147/13/101 128/52/101 20/6/101
f 147/13/102 140/52/102 305/52/102
f 305/52/103 30/1/103 148/1/103
f 305/52/104 24/1/104 128/52/104
f 35/13/105 306/53/105 266/4/105
f 271/54/106 153/55/106 306/53/106
f 306/53/107 87/1/107 270/1/107
f 306/53/108 33/1/108 266/4/108
f 42/9/109 307/45/109 166/56/109
f 235/9/110 234/27/110 307/45/110
f 234/27/111 150/30/111 307/45/111
f 166/56/112 150/30/112 40/31/112
f 143/13/113 170/14/113 38/13/113
f 36/13/114 308/14/114 143/13/114
f 308/14/115 73/15/115 151/16/115
f 170/14/116 151/16/116 37/15/116
f 269/57/117 154/18/117 36/13/117
f 90/58/118 309/59/118 269/57/118
f 309/59/119 91/41/119 268/48/119
f 154/18/120 268/48/120 73/15/120
f 233/1/121 169/2/121 41/1/121
f 33/1/122 310/2/122 233/1/122
f 161/2/123 143/13/123 310/2/123
f 310/2/124 38/13/124 169/2/124
f 272/60/125 267/19/125 34/16/125
f 88/61/126 311/62/126 272/60/126
f 149/63/127 271/54/127 311/62/127
f 311/62/128 35/13/128 267/19/128
f 48/9/129 312/9/129 177/41/129
f 193/9/130 189/9/130 312/9/130
f 312/9/131 50/9/131 192/9/131
f 177/41/132 192/9/132 27/9/132
f 46/15/133 313/43/133 182/27/133
f 160/15/134 167/43/134 313/43/134
f 313/43/135 42/9/135 165/41/135
f 182/27/136 165/41/136 48/9/136
f 162/13/137 181/52/137 47/6/137
f 39/6/138 314/52/138 162/13/138
f 168/52/139 174/1/139 314/52/139
f 314/52/140 45/1/140 181/52/140
f 174/1/141 180/2/141 45/1/141
f 41/1/142 315/2/142 174/1/142
f 169/2/143 172/13/143 315/2/143
f 315/2/144 43/13/144 180/2/144
f 172/13/145 179/14/145 43/13/145
f 38/13/146 316/14/146 172/13/146
f 316/14/147 37/15/147 160/16/147
f 179/14/148 160/16/148 46/15/148
f 173/42/149 178/19/149 44/16/149
f 173/42/150 171/50/150 317/51/150
f 171/50/151 162/13/151 317/51/151
f 317/51/152 47/13/152 178/19/152
f 25/64/153 318/51/153 137/50/153
f 157/30/154 178/19/154 318/51/154
f 318/51/155 47/13/155 176/13/155
f 137/50/156 176/13/156 26/13/156
f 155/13/157 139/14/157 29/13/157
f 43/13/158 319/14/158 155/13/158
f 319/14/159 46/15/159 175/16/159
f 139/14/160 175/16/160 28/15/160
f 158/1/161 142/2/161 30/1/161
f 45/1/162 320/2/162 158/1/162
f 180/2/163 155/13/163 320/2/163
f 320/2/164 29/13/164 142/2/164
f 26/6/165 321/52/165 140/52/165
f 176/13/166 181/52/166 321/52/166
f 181/52/167 158/1/167 321/52/167
f 140/52/168 158/1/168 30/1/168
f 28/15/169 322/27/169 138/43/169
f 175/15/170 182/27/170 322/27/170
f 322/27/171 48/9/171 177/9/171
f 322/27/172 27/9/172 138/43/172
f 191/37/173 157/30/173 25/64/173
f 49/9/174 323/65/174 191/37/174
f 185/9/175 183/27/175 323/65/175
f 323/65/176 44/10/176 157/30/176
f 205/9/177 187/8/177 54/9/177
f 60/9/178 324/8/178 205/9/178
f 199/8/179 204/9/179 324/8/179
f 324/8/180 53/9/180 187/8/180
f 203/9/181 189/8/181 52/9/181
f 58/9/182 325/8/182 203/9/182
f 201/8/183 190/9/183 325/8/183
f 325/8/184 50/9/184 189/8/184
f 40/31/185 326/36/185 166/37/185
f 54/9/186 326/36/186 195/37/186
f 326/36/187 53/9/187 194/9/187
f 166/37/188 194/9/188 42/9/188
f 44/10/189 327/66/189 173/67/189
f 51/9/190 327/66/190 183/27/190
f 188/9/191 195/37/191 327/66/191
f 173/67/192 195/37/192 40/31/192
f 27/9/193 328/36/193 141/37/193
f 192/9/194 184/9/194 328/36/194
f 328/36/195 49/9/195 191/37/195
f 328/36/196 25/64/196 141/37/196
f 42/9/197 329/9/197 165/9/197
f 194/9/198 186/9/198 329/9/198
f 329/9/199 52/9/199 193/9/199
f 329/9/200 48/9/200 165/9/200
f 217/9/201 199/8/201 60/9/201
f 66/9/202 330/8/202 217/9/202
f 211/8/203 216/9/203 330/8/203
f 330/8/204 59/9/204 199/8/204
f 215/9/205 201/8/205 58/9/205
f 64/9/206 331/8/206 215/9/206
f 213/8/207 202/9/207 331/8/207
f 331/8/208 56/9/208 201/8/208
f 49/9/209 332/8/209 185/8/209
f 207/9/210 197/8/210 332/8/210
f 332/8/211 57/9/211 206/9/211
f 185/8/212 206/9/212 51/9/212
f 51/9/213 333/8/213 188/8/213
f 206/9/214 200/8/214 333/8/214
f 200/8/215 205/9/215 333/8/215
f 333/8/216 54/9/216 188/8/216
f 204/9/217 186/8/217 53/9/217
f 59/9/218 334/8/218 204/9/218
f 198/8/219 203/9/219 334/8/219
f 334/8/220 52/9/220 186/8/220
f 190/9/221 184/8/221 50/9/221
f 190/9/222 196/8/222 335/8/222
f 335/8/223 55/9/223 207/9/223
f 184/8/224 207/9/224 49/9/224
f 229/41/225 210/9/225 65/9/225
f 71/9/226 336/9/226 229/41/226
f 222/9/227 228/9/227 336/9/227
f 210/9/228 228/9/228 64/9/228
f 227/9/229 212/9/229 63/9/229
f 227/9/230 224/9/230 337/9/230
f 337/9/231 72/9/231 214/41/231
f 212/9/232 214/41/232 66/9/232
f 55/9/233 338/8/233 197/8/233
f 219/9/234 209/8/234 338/8/234
f 338/8/235 63/9/235 218/9/235
f 197/8/236 218/9/236 57/9/236
f 57/9/237 339/8/237 200/8/237
f 218/9/238 212/8/238 339/8/238
f 212/8/239 217/9/239 339/8/239
f 339/8/240 60/9/240 200/8/240
f 216/9/241 198/8/241 59/9/241
f 65/9/242 340/8/242 216/9/242
f 210/8/243 215/9/243 340/8/243
f 340/8/244 58/9/244 198/8/244
f 56/9/245 341/8/245 196/8/245
f 202/9/246 208/8/246 341/8/246
f 341/8/247 61/9/247 219/9/247
f 196/8/248 219/9/248 55/9/248
f 222/41/249 226/9/249 70/9/249
f 222/41/250 223/9/250 342/9/250
f 223/9/251 224/9/251 342/9/251
f 226/9/252 224/9/252 69/9/252
f 225/9/253 220/9/253 68/9/253
f 225/9/254 226/9/254 343/9/254
f 226/9/255 221/9/255 343/9/255
f 220/9/256 221/9/256 67/41/256
f 231/41/257 208/9/257 62/9/257
f 68/9/258 344/9/258 231/41/258
f 344/9/259 67/41/259 230/41/259
f 208/9/260 230/41/260 61/9/260
f 228/9/261 213/9/261 64/9/261
f 228/9/262 225/9/262 345/9/262
f 345/9/263 68/9/263 231/41/263
f 213/9/264 231/41/264 62/9/264
f 214/41/265 211/9/265 66/9/265
f 72/9/266 346/9/266 214/41/266
f 346/9/267 71/9/267 229/41/267
f 211/9/268 229/41/268 65/9/268
f 230/41/269 209/9/269 61/9/269
f 67/41/270 347/9/270 230/41/270
f 221/9/271 227/9/271 347/9/271
f 209/9/272 227/9/272 63/9/272
f 159/13/273 168/52/273 39/6/273
f 159/13/274 266/52/274 348/52/274
f 266/52/275 233/1/275 348/52/275
f 348/52/276 41/1/276 168/52/276
f 270/1/277 161/26/277 33/1/277
f 87/1/278 349/68/278 270/1/278
f 152/69/279 269/57/279 349/68/279
f 349/68/280 36/13/280 161/26/280
f 37/15/281 350/27/281 167/43/281
f 151/15/282 164/27/282 350/27/282
f 350/27/283 32/9/283 235/9/283
f 167/43/284 235/9/284 42/9/284
f 32/9/285 351/70/285 234/27/285
f 273/9/286 163/71/286 351/70/286
f 163/71/287 272/60/287 351/70/287
f 351/70/288 34/16/288 234/27/288
f 243/13/289 99/52/289 1/6/289
f 74/6/290 352/52/290 243/13/290
f 241/52/291 242/1/291 352/52/291
f 99/52/292 242/1/292 6/1/292
f 4/33/293 353/18/293 97/18/293
f 245/72/294 239/18/294 353/18/294
f 239/18/295 244/73/295 353/18/295
f 353/18/296 3/31/296 97/18/296
f 247/9/297 95/34/297 5/9/297
f 247/9/298 237/34/298 354/34/298
f 354/34/299 75/10/299 246/10/299
f 95/34/300 246/10/300 2/10/300
f 244/73/301 98/37/301 3/31/301
f 76/15/302 355/66/302 244/73/302
f 240/27/303 247/9/303 355/66/303
f 355/66/304 5/9/304 98/37/304
f 6/1/305 356/44/305 96/74/305
f 79/1/306 356/44/306 242/1/306
f 356/44/307 77/13/307 245/72/307
f 96/74/308 245/72/308 4/33/308
f 2/10/309 357/75/309 94/75/309
f 246/10/310 236/75/310 357/75/310
f 357/75/311 74/6/311 243/13/311
f 94/75/312 243/13/312 1/6/312
f 75/16/313 358/62/313 236/19/313
f 255/60/314 248/63/314 358/62/314
f 358/62/315 80/76/315 254/77/315
f 236/19/316 254/77/316 74/13/316
f 254/77/317 241/4/317 74/13/317
f 80/76/318 359/53/318 254/77/318
f 253/55/319 256/1/319 359/53/319
f 359/53/320 79/1/320 241/4/320
f 77/13/321 360/59/321 239/18/321
f 258/57/322 251/78/322 360/59/322
f 251/78/323 257/48/323 360/59/323
f 360/59/324 76/15/324 239/18/324
f 78/9/325 361/70/325 237/27/325
f 259/9/326 249/71/326 361/70/326
f 361/70/327 81/61/327 255/60/327
f 237/27/328 255/60/328 75/16/328
f 257/48/329 240/27/329 76/15/329
f 82/41/330 362/47/330 257/48/330
f 252/79/331 259/9/331 362/47/331
f 362/47/332 78/9/332 240/27/332
f 256/1/333 238/26/333 79/1/333
f 85/1/334 363/68/334 256/1/334
f 363/68/335 83/58/335 258/57/335
f 238/26/336 258/57/336 77/13/336
f 262/9/337 252/49/337 82/41/337
f 86/41/338 364/9/338 262/9/338
f 84/9/339 364/9/339 261/80/339
f 85/1/340 365/81/340 250/82/340
f 86/76/341 365/81/341 264/83/341
f 250/82/342 263/84/342 83/58/342
f 81/85/343 366/86/343 248/63/343
f 260/19/344 265/87/344 86/41/344
f 80/76/345 366/86/345 260/19/345
f 260/1/346 253/88/346 80/76/346
f 264/83/347 260/1/347 86/76/347
f 85/1/348 367/1/348 264/83/348
f 83/58/349 368/89/349 251/78/349
f 262/19/350 263/90/350 86/76/350
f 82/41/351 368/89/351 262/19/351
f 84/9/352 369/91/352 249/71/352
f 265/92/353 261/93/353 86/41/353
f 249/94/354 265/95/354 81/85/354
f 31/9/355 370/91/355 163/71/355
f 275/92/356 274/93/356 92/41/356
f 88/85/357 370/91/357 275/96/357
f 87/1/358 371/81/358 152/82/358
f 276/90/359 277/83/359 92/76/359
f 90/58/360 371/81/360 276/84/360
f 91/41/361 372/9/361 232/49/361
f 274/80/362 278/9/362 92/41/362
f 31/9/363 372/9/363 274/80/363
f 89/76/364 373/1/364 153/88/364
f 277/83/365 279/1/365 92/76/365
f 87/1/366 373/1/366 277/83/366
f 88/85/367 374/86/367 149/63/367
f 279/19/368 275/92/368 92/41/368
f 89/76/369 374/86/369 279/19/369
f 90/58/370 375/89/370 156/78/370
f 278/19/371 276/90/371 92/76/371
f 91/41/372 375/89/372 278/19/372
f 16/1/373 116/4/373 280/2/373
f 116/4/374 11/6/374 103/5/374
f 280/2/375 103/5/375 10/6/375
f 124/3/376 280/2/376 109/4/376
f 114/7/377 281/11/377 123/8/377
f 9/10/378 105/12/378 281/11/378
f 105/12/379 12/10/379 100/7/379
f 281/11/380 100/7/380 13/9/380
f 103/13/381 282/14/381 107/14/381
f 11/13/382 104/14/382 282/14/382
f 282/14/383 104/14/383 12/15/383
f 282/14/384 105/16/384 9/15/384
f 7/17/385 106/20/385 283/18/385
f 10/13/386 107/18/386 283/18/386
f 107/18/387 9/15/387 102/21/387
f 283/18/388 102/21/388 8/22/388
f 118/23/389 284/19/389 122/18/389
f 7/17/390 101/19/390 284/19/390
f 284/19/391 101/19/391 8/22/391
f 284/19/392 111/24/392 17/15/392
f 15/1/393 109/4/393 285/25/393
f 10/6/394 106/20/394 285/25/394
f 106/20/395 7/17/395 118/23/395
f 121/26/396 285/25/396 118/23/396
f 111/24/397 286/29/397 120/27/397
f 111/24/398 8/22/398 102/28/398
f 286/29/399 102/28/399 9/10/399
f 286/29/400 114/7/400 14/9/400
f 134/1/401 287/2/401 116/2/401
f 24/1/402 130/2/402 287/2/402
f 130/2/403 23/13/403 133/13/403
f 287/2/404 133/13/404 11/13/404
f 132/30/405 288/19/405 97/18/405
f 132/30/406 19/16/406 125/19/406
f 125/19/407 20/13/407 119/32/407
f 97/18/408 288/19/408 119/32/408
f 117/16/409 289/34/409 95/34/409
f 17/15/410 120/34/410 289/34/410
f 120/34/411 14/9/411 108/9/411
f 289/34/412 108/9/412 5/9/412
f 6/1/413 115/1/413 290/2/413
f 115/1/414 15/1/414 121/2/414
f 290/2/415 121/2/415 18/13/415
f 99/2/416 290/2/416 112/13/416
f 1/13/417 112/13/417 291/14/417
f 112/13/418 18/13/418 122/14/418
f 122/14/419 17/15/419 117/16/419
f 291/14/420 117/16/420 2/15/420
f 108/9/421 292/36/421 98/35/421
f 14/9/422 123/9/422 292/36/422
f 123/9/423 13/9/423 113/37/423
f 292/36/424 113/37/424 3/31/424
f 4/33/425 110/39/425 293/38/425
f 110/39/426 16/1/426 124/1/426
f 293/38/427 124/1/427 15/1/427
f 96/39/428 293/38/428 115/1/428
f 21/9/429 131/41/429 294/40/429
f 131/41/430 27/9/430 141/37/430
f 141/37/431 25/64/431 145/42/431
f 129/27/432 294/40/432 145/42/432
f 22/15/433 144/15/433 295/43/433
f 144/15/434 28/15/434 138/43/434
f 138/43/435 27/9/435 131/41/435
f 126/27/436 295/43/436 131/41/436
f 119/32/437 296/44/437 110/39/437
f 20/13/438 128/4/438 296/44/438
f 128/4/439 24/1/439 134/1/439
f 296/44/440 134/1/440 16/1/440
f 12/15/441 136/16/441 297/34/441
f 136/16/442 22/15/442 126/34/442
f 297/34/443 126/34/443 21/9/443
f 100/34/444 297/34/444 135/9/444
f 133/13/445 298/14/445 104/14/445
f 23/13/446 127/14/446 298/14/446
f 127/14/447 22/15/447 136/16/447
f 104/14/448 298/14/448 136/16/448
f 13/9/449 135/9/449 299/45/449
f 135/9/450 21/9/450 129/27/450
f 299/45/451 129/27/451 19/16/451
f 113/46/452 299/45/452 132/30/452
f 73/15/453 268/48/453 300/47/453
f 268/48/454 91/41/454 232/49/454
f 300/47/455 232/49/455 31/9/455
f 164/27/456 300/47/456 273/9/456
f 150/30/457 301/51/457 171/50/457
f 34/16/458 267/19/458 301/51/458
f 267/19/459 35/13/459 159/13/459
f 301/51/460 159/13/460 39/13/460
f 146/13/461 302/14/461 127/14/461
f 29/13/462 139/14/462 302/14/462
f 139/14/463 28/15/463 144/16/463
f 302/14/464 144/16/464 22/15/464
f 19/16/465 145/42/465 303/51/465
f 145/42/466 25/64/466 137/50/466
f 303/51/467 137/50/467 26/13/467
f 303/51/468 147/13/468 20/13/468
f 148/1/469 304/2/469 130/2/469
f 30/1/470 142/2/470 304/2/470
f 142/2/471 29/13/471 146/13/471
f 304/2/472 146/13/472 23/13/472
f 147/13/473 305/52/473 128/52/473
f 147/13/474 26/6/474 140/52/474
f 305/52/475 140/52/475 30/1/475
f 305/52/476 148/1/476 24/1/476
f 35/13/477 271/54/477 306/53/477
f 271/54/478 89/76/478 153/55/478
f 306/53/479 153/55/479 87/1/479
f 306/53/480 270/1/480 33/1/480
f 42/9/481 235/9/481 307/45/481
f 235/9/482 32/9/482 234/27/482
f 234/27/483 34/16/483 150/30/483
f 166/56/484 307/45/484 150/30/484
f 143/13/485 308/14/485 170/14/485
f 36/13/486 154/14/486 308/14/486
f 308/14/487 154/14/487 73/15/487
f 170/14/488 308/14/488 151/16/488
f 269/57/489 309/59/489 154/18/489
f 90/58/490 156/78/490 309/59/490
f 309/59/491 156/78/491 91/41/491
f 154/18/492 309/59/492 268/48/492
f 233/1/493 310/2/493 169/2/493
f 33/1/494 161/2/494 310/2/494
f 161/2/495 36/13/495 143/13/495
f 310/2/496 143/13/496 38/13/496
f 272/60/497 311/62/497 267/19/497
f 88/61/498 149/63/498 311/62/498
f 149/63/499 89/76/499 271/54/499
f 311/62/500 271/54/500 35/13/500
f 48/9/501 193/9/501 312/9/501
f 193/9/502 52/9/502 189/9/502
f 312/9/503 189/9/503 50/9/503
f 177/41/504 312/9/504 192/9/504
f 46/15/505 160/15/505 313/43/505
f 160/15/506 37/15/506 167/43/506
f 313/43/507 167/43/507 42/9/507
f 182/27/508 313/43/508 165/41/508
f 162/13/509 314/52/509 181/52/509
f 39/6/510 168/52/510 314/52/510
f 168/52/511 41/1/511 174/1/511
f 314/52/512 174/1/512 45/1/512
f 174/1/513 315/2/513 180/2/513
f 41/1/514 169/2/514 315/2/514
f 169/2/515 38/13/515 172/13/515
f 315/2/516 172/13/516 43/13/516
f 172/13/517 316/14/517 179/14/517
f 38/13/518 170/14/518 316/14/518
f 316/14/519 170/14/519 37/15/519
f 179/14/520 316/14/520 160/16/520
f 173/42/521 317/51/521 178/19/521
f 173/42/522 40/31/522 171/50/522
f 171/50/523 39/13/523 162/13/523
f 317/51/524 162/13/524 47/13/524
f 25/64/525 157/30/525 318/51/525
f 157/30/526 44/16/526 178/19/526
f 318/51/527 178/19/527 47/13/527
f 137/50/528 318/51/528 176/13/528
f 155/13/529 319/14/529 139/14/529
f 43/13/530 179/14/530 319/14/530
f 319/14/531 179/14/531 46/15/531
f 139/14/532 319/14/532 175/16/532
f 158/1/533 320/2/533 142/2/533
f 45/1/534 180/2/534 320/2/534
f 180/2/535 43/13/535 155/13/535
f 320/2/536 155/13/536 29/13/536
f 26/6/537 176/13/537 321/52/537
f 176/13/538 47/6/538 181/52/538
f 181/52/539 45/1/539 158/1/539
f 140/52/540 321/52/540 158/1/540
f 28/15/541 175/15/541 322/27/541
f 175/15/542 46/15/542 182/27/542
f 322/27/543 182/27/543 48/9/543
f 322/27/544 177/9/544 27/9/544
f 191/37/545 323/65/545 157/30/545
f 49/9/546 185/9/546 323/65/546
f 185/9/547 51/9/547 183/27/547
f 323/65/548 183/27/548 44/10/548
f 205/9/549 324/8/549 187/8/549
f 60/9/550 199/8/550 324/8/550
f 199/8/551 59/9/551 204/9/551
f 324/8/552 204/9/552 53/9/552
f 203/9/553 325/8/553 189/8/553
f 58/9/554 201/8/554 325/8/554
f 201/8/555 56/9/555 190/9/555
f 325/8/556 190/9/556 50/9/556
f 40/31/557 195/37/557 326/36/557
f 54/9/558 187/9/558 326/36/558
f 326/36/559 187/9/559 53/9/559
f 166/37/560 326/36/560 194/9/560
f 44/10/561 183/27/561 327/66/561
f 51/9/562 188/9/562 327/66/562
f 188/9/563 54/9/563 195/37/563
f 173/67/564 327/66/564 195/37/564
f 27/9/565 192/9/565 328/36/565
f 192/9/566 50/9/566 184/9/566
f 328/36/567 184/9/567 49/9/567
f 328/36/568 191/37/568 25/64/568
f 42/9/569 194/9/569 329/9/569
f 194/9/570 53/9/570 186/9/570
f 329/9/571 186/9/571 52/9/571
f 329/9/572 193/9/572 48/9/572
f 217/9/573 330/8/573 199/8/573
f 66/9/574 211/8/574 330/8/574
f 211/8/575 65/9/575 216/9/575
f 330/8/576 216/9/576 59/9/576
f 215/9/577 331/8/577 201/8/577
f 64/9/578 213/8/578 331/8/578
f 213/8/579 62/9/579 202/9/579
f 331/8/580 202/9/580 56/9/580
f 49/9/581 207/9/581 332/8/581
f 207/9/582 55/9/582 197/8/582
f 332/8/583 197/8/583 57/9/583
f 185/8/584 332/8/584 206/9/584
f 51/9/585 206/9/585 333/8/585
f 206/9/586 57/9/586 200/8/586
f 200/8/587 60/9/587 205/9/587
f 333/8/588 205/9/588 54/9/588
f 204/9/589 334/8/589 186/8/589
f 59/9/590 198/8/590 334/8/590
f 198/8/591 58/9/591 203/9/591
f 334/8/592 203/9/592 52/9/592
f 190/9/593 335/8/593 184/8/593
f 190/9/594 56/9/594 196/8/594
f 335/8/595 196/8/595 55/9/595
f 184/8/596 335/8/596 207/9/596
f 229/41/597 336/9/597 210/9/597
f 71/9/598 222/9/598 336/9/598
f 222/9/599 70/9/599 228/9/599
f 210/9/600 336/9/600 228/9/600
f 227/9/601 337/9/601 212/9/601
f 227/9/602 69/9/602 224/9/602
f 337/9/603 224/9/603 72/9/603
f 212/9/604 337/9/604 214/41/604
f 55/9/605 219/9/605 338/8/605
f 219/9/606 61/9/606 209/8/606
f 338/8/607 209/8/607 63/9/607
f 197/8/608 338/8/608 218/9/608
f 57/9/609 218/9/609 339/8/609
f 218/9/610 63/9/610 212/8/610
f 212/8/611 66/9/611 217/9/611
f 339/8/612 217/9/612 60/9/612
f 216/9/613 340/8/613 198/8/613
f 65/9/614 210/8/614 340/8/614
f 210/8/615 64/9/615 215/9/615
f 340/8/616 215/9/616 58/9/616
f 56/9/617 202/9/617 341/8/617
f 202/9/618 62/9/618 208/8/618
f 341/8/619 208/8/619 61/9/619
f 196/8/620 341/8/620 219/9/620
f 222/41/621 342/9/621 226/9/621
f 222/41/622 71/9/622 223/9/622
f 223/9/623 72/9/623 224/9/623
f 226/9/624 342/9/624 224/9/624
f 225/9/625 343/9/625 220/9/625
f 225/9/626 70/9/626 226/9/626
f 226/9/627 69/9/627 221/9/627
f 220/9/628 343/9/628 221/9/628
f 231/41/629 344/9/629 208/9/629
f 68/9/630 220/9/630 344/9/630
f 344/9/631 220/9/631 67/41/631
f 208/9/632 344/9/632 230/41/632
f 228/9/633 345/9/633 213/9/633
f 228/9/634 70/9/634 225/9/634
f 345/9/635 225/9/635 68/9/635
f 213/9/636 345/9/636 231/41/636
f 214/41/637 346/9/637 211/9/637
f 72/9/638 223/9/638 346/9/638
f 346/9/639 223/9/639 71/9/639
f 211/9/640 346/9/640 229/41/640
f 230/41/641 347/9/641 209/9/641
f 67/41/642 221/9/642 347/9/642
f 221/9/643 69/9/643 227/9/643
f 209/9/644 347/9/644 227/9/644
f 159/13/273 348/52/273 168/52/273
f 159/13/645 35/6/645 266/52/645
f 266/52/646 33/1/646 233/1/646
f 348/52/647 233/1/647 41/1/647
f 270/1/648 349/68/648 161/26/648
f 87/1/649 152/69/649 349/68/649
f 152/69/650 90/58/650 269/57/650
f 349/68/651 269/57/651 36/13/651
f 37/15/652 151/15/652 350/27/652
f 151/15/653 73/15/653 164/27/653
f 350/27/654 164/27/654 32/9/654
f 167/43/655 350/27/655 235/9/655
f 32/9/656 273/9/656 351/70/656
f 273/9/657 31/9/657 163/71/657
f 163/71/658 88/61/658 272/60/658
f 351/70/659 272/60/659 34/16/659
f 243/13/660 352/52/660 99/52/660
f 74/6/661 241/52/661 352/52/661
f 241/52/662 79/1/662 242/1/662
f 99/52/663 352/52/663 242/1/663
f 4/33/664 245/72/664 353/18/664
f 245/72/665 77/13/665 239/18/665
f 239/18/666 76/15/666 244/73/666
f 353/18/667 244/73/667 3/31/667
f 247/9/668 354/34/668 95/34/668
f 247/9/669 78/9/669 237/34/669
f 354/34/670 237/34/670 75/10/670
f 95/34/671 354/34/671 246/10/671
f 244/73/672 355/66/672 98/37/672
f 76/15/673 240/27/673 355/66/673
f 240/27/674 78/9/674 247/9/674
f 355/66/675 247/9/675 5/9/675
f 6/1/676 242/1/676 356/44/676
f 79/1/677 238/26/677 356/44/677
f 356/44/678 238/26/678 77/13/678
f 96/74/679 356/44/679 245/72/679
f 2/10/680 246/10/680 357/75/680
f 246/10/681 75/10/681 236/75/681
f 357/75/682 236/75/682 74/6/682
f 94/75/683 357/75/683 243/13/683
f 75/16/684 255/60/684 358/62/684
f 255/60/685 81/61/685 248/63/685
f 358/62/686 248/63/686 80/76/686
f 236/19/687 358/62/687 254/77/687
f 254/77/688 359/53/688 241/4/688
f 80/76/689 253/55/689 359/53/689
f 253/55/690 85/1/690 256/1/690
f 359/53/691 256/1/691 79/1/691
f 77/13/692 258/57/692 360/59/692
f 258/57/693 83/58/693 251/78/693
f 251/78/694 82/41/694 257/48/694
f 360/59/695 257/48/695 76/15/695
f 78/9/696 259/9/696 361/70/696
f 259/9/697 84/9/697 249/71/697
f 361/70/698 249/71/698 81/61/698
f 237/27/699 361/70/699 255/60/699
f 257/48/700 362/47/700 240/27/700
f 82/41/701 252/79/701 362/47/701
f 252/79/702 84/9/702 259/9/702
f 362/47/703 259/9/703 78/9/703
f 256/1/704 363/68/704 238/26/704
f 85/1/705 250/69/705 363/68/705
f 363/68/706 250/69/706 83/58/706
f 238/26/707 363/68/707 258/57/707
f 262/9/708 364/9/708 252/49/708
f 86/41/709 261/80/709 364/9/709
f 84/9/710 252/79/710 364/9/710
f 85/1/711 264/83/711 365/81/711
f 86/76/712 263/90/712 365/81/712
f 250/82/713 365/81/713 263/84/713
f 81/85/714 265/95/714 366/86/714
f 260/19/715 366/86/715 265/87/715
f 80/76/716 248/63/716 366/86/716
f 260/1/717 367/1/717 253/88/717
f 264/83/718 367/1/718 260/1/718
f 85/1/719 253/88/719 367/1/719
f 83/58/720 263/97/720 368/89/720
f 262/19/721 368/89/721 263/90/721
f 82/41/722 251/78/722 368/89/722
f 84/9/723 261/80/723 369/91/723
f 265/92/724 369/91/724 261/93/724
f 249/94/725 369/91/725 265/95/725
f 31/9/726 274/93/726 370/91/726
f 275/92/727 370/91/727 274/93/727
f 88/85/728 163/94/728 370/91/728
f 87/1/729 277/83/729 371/81/729
f 276/90/730 371/81/730 277/83/730
f 90/58/731 152/82/731 371/81/731
f 91/41/732 278/9/732 372/9/732
f 274/80/733 372/9/733 278/9/733
f 31/9/734 232/79/734 372/9/734
f 89/76/735 279/1/735 373/1/735
f 277/83/736 373/1/736 279/1/736
f 87/1/737 153/88/737 373/1/737
f 88/85/738 275/95/738 374/86/738
f 279/19/739 374/86/739 275/92/739
f 89/76/740 149/63/740 374/86/740
f 90/58/741 276/97/741 375/89/741
f 278/19/742 375/89/742 276/90/742
f 91/41/743 156/78/743 375/89/743
