# Blender 4.1.1
# www.blender.org
mtllib LeftArm.mtl
o 左腕
v -0.375508 0.978311 -0.044890
v -0.376037 0.984593 -0.046586
v -0.371471 0.976154 -0.044419
v -0.368630 0.976654 -0.048426
v -0.146420 1.146312 -0.016603
v -0.147750 1.147379 -0.020837
v -0.147869 1.141047 -0.016064
v -0.147880 1.142574 -0.020002
v -0.147748 1.151271 -0.018185
v -0.147477 1.151745 -0.013396
v -0.151649 1.149245 -0.029080
v -0.152402 1.128707 -0.013673
v -0.152117 1.133894 -0.026657
v -0.151875 1.161762 -0.020643
v -0.151410 1.164643 -0.004631
v -0.371483 0.995329 -0.048687
v -0.330914 0.979368 -0.093040
v -0.332041 0.981043 -0.093304
v -0.330333 0.981707 -0.094557
v -0.329165 0.979080 -0.092036
v -0.328402 0.981847 -0.094692
v -0.327678 0.980529 -0.093470
v -0.333451 0.985503 -0.090073
v -0.330250 0.987101 -0.092811
v -0.326925 0.981046 -0.087196
v -0.326322 0.986139 -0.092966
v -0.324811 0.983387 -0.090414
v -0.334847 0.991914 -0.082356
v -0.330171 0.995233 -0.085741
v -0.324299 0.985534 -0.078256
v -0.324055 0.994324 -0.085721
v -0.321387 0.989915 -0.082318
v -0.339802 0.995350 -0.071328
v -0.333933 1.001949 -0.072940
v -0.322913 0.986471 -0.066819
v -0.324710 1.002888 -0.071763
v -0.319361 0.994972 -0.068864
v -0.338074 1.008282 -0.064687
v -0.349719 1.019145 -0.051504
v -0.320777 0.987193 -0.061059
v -0.346671 1.000383 -0.064386
v -0.361077 1.011393 -0.051411
v -0.361952 0.979684 -0.052512
v -0.359857 0.990309 -0.056500
v -0.372094 0.982091 -0.049208
v -0.325141 1.034342 -0.048601
v -0.314718 1.018620 -0.061700
v -0.296487 0.999217 -0.039052
v -0.313240 0.989911 -0.055914
v -0.258263 1.085763 -0.039667
v -0.243319 1.072117 -0.050873
v -0.225492 1.053724 -0.027125
v -0.228518 1.059220 -0.047160
v -0.170348 1.174539 0.006611
v -0.171710 1.170357 -0.026250
v -0.178815 1.149211 -0.041188
v -0.197026 1.118130 -0.045299
v -0.220971 1.127882 -0.039180
v -0.193836 1.156165 -0.038270
v -0.180009 1.170951 -0.027009
v -0.176774 1.173578 0.000006
v -0.160663 1.149782 -0.035869
v -0.168706 1.109355 -0.014862
v -0.169303 1.118370 -0.035541
v -0.159800 1.168994 -0.023017
v -0.159614 1.173192 0.002311
v -0.235095 1.067981 -0.012490
v -0.375508 0.978311 -0.044890
v -0.376037 0.984593 -0.046586
v -0.375014 0.983270 -0.041799
v -0.371486 0.976161 -0.044437
v -0.368659 0.976652 -0.048429
v -0.371710 0.980243 -0.040397
v -0.146420 1.146312 -0.016603
v -0.147754 1.146422 -0.012976
v -0.147869 1.141047 -0.016064
v -0.147477 1.151745 -0.013396
v -0.152158 1.146642 -0.003520
v -0.152402 1.128707 -0.013673
v -0.151410 1.164643 -0.004631
v -0.371483 0.995329 -0.048687
v -0.330911 0.979370 -0.093043
v -0.332038 0.981036 -0.093315
v -0.329166 0.979075 -0.092050
v -0.331154 0.982558 -0.087551
v -0.333451 0.985503 -0.090073
v -0.326925 0.981046 -0.087196
v -0.330949 0.987325 -0.078956
v -0.334847 0.991914 -0.082356
v -0.324299 0.985534 -0.078256
v -0.332691 0.986915 -0.068246
v -0.339802 0.995350 -0.071328
v -0.322913 0.986471 -0.066819
v -0.324137 0.986348 -0.038641
v -0.349719 1.019145 -0.051504
v -0.332601 0.999780 -0.025873
v -0.320748 0.987206 -0.061070
v -0.345687 1.012604 -0.031466
v -0.346671 1.000383 -0.064386
v -0.345111 0.994046 -0.028101
v -0.336793 0.983862 -0.058499
v -0.337718 0.981720 -0.039732
v -0.357314 1.005512 -0.033235
v -0.361077 1.011393 -0.051411
v -0.369260 0.991982 -0.038232
v -0.357804 0.978357 -0.041939
v -0.361993 0.979711 -0.052508
v -0.362005 0.985541 -0.035126
v -0.359921 0.990301 -0.056480
v -0.309039 1.014465 -0.023648
v -0.321363 1.027871 -0.028662
v -0.325141 1.034342 -0.048601
v -0.296249 0.999399 -0.039091
v -0.313210 0.989934 -0.055972
v -0.241331 1.065556 -0.014536
v -0.254319 1.079639 -0.018186
v -0.258263 1.085763 -0.039667
v -0.225492 1.053724 -0.027125
v -0.170348 1.174539 0.006611
v -0.194800 1.111339 -0.001138
v -0.180258 1.144741 0.007658
v -0.220971 1.127882 -0.039180
v -0.215273 1.121670 -0.008058
v -0.192540 1.152155 -0.000477
v -0.193836 1.156165 -0.038270
v -0.179975 1.170990 -0.027089
v -0.176757 1.173583 -0.000089
v -0.162039 1.145809 0.003726
v -0.168706 1.109355 -0.014862
v -0.159614 1.173192 0.002311
v -0.373480 0.976769 -0.044224
v -0.376392 0.980980 -0.045726
v -0.372829 0.977491 -0.046682
v -0.374220 0.979982 -0.047304
v -0.368301 0.985209 -0.051597
v -0.365025 0.977497 -0.050649
v -0.374516 0.989098 -0.047505
v -0.146840 1.148395 -0.017480
v -0.146805 1.144442 -0.016660
v -0.146934 1.144837 -0.018203
v -0.146875 1.146801 -0.018573
v -0.146643 1.148207 -0.015726
v -0.149319 1.148285 -0.024725
v -0.149701 1.135239 -0.014935
v -0.149560 1.138534 -0.023126
v -0.149414 1.156203 -0.019345
v -0.148988 1.157855 -0.009271
v -0.147819 1.144738 -0.020914
v -0.147920 1.141413 -0.018270
v -0.147765 1.149733 -0.019914
v -0.147664 1.151876 -0.015906
v -0.155017 1.149873 -0.032641
v -0.155204 1.166205 -0.021750
v -0.157057 1.122105 -0.013028
v -0.156556 1.129117 -0.029908
v -0.154960 1.169925 -0.000805
v -0.151827 1.140855 -0.029367
v -0.152301 1.130268 -0.020985
v -0.151753 1.156645 -0.026080
v -0.151732 1.164026 -0.013178
v -0.353779 0.996786 -0.060314
v -0.361482 0.984164 -0.054134
v -0.373932 0.983720 -0.048233
v -0.327627 0.983343 -0.094305
v -0.326541 0.981366 -0.092472
v -0.332793 0.982825 -0.092225
v -0.330463 0.983965 -0.094192
v -0.328119 0.979633 -0.090165
v -0.329887 0.980179 -0.093965
v -0.329309 0.981753 -0.094818
v -0.330124 0.979050 -0.092781
v -0.331474 0.979972 -0.093376
v -0.331229 0.981452 -0.094002
v -0.328312 0.979896 -0.093089
v -0.328072 0.980998 -0.094267
v -0.322934 0.986445 -0.087217
v -0.325560 0.983392 -0.083265
v -0.333863 0.988959 -0.086856
v -0.329852 0.991084 -0.090210
v -0.328218 0.986961 -0.093283
v -0.331964 0.986508 -0.091633
v -0.325573 0.982144 -0.088817
v -0.325091 0.984825 -0.091905
v -0.320427 0.993039 -0.075559
v -0.323420 0.986409 -0.072307
v -0.337094 0.993461 -0.076663
v -0.331871 0.998867 -0.079243
v -0.324885 0.989941 -0.090373
v -0.327054 0.995372 -0.086240
v -0.332709 0.993905 -0.084304
v -0.322384 0.987656 -0.080286
v -0.322004 0.992314 -0.084271
v -0.342394 0.998816 -0.067640
v -0.335502 1.004770 -0.068711
v -0.323401 1.007172 -0.066888
v -0.317052 0.995008 -0.063670
v -0.324310 0.998812 -0.078728
v -0.329436 1.003535 -0.072712
v -0.337249 0.998984 -0.072362
v -0.320369 0.990581 -0.067729
v -0.321001 0.999571 -0.070333
v -0.322454 0.986517 -0.063131
v -0.343126 1.013262 -0.058746
v -0.331197 1.011549 -0.063932
v -0.342423 1.022947 -0.050883
v -0.353713 1.006762 -0.057686
v -0.342593 1.005750 -0.064541
v -0.366609 0.993078 -0.052352
v -0.370518 0.979741 -0.049300
v -0.355364 1.016236 -0.051740
v -0.316981 0.988775 -0.059620
v -0.366737 1.003614 -0.050200
v -0.370380 0.976207 -0.046071
v -0.264648 1.022298 -0.032718
v -0.268570 1.026983 -0.052181
v -0.292584 1.057897 -0.043914
v -0.305078 1.011550 -0.060872
v -0.318470 1.028262 -0.055528
v -0.309733 0.990827 -0.047957
v -0.235865 1.109149 -0.038568
v -0.215624 1.097239 -0.047480
v -0.195510 1.089924 -0.041035
v -0.279470 1.044048 -0.055666
v -0.235024 1.065058 -0.051360
v -0.251071 1.079050 -0.046354
v -0.225831 1.055751 -0.038402
v -0.185608 1.135022 -0.043723
v -0.170610 1.173967 -0.011327
v -0.174366 1.161588 -0.035918
v -0.191924 1.085115 -0.020390
v -0.174327 1.174063 0.005975
v -0.165766 1.170102 -0.024737
v -0.186854 1.151913 -0.040536
v -0.183681 1.116719 -0.042871
v -0.165094 1.174504 0.004973
v -0.176307 1.170607 -0.026905
v -0.169328 1.148998 -0.039195
v -0.206628 1.143552 -0.039358
v -0.184978 1.165370 -0.035005
v -0.177980 1.173109 -0.013208
v -0.209328 1.122254 -0.043436
v -0.162605 1.136400 -0.037029
v -0.168698 1.111668 -0.025790
v -0.159997 1.161083 -0.031287
v -0.159700 1.172405 -0.011298
v -0.373480 0.976769 -0.044224
v -0.376392 0.980980 -0.045726
v -0.374001 0.978955 -0.042367
v -0.375810 0.980715 -0.043144
v -0.365025 0.977497 -0.050649
v -0.365202 0.977309 -0.042914
v -0.367947 0.982356 -0.038120
v -0.372975 0.986812 -0.040274
v -0.374516 0.989098 -0.047505
v -0.357627 0.977790 -0.047314
v -0.359305 0.981420 -0.037537
v -0.146829 1.146348 -0.015417
v -0.146805 1.144442 -0.016660
v -0.146643 1.148207 -0.015726
v -0.149701 1.135239 -0.014935
v -0.149497 1.146550 -0.008544
v -0.148988 1.157855 -0.009271
v -0.147647 1.149149 -0.012807
v -0.147849 1.143681 -0.014171
v -0.157057 1.122105 -0.013028
v -0.154960 1.169925 -0.000805
v -0.155995 1.146527 0.000557
v -0.151831 1.155636 -0.003020
v -0.152327 1.137669 -0.007541
v -0.353779 0.996786 -0.060314
v -0.361482 0.984164 -0.054134
v -0.353699 0.989800 -0.031371
v -0.332793 0.982825 -0.092225
v -0.328119 0.979633 -0.090165
v -0.330124 0.979050 -0.092781
v -0.331474 0.979972 -0.093376
v -0.325560 0.983392 -0.083265
v -0.330917 0.985234 -0.083733
v -0.333863 0.988959 -0.086856
v -0.331133 0.980669 -0.090526
v -0.329221 0.981668 -0.087171
v -0.332484 0.983896 -0.088609
v -0.323420 0.986409 -0.072307
v -0.331695 0.987593 -0.073414
v -0.337094 0.993461 -0.076663
v -0.327882 0.986167 -0.078353
v -0.333156 0.989357 -0.080403
v -0.333689 0.986167 -0.064146
v -0.342394 0.998816 -0.067640
v -0.328052 0.985944 -0.067377
v -0.336496 0.990383 -0.069632
v -0.322454 0.986517 -0.063131
v -0.327301 0.991995 -0.030415
v -0.339579 1.006974 -0.026309
v -0.348689 1.016399 -0.040466
v -0.322721 0.985098 -0.048983
v -0.316865 0.989683 -0.038348
v -0.342423 1.022947 -0.050883
v -0.338252 0.997260 -0.026459
v -0.328464 0.983998 -0.058075
v -0.351330 1.009817 -0.031989
v -0.336688 0.980701 -0.048973
v -0.360131 1.008908 -0.041408
v -0.351571 1.000507 -0.028522
v -0.340407 0.986933 -0.032236
v -0.342356 0.991227 -0.062270
v -0.330085 0.983943 -0.039058
v -0.365827 0.989193 -0.035435
v -0.355364 1.016236 -0.051740
v -0.347809 0.979827 -0.040795
v -0.325595 1.003408 -0.025312
v -0.316981 0.988775 -0.059620
v -0.375792 0.984199 -0.043963
v -0.338464 1.016385 -0.030832
v -0.370936 0.993898 -0.042955
v -0.370554 0.978268 -0.041541
v -0.373437 0.981994 -0.040472
v -0.366737 1.003615 -0.050200
v -0.348283 0.982093 -0.054731
v -0.370380 0.976207 -0.046071
v -0.277390 1.037513 -0.019993
v -0.264648 1.022298 -0.032718
v -0.289038 1.051653 -0.023978
v -0.292584 1.057897 -0.043914
v -0.363671 0.998913 -0.035591
v -0.315735 1.021920 -0.023781
v -0.303107 1.006547 -0.028546
v -0.324142 1.031723 -0.037557
v -0.309733 0.990827 -0.047957
v -0.235865 1.109149 -0.038568
v -0.213088 1.090491 -0.007870
v -0.230592 1.102877 -0.012884
v -0.248718 1.073025 -0.013806
v -0.233471 1.059216 -0.019652
v -0.257124 1.083553 -0.027550
v -0.185299 1.128994 0.004411
v -0.175467 1.159773 0.007982
v -0.191924 1.085115 -0.020390
v -0.174327 1.174063 0.005975
v -0.206465 1.115952 -0.001507
v -0.170839 1.144535 0.006244
v -0.165094 1.174504 0.004973
v -0.182434 1.110395 -0.005375
v -0.187840 1.148014 0.006696
v -0.194081 1.154730 -0.016702
v -0.184112 1.163603 0.000388
v -0.206628 1.143552 -0.039358
v -0.219493 1.125475 -0.021624
v -0.202911 1.138105 -0.003581
v -0.184978 1.165370 -0.035005
v -0.177980 1.173109 -0.013208
v -0.160935 1.159484 0.004397
v -0.163408 1.131341 -0.001991
v -0.372368 0.976686 -0.045614
v -0.375110 0.981374 -0.047060
v -0.372903 0.978854 -0.047738
v -0.146981 1.148066 -0.018454
v -0.147061 1.143972 -0.017637
v -0.146898 1.149027 -0.016517
v -0.147034 1.145588 -0.018934
v -0.149410 1.142956 -0.024881
v -0.149377 1.152985 -0.022812
v -0.149656 1.136222 -0.019537
v -0.149265 1.157575 -0.014633
v -0.155162 1.169150 -0.012009
v -0.155573 1.138832 -0.033143
v -0.155033 1.159516 -0.028771
v -0.156942 1.124132 -0.022518
v -0.366508 0.981598 -0.051515
v -0.360331 1.000314 -0.055217
v -0.327118 0.980459 -0.091359
v -0.328993 0.983883 -0.094535
v -0.326764 0.982378 -0.093553
v -0.329052 0.980404 -0.094301
v -0.330695 0.980060 -0.093687
v -0.323311 0.988284 -0.089056
v -0.332004 0.990284 -0.088770
v -0.323874 0.984833 -0.085253
v -0.331708 0.983541 -0.093344
v -0.321519 0.996339 -0.077300
v -0.334770 0.996565 -0.078194
v -0.321347 0.989694 -0.073891
v -0.327289 0.990952 -0.090777
v -0.339365 1.002009 -0.068401
v -0.318224 1.002399 -0.065288
v -0.328105 0.999684 -0.079425
v -0.318954 0.990170 -0.063258
v -0.335749 1.017132 -0.057979
v -0.348284 1.010754 -0.058707
v -0.330051 1.007033 -0.068159
v -0.266483 1.023115 -0.043635
v -0.371258 0.987526 -0.049947
v -0.204487 1.092974 -0.046507
v -0.226068 1.102836 -0.044191
v -0.286034 1.051502 -0.050814
v -0.272595 1.035496 -0.056255
v -0.173539 1.134694 -0.041342
v -0.165237 1.173796 -0.011105
v -0.167041 1.161337 -0.034015
v -0.192271 1.087120 -0.031735
v -0.180188 1.163069 -0.036017
v -0.174739 1.173630 -0.011948
v -0.196547 1.138383 -0.042592
v -0.376302 0.981727 -0.044262
v -0.372891 0.977830 -0.042673
v -0.374765 0.980312 -0.041988
v -0.146881 1.147638 -0.015035
v -0.146991 1.145062 -0.015675
v -0.149630 1.140887 -0.011070
v -0.149273 1.152211 -0.008234
v -0.156362 1.134689 -0.004676
v -0.155539 1.158214 0.001215
v -0.370593 0.984888 -0.038329
v -0.349930 0.984062 -0.034714
v -0.332084 0.981632 -0.091262
v -0.328465 0.984137 -0.083250
v -0.329756 0.980042 -0.090237
v -0.327827 0.986562 -0.072660
v -0.332616 0.986920 -0.085045
v -0.328250 0.985147 -0.063285
v -0.338315 0.991356 -0.065796
v -0.334664 0.990088 -0.074838
v -0.320124 0.995607 -0.029930
v -0.332495 1.010668 -0.025708
v -0.341402 1.020211 -0.039829
v -0.316864 0.987663 -0.048595
v -0.328859 0.982661 -0.049014
v -0.354342 1.013533 -0.040863
v -0.345198 1.004319 -0.026896
v -0.333094 0.989559 -0.030941
v -0.364823 0.976849 -0.046637
v -0.358963 0.994950 -0.031750
v -0.374138 0.988142 -0.043543
v -0.365974 1.001617 -0.042173
v -0.350829 0.988522 -0.058271
v -0.366106 0.979486 -0.039803
v -0.270981 1.029774 -0.024975
v -0.283886 1.045269 -0.019571
v -0.291600 1.055533 -0.032757
v -0.347166 0.979096 -0.048187
v -0.234364 1.106809 -0.024086
v -0.202605 1.087041 -0.012787
v -0.173807 1.128998 0.001848
v -0.168165 1.159520 0.006731
v -0.223019 1.096587 -0.007546
v -0.180950 1.161474 0.007119
v -0.185074 1.164882 -0.014946
v -0.205997 1.141492 -0.019055
v -0.195634 1.132932 0.003591
vn -0.3399 -0.8450 -0.4128
vn -0.2748 -0.9379 -0.2118
vn -0.4860 -0.7953 -0.3623
vn -0.7027 -0.0986 -0.7046
vn -0.5537 -0.1332 -0.8220
vn -0.6518 -0.4148 -0.6349
vn -0.4925 -0.2548 -0.8322
vn -0.3643 -0.4532 -0.8136
vn -0.5837 -0.4878 -0.6491
vn 0.9363 0.1093 -0.3337
vn 0.9436 0.2425 -0.2252
vn 0.9738 0.1135 -0.1970
vn 0.9448 -0.3130 -0.0971
vn 0.9468 -0.2771 -0.1637
vn 0.9717 -0.1962 -0.1315
vn 0.9548 0.2717 -0.1208
vn 0.9609 0.2708 -0.0577
vn 0.9829 0.1587 -0.0937
vn 0.9410 -0.1535 -0.3015
vn 0.9315 -0.0137 -0.3635
vn 0.9674 -0.0745 -0.2422
vn 0.8973 -0.1921 -0.3974
vn 0.8809 -0.0025 -0.4733
vn 0.9289 -0.0050 -0.3704
vn 0.9393 -0.1535 -0.3067
vn 0.8829 0.1863 -0.4311
vn 0.9000 0.3242 -0.2913
vn 0.9378 0.2547 -0.2360
vn 0.9291 0.1402 -0.3423
vn 0.9169 -0.3928 -0.0712
vn 0.9127 -0.3571 -0.1987
vn 0.9477 -0.2793 -0.1544
vn 0.9489 -0.3105 -0.0570
vn 0.9172 0.3739 -0.1378
vn 0.9268 0.3695 -0.0673
vn 0.9578 0.2818 -0.0569
vn 0.9491 0.2941 -0.1128
vn 0.5514 0.7979 -0.2436
vn 0.5746 0.8157 -0.0669
vn 0.8212 0.5662 -0.0718
vn 0.8080 0.5593 -0.1852
vn 0.5740 -0.2768 -0.7706
vn 0.4821 0.0060 -0.8761
vn 0.7110 -0.0038 -0.7032
vn 0.7439 -0.2778 -0.6078
vn 0.4685 0.3081 -0.8280
vn 0.4996 0.6333 -0.5911
vn 0.7681 0.4748 -0.4296
vn 0.7230 0.2683 -0.6367
vn 0.7410 -0.6571 -0.1385
vn 0.7109 -0.5583 -0.4277
vn 0.7938 -0.5226 -0.3112
vn 0.8066 -0.5800 -0.1141
vn -0.3709 -0.2466 -0.8953
vn -0.3202 -0.2926 -0.9010
vn -0.3448 -0.3116 -0.8854
vn -0.3890 -0.2135 -0.8962
vn -0.5153 0.2471 -0.8206
vn -0.5222 0.2205 -0.8238
vn -0.4952 0.0874 -0.8644
vn -0.5444 0.1615 -0.8231
vn 0.7952 -0.6013 -0.0783
vn 0.6820 -0.7281 0.0683
vn 0.5852 -0.7979 -0.1443
vn 0.6913 -0.6924 -0.2063
vn -0.1801 0.4066 -0.8957
vn 0.2735 0.3026 -0.9130
vn 0.1256 0.1123 -0.9857
vn -0.2507 0.1404 -0.9578
vn 0.6751 0.0377 -0.7367
vn 0.8510 -0.2845 -0.4414
vn 0.7195 -0.3816 -0.5802
vn 0.5895 -0.0978 -0.8018
vn 0.1661 -0.3895 -0.9059
vn 0.4277 -0.6704 -0.6063
vn 0.0726 -0.9033 -0.4227
vn -0.2118 -0.3849 -0.8984
vn -0.3845 -0.4291 -0.8173
vn -0.1360 -0.7030 -0.6980
vn -0.2270 -0.6260 -0.7460
vn -0.5597 -0.2424 -0.7925
vn 0.7930 0.3665 -0.4866
vn 0.9713 -0.0360 -0.2349
vn 0.9184 -0.1842 -0.3502
vn 0.7393 0.1656 -0.6527
vn -0.7929 0.4152 -0.4461
vn -0.6103 0.5655 -0.5548
vn -0.6045 0.4773 -0.6378
vn -0.7812 0.3729 -0.5007
vn 0.8864 -0.4606 0.0464
vn 0.7393 -0.6562 0.1512
vn 0.7287 -0.6669 0.1557
vn 0.8523 -0.5230 -0.0001
vn -0.7777 0.2665 -0.5694
vn -0.6097 0.3558 -0.7082
vn -0.5492 0.1338 -0.8249
vn -0.7428 0.0882 -0.6636
vn 0.6967 0.6359 -0.3320
vn 0.9585 0.2247 -0.1755
vn 0.9803 0.1338 -0.1454
vn 0.7690 0.5503 -0.3252
vn -0.7605 0.3856 -0.5225
vn -0.6208 0.5949 -0.5107
vn -0.6459 0.5958 -0.4773
vn -0.8119 0.3967 -0.4282
vn 0.9531 -0.2952 -0.0665
vn 0.8328 -0.5510 -0.0528
vn 0.7748 -0.6279 0.0743
vn 0.9270 -0.3728 0.0407
vn -0.1408 0.7205 -0.6790
vn 0.3465 0.6629 -0.6637
vn 0.3276 0.4465 -0.8326
vn -0.1531 0.5510 -0.8203
vn -0.4848 0.3451 -0.8037
vn -0.3225 0.5305 -0.7839
vn -0.4613 0.5689 -0.6809
vn -0.6574 0.2607 -0.7070
vn 0.3905 0.1176 -0.9131
vn 0.3989 -0.1354 -0.9070
vn 0.8366 0.1283 -0.5325
vn 0.6521 0.4740 -0.5917
vn -0.2673 0.8283 -0.4924
vn 0.2099 0.8655 -0.4549
vn 0.2793 0.8303 -0.4823
vn -0.2052 0.8304 -0.5180
vn 0.7067 -0.3798 -0.5970
vn 0.4896 -0.6918 -0.5307
vn 0.7809 -0.5492 -0.2976
vn 0.8725 -0.3000 -0.3857
vn -0.2889 0.5892 -0.7545
vn -0.1857 0.4775 -0.8588
vn -0.2515 0.6258 -0.7384
vn -0.2601 0.6199 -0.7403
vn -0.2768 0.5982 -0.7520
vn -0.2844 0.5729 -0.7687
vn -0.4332 0.3802 -0.8172
vn -0.4121 0.4317 -0.8023
vn -0.2052 0.6686 -0.7147
vn 0.1211 0.6946 -0.7092
vn 0.2232 0.7873 -0.5747
vn -0.2393 0.7643 -0.5988
vn 0.5941 -0.6684 -0.4476
vn 0.6303 -0.7591 -0.1627
vn 0.6009 -0.7842 -0.1550
vn 0.6360 -0.7468 -0.1943
vn -0.5590 0.1164 -0.8210
vn -0.4764 0.0181 -0.8790
vn -0.4964 -0.0415 -0.8671
vn -0.6050 0.0420 -0.7951
vn 0.0945 0.0198 -0.9953
vn 0.4394 -0.2530 -0.8619
vn 0.3638 -0.2416 -0.8996
vn 0.0289 0.1025 -0.9943
vn -0.3543 0.2523 -0.9005
vn -0.1930 0.2037 -0.9598
vn -0.2362 0.3313 -0.9135
vn -0.3866 0.4091 -0.8265
vn -0.3246 0.5201 -0.7900
vn -0.2031 0.4023 -0.8927
vn -0.1749 0.4243 -0.8885
vn -0.2937 0.5601 -0.7746
vn 0.0484 0.1073 -0.9931
vn 0.3333 -0.2742 -0.9021
vn 0.3312 -0.2753 -0.9025
vn 0.1276 0.0580 -0.9901
vn 0.3559 0.0293 -0.9341
vn 0.3873 -0.2178 -0.8958
vn 0.1928 -0.0253 -0.9809
vn 0.2066 0.0855 -0.9747
vn 0.2119 0.9763 -0.0449
vn 0.2253 0.9350 -0.2740
vn 0.0416 0.9640 -0.2628
vn -0.0033 0.9995 -0.0318
vn 0.3167 0.6816 -0.6596
vn 0.3509 0.3340 -0.8748
vn 0.2475 0.3357 -0.9089
vn 0.2047 0.6973 -0.6869
vn 0.7034 -0.5647 -0.4317
vn 0.7309 -0.6679 -0.1404
vn 0.6909 -0.7077 -0.1480
vn 0.6532 -0.6137 -0.4435
vn 0.1366 0.7148 -0.6859
vn 0.1066 0.3569 -0.9281
vn -0.0118 0.3815 -0.9243
vn 0.0880 0.7488 -0.6570
vn -0.1139 0.9930 -0.0300
vn -0.0445 0.9717 -0.2318
vn -0.0836 0.9784 -0.1890
vn -0.1460 0.9891 -0.0206
vn -0.0178 0.1841 -0.9828
vn -0.0612 0.1336 -0.9891
vn -0.2002 0.2087 -0.9573
vn -0.1542 0.2555 -0.9544
vn -0.8972 0.0487 0.4389
vn -0.9751 0.1869 0.1191
vn -0.9485 -0.2555 0.1873
vn -0.1740 -0.7807 0.6002
vn -0.2584 -0.5930 0.7626
vn -0.6188 -0.5889 0.5198
vn -0.4194 -0.4555 0.7852
vn -0.6881 -0.1038 0.7181
vn -0.6952 -0.4777 0.5371
vn 0.9466 0.0111 0.3222
vn 0.9310 -0.0590 0.3601
vn 0.9443 -0.0403 0.3266
vn 0.9167 -0.1867 0.3533
vn 0.9202 -0.2331 0.3143
vn 0.9317 -0.2013 0.3025
vn 0.8599 -0.2221 0.4596
vn 0.8692 -0.2866 0.4029
vn 0.9190 -0.2347 0.3166
vn 0.9129 -0.1840 0.3642
vn 0.9052 0.0334 0.4236
vn 0.8806 -0.0582 0.4703
vn 0.9281 -0.0569 0.3680
vn 0.9447 0.0125 0.3276
vn 0.4656 -0.3698 0.8040
vn 0.5050 -0.4965 0.7060
vn 0.7087 -0.4024 0.5795
vn 0.6981 -0.3037 0.6485
vn 0.5869 0.0663 0.8070
vn 0.4918 -0.0822 0.8668
vn 0.7302 -0.0668 0.6799
vn 0.7773 0.0695 0.6253
vn -0.3206 -0.2584 0.9113
vn -0.5796 0.0979 0.8090
vn -0.6191 0.0271 0.7848
vn -0.3617 -0.3051 0.8809
vn 0.0885 -0.8026 0.5899
vn -0.0598 -0.5310 0.8453
vn -0.0961 -0.5475 0.8313
vn 0.0526 -0.8112 0.5824
vn -0.7855 -0.5248 0.3279
vn -0.9037 -0.3832 0.1908
vn -0.8749 -0.4700 0.1167
vn -0.7713 -0.5908 0.2367
vn -0.1688 -0.8902 0.4231
vn -0.3914 -0.8327 0.3918
vn -0.4302 -0.7242 0.5390
vn -0.2042 -0.8078 0.5530
vn -0.2227 -0.8425 0.4905
vn -0.4432 -0.7576 0.4792
vn -0.4482 -0.8090 0.3803
vn -0.2388 -0.8869 0.3954
vn 0.1019 -0.9948 0.0018
vn -0.1815 -0.9758 -0.1219
vn -0.2695 -0.9605 0.0692
vn -0.0464 -0.9873 0.1521
vn -0.7414 -0.6166 0.2649
vn -0.8724 -0.4671 0.1437
vn -0.9129 -0.3274 0.2439
vn -0.7827 -0.4858 0.3890
vn 0.3816 -0.9243 -0.0068
vn -0.1463 -0.9648 -0.2187
vn -0.1507 -0.9690 -0.1959
vn 0.2304 -0.9729 -0.0165
vn -0.5268 -0.6455 -0.5531
vn -0.5692 -0.4768 -0.6699
vn -0.7764 -0.5913 -0.2182
vn -0.5883 -0.7580 -0.2815
vn -0.6129 -0.7595 -0.2177
vn -0.7309 -0.6458 -0.2206
vn -0.7710 -0.6240 -0.1269
vn -0.6293 -0.7757 -0.0471
vn 0.3367 -0.6632 0.6685
vn 0.1905 -0.4092 0.8923
vn 0.1521 -0.4223 0.8936
vn 0.3077 -0.7251 0.6161
vn -0.0700 -0.0452 0.9965
vn -0.3497 0.3738 0.8590
vn -0.3021 0.4418 0.8447
vn -0.0723 -0.0144 0.9973
vn -0.5323 0.7035 0.4709
vn -0.5604 0.7930 0.2388
vn -0.4657 0.8481 0.2529
vn -0.4415 0.7647 0.4693
vn 0.3767 -0.9212 -0.0969
vn 0.3857 -0.9052 0.1785
vn 0.3867 -0.9077 0.1627
vn 0.4125 -0.9064 -0.0907
vn 0.3464 -0.9321 -0.1060
vn 0.3636 -0.9176 0.1607
vn 0.2407 -0.9584 0.1531
vn 0.0236 -0.9892 -0.1450
vn -0.4257 0.7742 0.4685
vn -0.4514 0.8552 0.2548
vn -0.6193 0.7463 0.2439
vn -0.5771 0.6648 0.4743
vn -0.0910 -0.0279 0.9955
vn -0.2994 0.4473 0.8428
vn -0.4127 0.3271 0.8501
vn -0.1794 -0.1161 0.9769
vn 0.2590 -0.7469 0.6124
vn 0.1068 -0.4459 0.8887
vn 0.0224 -0.4916 0.8705
vn 0.1736 -0.7786 0.6030
vn 0.2686 -0.8079 -0.5246
vn 0.1389 -0.9844 0.1083
vn 0.1273 -0.9827 0.1343
vn 0.1270 -0.9782 -0.1642
vn -0.2610 -0.1994 0.9445
vn -0.5132 0.1975 0.8352
vn -0.5549 0.1362 0.8207
vn -0.2974 -0.2358 0.9252
vn -0.8010 0.3993 0.4461
vn -0.8656 0.4617 0.1940
vn -0.9182 0.3702 0.1413
vn -0.8508 0.3059 0.4273
vn -0.7150 0.5231 0.4638
vn -0.7721 0.5955 0.2216
vn -0.8323 0.5139 0.2077
vn -0.7702 0.4482 0.4537
vn -0.3230 -0.3550 -0.8773
vn -0.2149 -0.5350 -0.8171
vn -0.1192 -0.5147 -0.8491
vn -0.2422 -0.3134 -0.9182
vn 0.0387 -0.8133 0.5805
vn -0.1157 -0.5569 0.8225
vn -0.1619 -0.5639 0.8098
vn 0.0056 -0.8095 0.5871
vn 0.3345 -0.5526 0.7633
vn 0.2176 -0.4352 0.8736
vn 0.1946 -0.4064 0.8927
vn 0.3426 -0.6591 0.6695
vn -0.0421 -0.1384 0.9895
vn -0.3655 0.2786 0.8881
vn -0.3523 0.3222 0.8787
vn -0.0469 -0.0934 0.9945
vn -0.6037 0.6549 0.4546
vn -0.6361 0.7463 0.1959
vn -0.5971 0.7725 0.2163
vn -0.5672 0.6792 0.4657
vn 0.0426 -0.9481 -0.3150
vn 0.1594 -0.9792 0.1257
vn 0.1321 -0.9852 0.1088
vn 0.0908 -0.9068 -0.4117
vn -0.7616 0.5224 0.3834
vn -0.7810 0.5988 0.1776
vn -0.7161 0.6736 0.1830
vn -0.6775 0.5923 0.4361
vn 0.4352 -0.5749 0.6929
vn 0.2507 -0.4828 0.8391
vn 0.2405 -0.4755 0.8462
vn 0.4003 -0.5802 0.7093
vn 0.4664 -0.4997 0.7299
vn 0.3907 -0.3189 0.8635
vn 0.2101 -0.2615 0.9420
vn 0.2661 -0.4164 0.8693
vn 0.2851 -0.0819 0.9550
vn 0.3071 0.0486 0.9504
vn 0.1697 0.0326 0.9850
vn 0.1467 -0.0680 0.9868
vn -0.1148 -0.2126 0.9704
vn -0.5117 0.1752 0.8411
vn -0.4250 0.2310 0.8752
vn -0.0761 -0.1762 0.9814
vn -0.1142 0.0273 0.9931
vn -0.1091 0.1467 0.9831
vn -0.6895 0.5316 0.4919
vn -0.6893 0.3326 0.6436
vn -0.8026 0.5941 0.0534
vn -0.7583 0.6518 0.0095
vn -0.7490 0.6624 0.0125
vn -0.8049 0.5851 0.0993
vn -0.8106 0.5616 0.1661
vn -0.7459 0.6651 0.0358
vn -0.7686 0.6336 0.0882
vn -0.8027 0.5287 0.2758
vn -0.1164 -0.2168 0.9693
vn -0.1294 -0.1353 0.9823
vn -0.5796 0.2570 0.7733
vn -0.5190 0.1618 0.8393
vn -0.3086 -0.8191 -0.4835
vn -0.3041 -0.9339 -0.1880
vn -0.5126 -0.7776 -0.3642
vn -0.6324 -0.0685 -0.7716
vn -0.5366 -0.1993 -0.8199
vn -0.6460 -0.2892 -0.7064
vn -0.4546 -0.2716 -0.8483
vn -0.4092 -0.5725 -0.7106
vn -0.6250 -0.4988 -0.6004
vn 0.9299 0.1394 -0.3403
vn 0.9427 0.2500 -0.2207
vn 0.9797 0.0980 -0.1746
vn 0.9509 -0.3012 -0.0719
vn 0.9503 -0.2559 -0.1775
vn 0.9623 -0.2332 -0.1401
vn 0.9538 0.2799 -0.1092
vn 0.9653 0.2573 -0.0451
vn 0.9717 0.2199 -0.0858
vn 0.9390 -0.1680 -0.3002
vn 0.9316 -0.0133 -0.3631
vn 0.9771 -0.0672 -0.2019
vn 0.8988 -0.1876 -0.3962
vn 0.8817 -0.0013 -0.4718
vn 0.9261 -0.0132 -0.3769
vn 0.9390 -0.1557 -0.3068
vn 0.8824 0.1875 -0.4316
vn 0.8983 0.3299 -0.2903
vn 0.9366 0.2617 -0.2329
vn 0.9263 0.1518 -0.3449
vn 0.9180 -0.3897 -0.0743
vn 0.9146 -0.3508 -0.2014
vn 0.9492 -0.2712 -0.1597
vn 0.9510 -0.3006 -0.0718
vn 0.9154 0.3800 -0.1328
vn 0.9259 0.3727 -0.0618
vn 0.9578 0.2802 -0.0643
vn 0.9493 0.2924 -0.1151
vn 0.5409 0.8063 -0.2393
vn 0.5504 0.8333 -0.0517
vn 0.8098 0.5841 -0.0551
vn 0.7986 0.5751 -0.1773
vn 0.5401 -0.3147 -0.7805
vn 0.4962 0.0146 -0.8681
vn 0.7271 0.0080 -0.6865
vn 0.7519 -0.2662 -0.6032
vn 0.5069 0.3218 -0.7997
vn 0.5311 0.6059 -0.5923
vn 0.7708 0.4706 -0.4295
vn 0.7363 0.2531 -0.6275
vn 0.7382 -0.6615 -0.1323
vn 0.6886 -0.6173 -0.3805
vn 0.7924 -0.5253 -0.3101
vn 0.8058 -0.5813 -0.1130
vn -0.3687 -0.2037 -0.9070
vn -0.3246 -0.3063 -0.8949
vn -0.3849 -0.4617 -0.7992
vn -0.3888 -0.2257 -0.8932
vn -0.5369 0.2415 -0.8084
vn -0.5648 0.2137 -0.7971
vn -0.5866 0.0756 -0.8064
vn -0.5563 0.1598 -0.8155
vn 0.7959 -0.5993 -0.0863
vn 0.6804 -0.7291 0.0732
vn 0.5751 -0.8141 -0.0809
vn 0.6327 -0.7500 -0.1927
vn -0.1857 0.4100 -0.8930
vn 0.2835 0.3033 -0.9097
vn 0.2173 0.1374 -0.9664
vn -0.2160 0.1601 -0.9632
vn 0.6770 0.0324 -0.7353
vn 0.8530 -0.2862 -0.4363
vn 0.7531 -0.3958 -0.5255
vn 0.5982 -0.1608 -0.7850
vn 0.2215 -0.3121 -0.9239
vn 0.3999 -0.7325 -0.5509
vn 0.1447 -0.8353 -0.5304
vn -0.2427 -0.4114 -0.8785
vn -0.2683 -0.3093 -0.9123
vn 0.4592 -0.6868 -0.5634
vn -0.0320 -0.6774 -0.7349
vn -0.3188 -0.3237 -0.8908
vn 0.7540 0.3863 -0.5313
vn 0.9536 0.0001 -0.3012
vn 0.9135 -0.1785 -0.3655
vn 0.7308 0.1686 -0.6614
vn -0.7787 0.4215 -0.4647
vn -0.5931 0.5685 -0.5702
vn -0.6038 0.4773 -0.6385
vn -0.7798 0.3731 -0.5028
vn 0.9044 -0.4258 -0.0293
vn 0.7745 -0.6283 0.0737
vn 0.7343 -0.6640 0.1414
vn 0.8549 -0.5186 -0.0163
vn -0.7717 0.2665 -0.5775
vn -0.6058 0.3548 -0.7122
vn -0.5826 0.0969 -0.8070
vn -0.6723 0.0776 -0.7362
vn 0.7152 0.6122 -0.3372
vn 0.9382 0.2627 -0.2252
vn 0.9541 0.1964 -0.2262
vn 0.7146 0.5832 -0.3864
vn -0.7973 0.3568 -0.4869
vn -0.6430 0.5838 -0.4957
vn -0.6070 0.6154 -0.5029
vn -0.7928 0.4137 -0.4476
vn 0.9610 -0.2507 -0.1164
vn 0.8410 -0.5363 -0.0717
vn 0.8354 -0.5479 -0.0429
vn 0.9541 -0.2930 -0.0614
vn -0.1158 0.7144 -0.6901
vn 0.3807 0.6382 -0.6691
vn 0.3312 0.4430 -0.8331
vn -0.1527 0.5508 -0.8205
vn -0.5420 0.3298 -0.7729
vn -0.4331 0.5235 -0.7337
vn -0.5939 0.5499 -0.5873
vn -0.6183 0.4294 -0.6583
vn 0.2064 0.1686 -0.9638
vn 0.6917 -0.3989 -0.6021
vn 0.9122 0.0558 -0.4059
vn 0.6292 0.4768 -0.6138
vn -0.2053 0.8308 -0.5173
vn 0.2788 0.8358 -0.4730
vn 0.3618 0.7905 -0.4942
vn -0.1241 0.8298 -0.5441
vn 0.7626 -0.3463 -0.5463
vn 0.6754 -0.6586 -0.3317
vn 0.7183 -0.6910 -0.0807
vn 0.8752 -0.3705 -0.3111
vn -0.2663 0.5826 -0.7679
vn -0.1770 0.6467 -0.7419
vn -0.2145 0.6252 -0.7504
vn -0.2487 0.6213 -0.7430
vn -0.2941 0.5931 -0.7495
vn -0.3380 0.5597 -0.7566
vn -0.4981 0.3556 -0.7908
vn -0.4538 0.4156 -0.7882
vn -0.2209 0.6360 -0.7394
vn -0.0774 0.4596 -0.8847
vn 0.1134 0.7311 -0.6728
vn -0.2500 0.7512 -0.6109
vn 0.5943 -0.6685 -0.4471
vn 0.6317 -0.7594 -0.1555
vn 0.6000 -0.7839 -0.1595
vn 0.5624 -0.6930 -0.4510
vn -0.5622 0.1160 -0.8188
vn -0.5148 0.0285 -0.8569
vn -0.5098 -0.0384 -0.8594
vn -0.5846 0.0462 -0.8100
vn 0.1784 -0.0056 -0.9839
vn 0.4620 -0.2620 -0.8473
vn 0.4258 -0.2865 -0.8583
vn 0.1077 0.0547 -0.9927
vn -0.2310 0.2359 -0.9439
vn -0.0878 0.1805 -0.9796
vn -0.1443 0.2870 -0.9470
vn -0.2731 0.3679 -0.8889
vn -0.2906 0.5008 -0.8153
vn -0.1808 0.3872 -0.9041
vn -0.1949 0.4739 -0.8587
vn -0.2834 0.5543 -0.7826
vn 0.0392 0.1145 -0.9926
vn 0.3346 -0.2754 -0.9012
vn 0.3491 -0.3324 -0.8761
vn 0.0569 0.1141 -0.9918
vn 0.3623 0.0332 -0.9315
vn 0.4631 -0.1876 -0.8662
vn 0.1761 -0.0272 -0.9840
vn 0.1950 0.0813 -0.9774
vn 0.2413 0.9687 -0.0576
vn 0.2488 0.9324 -0.2623
vn 0.1026 0.9651 -0.2410
vn 0.0337 0.9985 -0.0443
vn 0.2871 0.6763 -0.6784
vn 0.3147 0.3172 -0.8946
vn 0.2015 0.3215 -0.9252
vn 0.2025 0.6970 -0.6879
vn 0.7037 -0.5744 -0.4183
vn 0.7308 -0.6679 -0.1408
vn 0.6912 -0.7077 -0.1462
vn 0.6632 -0.6207 -0.4182
vn 0.1931 0.7140 -0.6730
vn 0.0429 0.3530 -0.9346
vn -0.0630 0.3869 -0.9200
vn 0.2158 0.7327 -0.6454
vn -0.0780 0.9967 -0.0223
vn 0.0825 0.9751 -0.2057
vn 0.0957 0.9812 -0.1676
vn -0.1504 0.9884 -0.0213
vn -0.0456 0.1819 -0.9823
vn -0.1042 0.1341 -0.9855
vn -0.2434 0.2121 -0.9464
vn -0.1731 0.2575 -0.9507
vn -0.9107 0.1411 0.3881
vn -0.9949 0.0999 0.0096
vn -0.9488 -0.2540 0.1876
vn -0.1517 -0.7754 0.6129
vn -0.3464 -0.5484 0.7611
vn -0.4730 -0.6331 0.6127
vn -0.4322 -0.3912 0.8125
vn -0.7554 -0.1049 0.6468
vn -0.7127 -0.5298 0.4599
vn 0.9455 -0.0008 0.3256
vn 0.9322 -0.0675 0.3556
vn 0.9556 -0.0474 0.2907
vn 0.9172 -0.1852 0.3527
vn 0.9210 -0.2269 0.3166
vn 0.9278 -0.1825 0.3253
vn 0.8620 -0.2233 0.4551
vn 0.8710 -0.2824 0.4021
vn 0.9203 -0.2287 0.3173
vn 0.9151 -0.1871 0.3572
vn 0.9054 0.0320 0.4232
vn 0.8816 -0.0605 0.4681
vn 0.9284 -0.0593 0.3667
vn 0.9447 0.0124 0.3276
vn 0.4771 -0.3617 0.8010
vn 0.4661 -0.5279 0.7100
vn 0.6876 -0.4275 0.5869
vn 0.6918 -0.3097 0.6523
vn 0.5250 0.1194 0.8427
vn 0.4697 -0.0679 0.8802
vn 0.7276 -0.0644 0.6830
vn 0.7728 0.0766 0.6300
vn -0.3197 -0.2587 0.9115
vn -0.5808 0.0981 0.8081
vn -0.6299 0.0285 0.7761
vn -0.3517 -0.3088 0.8837
vn -0.0591 -0.5313 0.8451
vn -0.0947 -0.5481 0.8310
vn 0.0529 -0.8107 0.5831
vn -0.7868 -0.5229 0.3277
vn -0.9078 -0.3747 0.1887
vn -0.8905 -0.4419 0.1082
vn -0.7756 -0.5854 0.2360
vn -0.2261 -0.8900 0.3959
vn -0.4392 -0.8241 0.3578
vn -0.4381 -0.7232 0.5340
vn -0.2127 -0.8078 0.5497
vn -0.2317 -0.8421 0.4870
vn -0.4451 -0.7573 0.4779
vn -0.4539 -0.8075 0.3767
vn -0.2697 -0.8833 0.3835
vn -0.0251 -0.9928 -0.1173
vn -0.2230 -0.9601 -0.1690
vn -0.3528 -0.9357 -0.0022
vn -0.1755 -0.9820 0.0698
vn -0.7684 -0.5991 0.2251
vn -0.8866 -0.4512 0.1023
vn -0.9087 -0.3371 0.2460
vn -0.7886 -0.4830 0.3805
vn 0.2304 -0.9522 -0.2005
vn 0.0337 -0.9316 -0.3618
vn -0.1614 -0.9632 -0.2150
vn 0.1201 -0.9755 -0.1841
vn -0.4821 -0.6595 -0.5768
vn -0.6396 -0.4461 -0.6260
vn -0.8558 -0.5004 -0.1312
vn -0.7102 -0.6849 -0.1630
vn -0.5881 -0.7924 -0.1621
vn -0.7859 -0.5882 -0.1907
vn -0.7745 -0.6174 -0.1379
vn -0.6480 -0.7578 -0.0760
vn 0.3850 -0.6780 0.6262
vn 0.1800 -0.4045 0.8966
vn 0.1469 -0.4220 0.8946
vn 0.3169 -0.7136 0.6248
vn -0.0921 -0.0333 0.9952
vn -0.3641 0.3815 0.8497
vn -0.3052 0.4417 0.8437
vn -0.0771 -0.0143 0.9969
vn -0.5313 0.7032 0.4725
vn -0.5559 0.7935 0.2478
vn -0.4639 0.8486 0.2543
vn -0.4411 0.7648 0.4696
vn 0.4101 -0.9088 -0.0766
vn 0.4231 -0.8817 0.2090
vn 0.4044 -0.8973 0.1769
vn 0.4046 -0.9094 -0.0960
vn 0.3669 -0.9224 -0.1202
vn 0.3600 -0.9187 0.1627
vn 0.2662 -0.9544 0.1349
vn 0.2294 -0.9230 -0.3088
vn -0.4254 0.7742 0.4686
vn -0.4513 0.8552 0.2549
vn -0.6189 0.7467 0.2437
vn -0.5762 0.6651 0.4750
vn -0.0909 -0.0278 0.9955
vn -0.2990 0.4473 0.8429
vn -0.4125 0.3272 0.8502
vn -0.1798 -0.1161 0.9768
vn 0.2585 -0.7470 0.6126
vn 0.1065 -0.4459 0.8887
vn 0.0220 -0.4915 0.8706
vn 0.1727 -0.7785 0.6034
vn 0.1127 -0.9800 -0.1638
vn 0.1217 -0.9835 0.1338
vn 0.1603 -0.9838 0.0806
vn 0.1029 -0.9884 -0.1115
vn -0.2627 -0.1989 0.9441
vn -0.5144 0.1976 0.8345
vn -0.5566 0.1366 0.8195
vn -0.2993 -0.2350 0.9247
vn -0.8002 0.3995 0.4473
vn -0.8662 0.4591 0.1973
vn -0.9223 0.3464 0.1716
vn -0.8454 0.3082 0.4363
vn -0.7140 0.5234 0.4649
vn -0.7719 0.5961 0.2211
vn -0.8321 0.5144 0.2071
vn -0.7694 0.4484 0.4549
vn -0.3139 -0.3319 -0.8895
vn -0.1814 -0.5533 -0.8130
vn -0.0945 -0.3320 -0.9385
vn -0.2396 -0.2929 -0.9256
vn 0.0384 -0.8141 0.5795
vn -0.1158 -0.5568 0.8225
vn -0.1625 -0.5748 0.8020
vn 0.0003 -0.8192 0.5735
vn 0.3143 -0.5414 0.7798
vn 0.1890 -0.4161 0.8895
vn 0.1962 -0.4107 0.8904
vn 0.3081 -0.5459 0.7791
vn -0.0722 -0.1144 0.9908
vn -0.3835 0.2947 0.8753
vn -0.3788 0.3458 0.8584
vn -0.0871 -0.0605 0.9944
vn -0.6000 0.6521 0.4633
vn -0.6316 0.7453 0.2136
vn -0.5917 0.7708 0.2363
vn -0.5653 0.6778 0.4701
vn 0.1052 -0.8972 -0.4288
vn 0.1719 -0.9788 0.1116
vn 0.1325 -0.9853 0.1082
vn 0.0770 -0.9015 -0.4259
vn -0.7324 0.5266 0.4315
vn -0.7715 0.6183 0.1497
vn -0.7135 0.6744 0.1901
vn -0.6714 0.5904 0.4480
vn 0.4034 -0.5744 0.7122
vn 0.2376 -0.4809 0.8439
vn 0.1974 -0.4557 0.8680
vn 0.3315 -0.5558 0.7624
vn 0.3961 -0.5331 0.7476
vn 0.3048 -0.3748 0.8756
vn 0.1356 -0.2936 0.9463
vn 0.1963 -0.4327 0.8799
vn 0.3061 -0.0713 0.9493
vn 0.4527 0.0914 0.8870
vn 0.2976 0.0509 0.9533
vn 0.1663 -0.0617 0.9841
vn -0.1011 -0.2164 0.9711
vn -0.4737 0.1640 0.8653
vn -0.4191 0.2273 0.8791
vn -0.0793 -0.1743 0.9815
vn -0.1475 0.0258 0.9887
vn -0.1736 0.1505 0.9733
vn -0.8336 0.4656 0.2972
vn -0.7181 0.4915 0.4927
vn -0.7639 0.6373 0.1011
vn -0.7555 0.6551 0.0123
vn -0.7266 0.6860 0.0374
vn -0.7514 0.6369 0.1724
vn -0.7376 0.6138 0.2814
vn -0.7031 0.7050 0.0934
vn -0.7281 0.6682 0.1529
vn -0.7352 0.5578 0.3851
vn -0.1591 -0.2171 0.9631
vn -0.1845 -0.1415 0.9726
vn -0.7366 0.2514 0.6278
vn -0.6270 0.1717 0.7599
vt 0.312500 0.593750
vt 0.312500 0.618634
vt 0.312500 0.625000
vt 0.312500 0.562500
vt 0.312500 0.603299
vt 0.312500 0.625000
vt 0.312500 0.625000
vt 0.312500 0.624855
vt 0.312500 0.624132
vt 0.312500 0.624855
vt 0.312500 0.624855
vt 0.312500 0.618634
vt 0.312500 0.623834
vt 0.312500 0.617911
vt 0.312500 0.623843
vt 0.312500 0.615741
vt 0.312500 0.562500
vt 0.312500 0.582899
vt 0.312500 0.590350
vt 0.312500 0.615741
vt 0.312500 0.603434
vt 0.312500 0.617911
vt 0.312500 0.595776
vt 0.312500 0.624783
vt 0.312500 0.624783
vt 0.312500 0.623698
vt 0.312500 0.615379
vt 0.312500 0.614583
vt 0.312500 0.623915
vt 0.312500 0.624783
vt 0.312500 0.623716
vt 0.312500 0.623698
vt 0.312500 0.614728
vt 0.312500 0.623843
vt 0.312500 0.592448
vt 0.312500 0.592376
vt 0.312500 0.592755
vt 0.312500 0.592448
vt 0.312500 0.595776
vt 0.312500 0.624227
vt 0.312500 0.614896
vt 0.312500 0.617500
vt 0.312500 0.623776
vt 0.312500 0.614583
vt 0.312500 0.623698
vt 0.312500 0.592761
vt 0.312500 0.592526
vt 0.312500 0.625000
vt 0.312500 0.592665
vt 0.312500 0.615451
vt 0.312500 0.623776
vt 0.312500 0.624227
vt 0.312500 0.614896
vt 0.312500 0.623915
vt 0.312500 0.624227
vt 0.312500 0.624861
vt 0.312500 0.614583
vt 0.312500 0.592761
vt 0.312500 0.592526
vt 0.312500 0.623915
vt 0.312500 0.571759
vt 0.312500 0.584066
vt 0.312500 0.569589
vt 0.312500 0.591725
vt 0.312500 0.562500
vt 0.312500 0.562717
vt 0.312500 0.562645
vt 0.312500 0.563666
vt 0.312500 0.563657
vt 0.312500 0.562645
vt 0.312500 0.562500
vt 0.312500 0.562500
vt 0.312500 0.563802
vt 0.312500 0.572917
vt 0.312500 0.563784
vt 0.312500 0.572772
vt 0.312500 0.563657
vt 0.312500 0.572917
vt 0.312500 0.572917
vt 0.312500 0.563802
vt 0.312500 0.562500
vt 0.312500 0.615764
vt 0.312500 0.623993
vt 0.312500 0.572049
vt 0.312500 0.563585
vt 0.312500 0.563802
vt 0.312500 0.595052
vt 0.312500 0.594835
vt 0.312500 0.594045
vt 0.312500 0.594063
vt 0.312500 0.594835
vt 0.312500 0.594745
vt 0.312500 0.591725
vt 0.312500 0.571759
vt 0.312500 0.615764
vt 0.312500 0.623993
vt 0.312500 0.563802
vt 0.312500 0.572049
vt 0.312500 0.618634
vt 0.312500 0.623843
vt 0.312500 0.562717
vt 0.312500 0.563657
s 0
usemtl Material.002
f 213/1/1 133/2/1 4/3/1
f 3/4/2 354/5/2 213/1/2
f 133/2/3 131/1/3 1/3/3
f 2/3/4 355/6/4 132/7/4
f 45/7/5 355/6/5 163/7/5
f 132/7/6 134/8/6 1/3/6
f 45/7/7 356/9/7 134/10/7
f 4/3/8 356/9/8 209/8/8
f 134/11/9 133/12/9 1/3/9
f 6/7/10 357/13/10 141/10/10
f 138/14/11 150/15/11 9/16/11
f 141/11/12 138/14/12 5/3/12
f 7/17/13 358/18/13 139/4/13
f 8/3/14 358/18/14 149/19/14
f 139/4/15 140/1/15 5/4/15
f 9/20/16 359/21/16 138/22/16
f 10/17/17 359/21/17 151/23/17
f 138/14/18 142/1/18 5/3/18
f 148/24/19 140/7/19 8/3/19
f 6/7/20 360/6/20 148/25/20
f 140/7/21 141/8/21 5/3/21
f 157/26/22 145/27/22 13/28/22
f 11/7/23 361/29/23 157/26/23
f 143/7/24 148/30/24 361/29/24
f 361/29/25 8/3/25 145/27/25
f 11/7/26 362/31/26 143/7/26
f 159/32/27 146/33/27 362/31/27
f 362/31/28 9/20/28 150/34/28
f 143/7/29 150/34/29 6/7/29
f 158/35/30 144/4/30 12/17/30
f 13/28/31 363/36/31 158/35/31
f 145/27/32 149/19/32 363/36/32
f 363/36/33 7/17/33 144/4/33
f 14/28/34 364/37/34 146/33/34
f 160/38/35 147/4/35 364/37/35
f 364/37/36 10/17/36 151/39/36
f 146/33/37 151/39/37 9/20/37
f 65/28/38 365/38/38 153/28/38
f 245/38/39 156/4/39 365/38/39
f 365/38/40 15/17/40 160/38/40
f 153/28/41 160/38/41 14/28/41
f 242/40/42 155/41/42 64/42/42
f 62/7/43 366/43/43 242/40/43
f 152/7/44 157/26/44 366/43/44
f 366/43/45 13/28/45 155/41/45
f 244/32/46 152/6/46 62/7/46
f 244/32/47 153/44/47 367/45/47
f 367/45/48 14/28/48 159/32/48
f 152/6/49 159/32/49 11/7/49
f 243/46/50 154/4/50 63/17/50
f 64/42/51 368/47/51 243/46/51
f 155/41/52 158/35/52 368/47/52
f 368/47/53 12/17/53 154/4/53
f 162/7/54 135/7/54 44/3/54
f 43/7/55 369/48/55 162/7/55
f 136/7/56 209/10/56 369/48/56
f 369/48/57 45/7/57 135/7/57
f 42/3/58 370/7/58 212/7/58
f 206/7/59 161/7/59 370/7/59
f 370/7/60 44/3/60 208/7/60
f 212/7/61 208/7/61 16/3/61
f 27/7/62 371/3/62 165/7/62
f 182/7/63 168/7/63 371/3/63
f 371/3/64 20/3/64 174/7/64
f 371/3/65 22/3/65 165/7/65
f 180/7/66 167/7/66 24/7/66
f 180/7/67 164/7/67 372/7/67
f 372/7/68 21/7/68 170/7/68
f 167/7/69 170/7/69 19/7/69
f 183/7/70 164/7/70 26/7/70
f 183/7/71 165/7/71 373/7/71
f 373/7/72 22/3/72 175/3/72
f 373/7/73 21/7/73 164/7/73
f 175/3/74 170/7/74 21/7/74
f 22/3/75 374/7/75 175/3/75
f 174/7/76 169/7/76 374/7/76
f 374/7/77 19/7/77 170/7/77
f 169/7/78 173/7/78 19/7/78
f 169/7/79 171/7/79 375/7/79
f 375/7/80 17/7/80 172/7/80
f 173/7/81 172/7/81 18/3/81
f 31/7/82 376/6/82 188/6/82
f 192/7/83 176/6/83 376/6/83
f 376/6/84 27/7/84 183/7/84
f 188/6/85 183/7/85 26/7/85
f 190/7/86 178/7/86 28/3/86
f 29/7/87 377/7/87 190/7/87
f 179/7/88 181/7/88 377/7/88
f 377/7/89 23/3/89 178/7/89
f 32/7/90 378/7/90 176/7/90
f 191/7/91 177/7/91 378/7/91
f 378/7/92 25/3/92 182/7/92
f 176/7/93 182/7/93 27/7/93
f 181/7/94 166/7/94 23/3/94
f 24/7/95 379/7/95 181/7/95
f 379/7/96 19/7/96 173/7/96
f 379/7/97 18/3/97 166/7/97
f 201/7/98 197/6/98 36/7/98
f 201/7/99 184/6/99 380/6/99
f 380/6/100 32/7/100 192/7/100
f 197/6/101 192/7/101 31/7/101
f 199/7/102 186/7/102 33/3/102
f 34/7/103 381/7/103 199/7/103
f 187/7/104 190/7/104 381/7/104
f 381/7/105 28/3/105 186/7/105
f 37/7/106 382/7/106 184/7/106
f 200/7/107 185/7/107 382/7/107
f 382/7/108 30/3/108 191/7/108
f 184/7/109 191/7/109 32/7/109
f 189/7/110 179/6/110 29/7/110
f 31/7/111 383/6/111 189/7/111
f 188/6/112 180/7/112 383/6/112
f 383/6/113 24/7/113 179/6/113
f 207/7/114 193/7/114 41/3/114
f 38/7/115 384/7/115 207/7/115
f 194/7/116 199/7/116 384/7/116
f 193/7/117 199/7/117 33/3/117
f 47/7/118 385/7/118 195/7/118
f 217/30/119 196/7/119 385/7/119
f 385/7/120 37/7/120 201/7/120
f 195/7/121 201/7/121 36/7/121
f 198/7/122 187/6/122 34/7/122
f 36/7/123 386/6/123 198/7/123
f 197/6/124 189/7/124 386/6/124
f 386/6/125 29/7/125 187/6/125
f 211/7/126 196/7/126 49/3/126
f 40/7/127 387/7/127 211/7/127
f 387/7/128 35/3/128 200/7/128
f 196/7/129 200/7/129 37/7/129
f 46/3/130 388/7/130 205/7/130
f 47/7/131 388/7/131 218/3/131
f 388/7/132 38/7/132 203/7/132
f 205/7/133 203/7/133 39/3/133
f 39/3/134 389/7/134 210/7/134
f 203/7/135 207/7/135 389/7/135
f 389/7/136 41/3/136 206/7/136
f 210/7/137 206/7/137 42/3/137
f 38/7/138 390/7/138 194/7/138
f 204/3/139 195/7/139 390/7/139
f 390/7/140 36/7/140 198/7/140
f 194/7/141 198/7/141 34/7/141
f 53/28/142 391/49/142 215/50/142
f 226/38/143 214/4/143 391/49/143
f 391/49/144 48/4/144 219/1/144
f 215/50/145 219/1/145 49/3/145
f 16/3/146 392/7/146 137/7/146
f 208/7/147 135/7/147 392/7/147
f 392/7/148 45/7/148 163/7/148
f 137/7/149 163/7/149 2/3/149
f 57/7/150 393/51/150 221/7/150
f 234/52/151 222/53/151 393/51/151
f 393/51/152 53/28/152 224/32/152
f 221/7/153 224/32/153 51/7/153
f 58/3/154 394/7/154 220/7/154
f 241/7/155 221/7/155 394/7/155
f 394/7/156 51/7/156 225/7/156
f 220/7/157 225/7/157 50/3/157
f 50/3/158 395/3/158 216/7/158
f 225/7/159 223/3/159 395/3/159
f 223/3/160 218/3/160 395/3/160
f 216/7/161 218/3/161 46/3/161
f 51/7/162 396/54/162 223/3/162
f 224/32/163 215/50/163 396/54/163
f 215/50/164 217/30/164 396/54/164
f 223/3/165 217/30/165 47/7/165
f 242/55/166 237/7/166 62/7/166
f 64/42/167 397/56/167 242/55/167
f 234/40/168 227/7/168 397/56/168
f 397/56/169 56/7/169 237/7/169
f 66/17/170 398/35/170 235/4/170
f 65/28/171 398/35/171 245/35/171
f 232/28/172 228/35/172 398/35/172
f 235/4/173 228/35/173 54/17/173
f 244/26/174 232/44/174 65/57/174
f 62/7/175 399/45/175 244/26/175
f 237/6/176 229/26/176 399/45/176
f 399/45/177 55/57/177 232/44/177
f 243/58/178 222/53/178 64/42/178
f 243/58/179 230/4/179 400/59/179
f 400/59/180 52/17/180 226/38/180
f 222/53/181 226/38/181 53/28/181
f 229/26/182 236/50/182 55/28/182
f 56/7/183 401/60/183 229/26/183
f 233/7/184 239/7/184 401/60/184
f 401/60/185 60/3/185 236/50/185
f 228/35/186 231/4/186 54/17/186
f 55/28/187 402/49/187 228/35/187
f 236/50/188 240/1/188 402/49/188
f 402/49/189 61/4/189 231/4/189
f 227/7/190 233/7/190 56/7/190
f 57/7/191 403/7/191 227/7/191
f 241/7/192 238/7/192 403/7/192
f 403/7/193 59/3/193 233/7/193
f 70/61/194 404/62/194 249/63/194
f 69/3/195 404/62/195 313/64/195
f 249/63/196 247/1/196 68/17/196
f 71/17/197 405/65/197 246/4/197
f 73/4/198 405/65/198 316/66/198
f 246/4/199 248/67/199 68/17/199
f 73/4/200 406/68/200 248/67/200
f 70/61/201 406/68/201 317/69/201
f 248/70/202 249/63/202 68/17/202
f 263/4/203 259/4/203 77/17/203
f 75/4/204 407/65/204 263/4/204
f 259/4/205 257/4/205 74/17/205
f 75/4/206 408/17/206 257/4/206
f 258/4/207 264/4/207 76/17/207
f 74/17/208 408/17/208 258/4/208
f 269/4/209 261/4/209 78/4/209
f 269/4/210 260/4/210 409/71/210
f 409/71/211 76/17/211 264/72/211
f 409/71/212 75/4/212 261/4/212
f 268/4/213 262/4/213 80/17/213
f 78/4/214 410/4/214 268/4/214
f 261/4/215 263/4/215 410/4/215
f 410/4/216 77/17/216 262/4/216
f 128/4/217 411/4/217 267/4/217
f 353/4/218 265/4/218 411/4/218
f 411/4/219 79/17/219 269/4/219
f 267/4/220 269/4/220 78/4/220
f 352/4/221 266/4/221 130/17/221
f 128/4/222 412/4/222 352/4/222
f 267/4/223 268/4/223 412/4/223
f 412/4/224 80/17/224 266/4/224
f 308/73/225 252/4/225 108/4/225
f 105/74/226 413/75/226 308/73/226
f 253/76/227 317/77/227 413/75/227
f 413/75/228 73/4/228 252/4/228
f 305/73/229 310/78/229 102/79/229
f 100/4/230 414/80/230 305/73/230
f 272/81/231 256/73/231 414/80/231
f 310/78/232 256/73/232 106/79/232
f 85/7/233 415/7/233 280/7/233
f 282/7/234 273/7/234 415/7/234
f 415/7/235 83/7/235 276/7/235
f 280/7/236 276/7/236 82/3/236
f 286/7/237 277/7/237 90/3/237
f 88/7/238 416/7/238 286/7/238
f 278/7/239 281/7/239 416/7/239
f 416/7/240 87/3/240 277/7/240
f 281/7/241 274/7/241 87/3/241
f 85/7/242 417/7/242 281/7/242
f 280/7/243 275/7/243 417/7/243
f 417/7/244 84/7/244 274/7/244
f 290/7/245 283/7/245 93/3/245
f 91/7/246 418/7/246 290/7/246
f 284/7/247 286/7/247 418/7/247
f 418/7/248 90/3/248 283/7/248
f 287/7/249 278/7/249 88/7/249
f 89/3/250 419/7/250 287/7/250
f 419/7/251 86/3/251 282/7/251
f 419/7/252 85/7/252 278/7/252
f 300/82/253 292/7/253 97/3/253
f 300/82/254 288/40/254 420/83/254
f 288/40/255 290/7/255 420/83/255
f 420/83/256 93/3/256 292/7/256
f 101/42/257 421/56/257 288/40/257
f 306/40/258 289/7/258 421/56/258
f 421/56/259 92/3/259 291/7/259
f 288/40/260 291/7/260 91/7/260
f 291/7/261 284/7/261 91/7/261
f 291/7/262 285/7/262 422/7/262
f 285/7/263 287/7/263 422/7/263
f 422/7/264 88/7/264 284/7/264
f 327/66/265 297/84/265 113/17/265
f 110/4/266 423/85/266 327/66/266
f 311/4/267 293/73/267 423/85/267
f 297/84/268 293/73/268 94/79/268
f 326/73/269 311/81/269 110/4/269
f 111/74/270 424/86/270 326/73/270
f 314/78/271 294/73/271 424/86/271
f 424/86/272 96/4/272 311/81/272
f 328/87/273 314/74/273 111/74/273
f 112/3/274 425/87/274 328/87/274
f 298/7/275 295/87/275 425/87/275
f 425/87/276 98/74/276 314/74/276
f 114/7/277 426/88/277 312/7/277
f 329/1/278 297/84/278 426/88/278
f 426/88/279 94/79/279 296/88/279
f 312/7/280 296/88/280 97/3/280
f 296/88/281 300/82/281 97/3/281
f 94/79/282 427/89/282 296/88/282
f 307/79/283 302/90/283 427/89/283
f 427/89/284 101/42/284 300/82/284
f 295/87/285 301/74/285 98/74/285
f 95/3/286 428/87/286 295/87/286
f 428/87/287 104/3/287 303/87/287
f 428/87/288 103/74/288 301/74/288
f 294/73/289 299/81/289 96/4/289
f 98/74/290 429/86/290 294/73/290
f 301/78/291 304/73/291 429/86/291
f 429/86/292 100/4/292 299/81/292
f 293/73/293 307/78/293 94/79/293
f 96/4/294 430/80/294 293/73/294
f 299/81/295 305/73/295 430/80/295
f 430/80/296 102/79/296 307/78/296
f 255/88/297 250/7/297 107/3/297
f 106/79/298 431/91/298 255/88/298
f 251/84/299 320/1/299 431/91/299
f 431/91/300 72/7/300 250/7/300
f 304/73/301 272/81/301 100/4/301
f 103/74/302 432/86/302 304/73/302
f 325/78/303 308/73/303 432/86/303
f 432/86/304 108/4/304 272/81/304
f 315/87/305 253/76/305 105/74/305
f 315/87/306 254/7/306 433/92/306
f 433/92/307 69/3/307 313/93/307
f 433/92/308 70/94/308 253/76/308
f 303/87/309 325/74/309 103/74/309
f 303/87/310 318/7/310 434/87/310
f 434/87/311 81/3/311 315/87/311
f 434/87/312 105/74/312 325/74/312
f 306/52/313 270/7/313 99/3/313
f 306/52/314 319/95/314 435/96/314
f 319/95/315 271/7/315 435/96/315
f 435/96/316 109/7/316 270/7/316
f 106/79/317 436/85/317 251/84/317
f 108/4/318 436/85/318 256/73/318
f 436/85/319 73/4/319 316/66/319
f 251/84/320 316/66/320 71/17/320
f 334/4/321 322/4/321 118/17/321
f 115/4/322 437/4/322 334/4/322
f 437/4/323 110/4/323 327/66/323
f 322/4/324 327/66/324 113/17/324
f 333/73/325 321/81/325 115/4/325
f 116/74/326 438/86/326 333/73/326
f 323/78/327 326/73/327 438/86/327
f 438/86/328 110/4/328 321/81/328
f 335/87/329 323/74/329 116/74/329
f 117/3/330 439/87/330 335/87/330
f 324/7/331 328/87/331 439/87/331
f 439/87/332 111/74/332 323/74/332
f 302/90/333 319/95/333 101/42/333
f 102/79/334 440/89/334 302/90/334
f 310/79/335 255/88/335 440/89/335
f 319/95/336 255/88/336 107/3/336
f 348/87/337 332/74/337 123/74/337
f 348/87/338 330/7/338 441/87/338
f 330/7/339 335/87/339 441/87/339
f 441/87/340 116/74/340 332/74/340
f 343/4/341 338/4/341 129/17/341
f 120/4/342 442/4/342 343/4/342
f 331/4/343 334/4/343 442/4/343
f 442/4/344 118/17/344 338/4/344
f 129/17/345 443/4/345 343/4/345
f 353/4/346 341/4/346 443/4/346
f 443/4/347 121/4/347 336/4/347
f 343/4/348 336/4/348 120/4/348
f 128/4/349 444/4/349 341/4/349
f 352/4/350 342/4/350 444/4/350
f 444/4/351 119/17/351 337/4/351
f 341/4/352 337/4/352 121/4/352
f 340/73/353 331/81/353 120/4/353
f 123/74/354 445/86/354 340/73/354
f 332/78/355 333/73/355 445/86/355
f 445/86/356 115/4/356 331/81/356
f 121/4/357 446/85/357 344/97/357
f 337/4/358 339/4/358 446/85/358
f 446/85/359 127/17/359 346/84/359
f 446/85/360 124/79/360 344/97/360
f 351/1/361 346/98/361 127/17/361
f 126/7/362 447/88/362 351/1/362
f 350/7/363 345/87/363 447/88/363
f 447/88/364 124/74/364 346/98/364
f 345/87/365 349/74/365 124/74/365
f 125/3/366 448/87/366 345/87/366
f 347/7/367 348/87/367 448/87/367
f 448/87/368 123/74/368 349/74/368
f 120/4/369 449/86/369 340/86/369
f 336/4/370 344/86/370 449/86/370
f 449/86/371 124/79/371 349/79/371
f 340/86/372 349/79/372 123/79/372
f 213/1/373 354/5/373 133/2/373
f 3/4/374 131/1/374 354/5/374
f 133/2/375 354/5/375 131/1/375
f 2/3/376 163/7/376 355/6/376
f 45/7/377 134/8/377 355/6/377
f 132/7/378 355/6/378 134/8/378
f 45/7/379 209/10/379 356/9/379
f 4/3/380 133/99/380 356/9/380
f 134/11/381 356/9/381 133/12/381
f 6/7/382 150/100/382 357/13/382
f 138/14/383 357/13/383 150/15/383
f 141/11/384 357/13/384 138/14/384
f 7/17/385 149/19/385 358/18/385
f 8/3/386 140/1/386 358/18/386
f 139/4/387 358/18/387 140/1/387
f 9/20/388 151/39/388 359/21/388
f 10/17/389 142/1/389 359/21/389
f 138/14/390 359/21/390 142/1/390
f 148/24/391 360/6/391 140/7/391
f 6/7/392 141/8/392 360/6/392
f 140/7/393 360/6/393 141/8/393
f 157/26/394 361/29/394 145/27/394
f 11/7/395 143/7/395 361/29/395
f 143/7/396 6/7/396 148/30/396
f 361/29/397 148/30/397 8/3/397
f 11/7/398 159/32/398 362/31/398
f 159/32/399 14/28/399 146/33/399
f 362/31/400 146/33/400 9/20/400
f 143/7/401 362/31/401 150/34/401
f 158/35/402 363/36/402 144/4/402
f 13/28/403 145/27/403 363/36/403
f 145/27/404 8/3/404 149/19/404
f 363/36/405 149/19/405 7/17/405
f 14/28/406 160/38/406 364/37/406
f 160/38/407 15/17/407 147/4/407
f 364/37/408 147/4/408 10/17/408
f 146/33/409 364/37/409 151/39/409
f 65/28/410 245/38/410 365/38/410
f 245/38/411 66/17/411 156/4/411
f 365/38/412 156/4/412 15/17/412
f 153/28/413 365/38/413 160/38/413
f 242/40/414 366/43/414 155/41/414
f 62/7/415 152/7/415 366/43/415
f 152/7/416 11/7/416 157/26/416
f 366/43/417 157/26/417 13/28/417
f 244/32/418 367/45/418 152/6/418
f 244/32/419 65/28/419 153/44/419
f 367/45/420 153/44/420 14/28/420
f 152/6/421 367/45/421 159/32/421
f 243/46/422 368/47/422 154/4/422
f 64/42/423 155/41/423 368/47/423
f 155/41/424 13/28/424 158/35/424
f 368/47/425 158/35/425 12/17/425
f 162/7/426 369/48/426 135/7/426
f 43/7/427 136/7/427 369/48/427
f 136/7/428 4/3/428 209/10/428
f 369/48/429 209/10/429 45/7/429
f 42/3/430 206/7/430 370/7/430
f 206/7/431 41/3/431 161/7/431
f 370/7/432 161/7/432 44/3/432
f 212/7/433 370/7/433 208/7/433
f 27/7/434 182/7/434 371/3/434
f 182/7/435 25/3/435 168/7/435
f 371/3/436 168/7/436 20/3/436
f 371/3/437 174/7/437 22/3/437
f 180/7/438 372/7/438 167/7/438
f 180/7/439 26/7/439 164/7/439
f 372/7/440 164/7/440 21/7/440
f 167/7/441 372/7/441 170/7/441
f 183/7/442 373/7/442 164/7/442
f 183/7/443 27/7/443 165/7/443
f 373/7/444 165/7/444 22/3/444
f 373/7/445 175/3/445 21/7/445
f 175/3/446 374/7/446 170/7/446
f 22/3/447 174/7/447 374/7/447
f 174/7/448 20/3/448 169/7/448
f 374/7/449 169/7/449 19/7/449
f 169/7/450 375/7/450 173/7/450
f 169/7/451 20/3/451 171/7/451
f 375/7/452 171/7/452 17/7/452
f 173/7/453 375/7/453 172/7/453
f 31/7/454 192/7/454 376/6/454
f 192/7/455 32/7/455 176/6/455
f 376/6/456 176/6/456 27/7/456
f 188/6/457 376/6/457 183/7/457
f 190/7/458 377/7/458 178/7/458
f 29/7/459 179/7/459 377/7/459
f 179/7/460 24/7/460 181/7/460
f 377/7/461 181/7/461 23/3/461
f 32/7/462 191/7/462 378/7/462
f 191/7/463 30/3/463 177/7/463
f 378/7/464 177/7/464 25/3/464
f 176/7/465 378/7/465 182/7/465
f 181/7/466 379/7/466 166/7/466
f 24/7/467 167/7/467 379/7/467
f 379/7/468 167/7/468 19/7/468
f 379/7/469 173/7/469 18/3/469
f 201/7/470 380/6/470 197/6/470
f 201/7/471 37/7/471 184/6/471
f 380/6/472 184/6/472 32/7/472
f 197/6/473 380/6/473 192/7/473
f 199/7/474 381/7/474 186/7/474
f 34/7/475 187/7/475 381/7/475
f 187/7/476 29/7/476 190/7/476
f 381/7/477 190/7/477 28/3/477
f 37/7/478 200/7/478 382/7/478
f 200/7/479 35/3/479 185/7/479
f 382/7/480 185/7/480 30/3/480
f 184/7/481 382/7/481 191/7/481
f 189/7/482 383/6/482 179/6/482
f 31/7/483 188/6/483 383/6/483
f 188/6/484 26/7/484 180/7/484
f 383/6/485 180/7/485 24/7/485
f 207/7/486 384/7/486 193/7/486
f 38/7/487 194/7/487 384/7/487
f 194/7/488 34/7/488 199/7/488
f 193/7/489 384/7/489 199/7/489
f 47/7/490 217/30/490 385/7/490
f 217/30/491 49/3/491 196/7/491
f 385/7/492 196/7/492 37/7/492
f 195/7/493 385/7/493 201/7/493
f 198/7/494 386/6/494 187/6/494
f 36/7/495 197/6/495 386/6/495
f 197/6/496 31/7/496 189/7/496
f 386/6/497 189/7/497 29/7/497
f 211/7/498 387/7/498 196/7/498
f 40/7/499 202/7/499 387/7/499
f 387/7/500 202/7/500 35/3/500
f 196/7/501 387/7/501 200/7/501
f 46/3/502 218/3/502 388/7/502
f 47/7/503 204/7/503 388/7/503
f 388/7/504 204/7/504 38/7/504
f 205/7/505 388/7/505 203/7/505
f 39/3/506 203/7/506 389/7/506
f 203/7/507 38/7/507 207/7/507
f 389/7/508 207/7/508 41/3/508
f 210/7/509 389/7/509 206/7/509
f 38/7/510 204/3/510 390/7/510
f 204/3/511 47/7/511 195/7/511
f 390/7/512 195/7/512 36/7/512
f 194/7/513 390/7/513 198/7/513
f 53/28/514 226/38/514 391/49/514
f 226/38/515 52/17/515 214/4/515
f 391/49/516 214/4/516 48/4/516
f 215/50/517 391/49/517 219/1/517
f 16/3/518 208/7/518 392/7/518
f 208/7/519 44/3/519 135/7/519
f 392/7/520 135/7/520 45/7/520
f 137/7/521 392/7/521 163/7/521
f 57/7/522 234/52/522 393/51/522
f 234/52/523 64/42/523 222/53/523
f 393/51/524 222/53/524 53/28/524
f 221/7/525 393/51/525 224/32/525
f 58/3/526 241/7/526 394/7/526
f 241/7/527 57/7/527 221/7/527
f 394/7/528 221/7/528 51/7/528
f 220/7/529 394/7/529 225/7/529
f 50/3/530 225/7/530 395/3/530
f 225/7/531 51/7/531 223/3/531
f 223/3/532 47/7/532 218/3/532
f 216/7/533 395/3/533 218/3/533
f 51/7/534 224/32/534 396/54/534
f 224/32/535 53/28/535 215/50/535
f 215/50/536 49/3/536 217/30/536
f 223/3/537 396/54/537 217/30/537
f 242/55/538 397/56/538 237/7/538
f 64/42/539 234/40/539 397/56/539
f 234/40/540 57/7/540 227/7/540
f 397/56/541 227/7/541 56/7/541
f 66/17/542 245/35/542 398/35/542
f 65/28/543 232/28/543 398/35/543
f 232/28/544 55/28/544 228/35/544
f 235/4/545 398/35/545 228/35/545
f 244/26/546 399/45/546 232/44/546
f 62/7/547 237/6/547 399/45/547
f 237/6/548 56/7/548 229/26/548
f 399/45/549 229/26/549 55/57/549
f 243/58/550 400/59/550 222/53/550
f 243/58/551 63/17/551 230/4/551
f 400/59/552 230/4/552 52/17/552
f 222/53/553 400/59/553 226/38/553
f 229/26/554 401/60/554 236/50/554
f 56/7/555 233/7/555 401/60/555
f 233/7/556 59/3/556 239/7/556
f 401/60/557 239/7/557 60/3/557
f 228/35/558 402/49/558 231/4/558
f 55/28/559 236/50/559 402/49/559
f 236/50/560 60/3/560 240/1/560
f 402/49/561 240/1/561 61/4/561
f 227/7/562 403/7/562 233/7/562
f 57/7/563 241/7/563 403/7/563
f 241/7/564 58/3/564 238/7/564
f 403/7/565 238/7/565 59/3/565
f 70/61/566 313/93/566 404/62/566
f 69/3/567 247/1/567 404/62/567
f 249/63/568 404/62/568 247/1/568
f 71/17/569 316/101/569 405/65/569
f 73/4/570 248/67/570 405/65/570
f 246/4/571 405/65/571 248/67/571
f 73/4/572 317/102/572 406/68/572
f 70/61/573 249/63/573 406/68/573
f 248/70/574 406/68/574 249/63/574
f 263/4/575 407/65/575 259/4/575
f 75/4/576 257/4/576 407/65/576
f 259/4/577 407/65/577 257/4/577
f 75/4/578 264/72/578 408/17/578
f 258/4/579 408/17/579 264/4/579
f 74/17/580 257/4/580 408/17/580
f 269/4/581 409/71/581 261/4/581
f 269/4/582 79/17/582 260/4/582
f 409/71/583 260/4/583 76/17/583
f 409/71/584 264/72/584 75/4/584
f 268/4/585 410/4/585 262/4/585
f 78/4/586 261/4/586 410/4/586
f 261/4/587 75/4/587 263/4/587
f 410/4/588 263/4/588 77/17/588
f 128/4/589 353/4/589 411/4/589
f 353/4/590 129/17/590 265/4/590
f 411/4/591 265/4/591 79/17/591
f 267/4/592 411/4/592 269/4/592
f 352/4/593 412/4/593 266/4/593
f 128/4/594 267/4/594 412/4/594
f 267/4/595 78/4/595 268/4/595
f 412/4/596 268/4/596 80/17/596
f 308/73/597 413/75/597 252/4/597
f 105/74/598 253/76/598 413/75/598
f 253/76/599 70/94/599 317/77/599
f 413/75/600 317/77/600 73/4/600
f 305/73/229 414/80/229 310/78/229
f 100/4/601 272/81/601 414/80/601
f 272/81/602 108/4/602 256/73/602
f 310/78/603 414/80/603 256/73/603
f 85/7/604 282/7/604 415/7/604
f 282/7/605 86/3/605 273/7/605
f 415/7/606 273/7/606 83/7/606
f 280/7/607 415/7/607 276/7/607
f 286/7/608 416/7/608 277/7/608
f 88/7/609 278/7/609 416/7/609
f 278/7/610 85/7/610 281/7/610
f 416/7/611 281/7/611 87/3/611
f 281/7/612 417/7/612 274/7/612
f 85/7/613 280/7/613 417/7/613
f 280/7/614 82/3/614 275/7/614
f 417/7/615 275/7/615 84/7/615
f 290/7/616 418/7/616 283/7/616
f 91/7/617 284/7/617 418/7/617
f 284/7/618 88/7/618 286/7/618
f 418/7/619 286/7/619 90/3/619
f 287/7/620 419/7/620 278/7/620
f 89/3/621 279/7/621 419/7/621
f 419/7/622 279/7/622 86/3/622
f 419/7/623 282/7/623 85/7/623
f 300/82/624 420/83/624 292/7/624
f 300/82/625 101/42/625 288/40/625
f 288/40/626 91/7/626 290/7/626
f 420/83/627 290/7/627 93/3/627
f 101/42/628 306/40/628 421/56/628
f 306/40/629 99/3/629 289/7/629
f 421/56/630 289/7/630 92/3/630
f 288/40/631 421/56/631 291/7/631
f 291/7/632 422/7/632 284/7/632
f 291/7/633 92/3/633 285/7/633
f 285/7/634 89/3/634 287/7/634
f 422/7/635 287/7/635 88/7/635
f 327/66/636 423/85/636 297/84/636
f 110/4/637 311/4/637 423/85/637
f 311/4/638 96/4/638 293/73/638
f 297/84/639 423/85/639 293/73/639
f 326/73/640 424/86/640 311/81/640
f 111/74/641 314/78/641 424/86/641
f 314/78/642 98/74/642 294/73/642
f 424/86/643 294/73/643 96/4/643
f 328/87/644 425/87/644 314/74/644
f 112/3/645 298/7/645 425/87/645
f 298/7/646 95/3/646 295/87/646
f 425/87/647 295/87/647 98/74/647
f 114/7/648 329/1/648 426/88/648
f 329/1/649 113/17/649 297/84/649
f 426/88/650 297/84/650 94/79/650
f 312/7/651 426/88/651 296/88/651
f 296/88/652 427/89/652 300/82/652
f 94/79/653 307/79/653 427/89/653
f 307/79/654 102/79/654 302/90/654
f 427/89/655 302/90/655 101/42/655
f 295/87/656 428/87/656 301/74/656
f 95/3/657 309/7/657 428/87/657
f 428/87/658 309/7/658 104/3/658
f 428/87/659 303/87/659 103/74/659
f 294/73/660 429/86/660 299/81/660
f 98/74/661 301/78/661 429/86/661
f 301/78/662 103/74/662 304/73/662
f 429/86/663 304/73/663 100/4/663
f 293/73/664 430/80/664 307/78/664
f 96/4/665 299/81/665 430/80/665
f 299/81/666 100/4/666 305/73/666
f 430/80/667 305/73/667 102/79/667
f 255/88/668 431/91/668 250/7/668
f 106/79/669 251/84/669 431/91/669
f 251/84/670 71/17/670 320/1/670
f 431/91/671 320/1/671 72/7/671
f 304/73/672 432/86/672 272/81/672
f 103/74/673 325/78/673 432/86/673
f 325/78/674 105/74/674 308/73/674
f 432/86/675 308/73/675 108/4/675
f 315/87/676 433/92/676 253/76/676
f 315/87/677 81/3/677 254/7/677
f 433/92/678 254/7/678 69/3/678
f 433/92/679 313/93/679 70/94/679
f 303/87/680 434/87/680 325/74/680
f 303/87/681 104/3/681 318/7/681
f 434/87/682 318/7/682 81/3/682
f 434/87/683 315/87/683 105/74/683
f 306/52/684 435/96/684 270/7/684
f 306/52/685 101/42/685 319/95/685
f 319/95/686 107/3/686 271/7/686
f 435/96/687 271/7/687 109/7/687
f 106/79/688 256/73/688 436/85/688
f 108/4/689 252/4/689 436/85/689
f 436/85/690 252/4/690 73/4/690
f 251/84/691 436/85/691 316/66/691
f 334/4/692 437/4/692 322/4/692
f 115/4/693 321/4/693 437/4/693
f 437/4/694 321/4/694 110/4/694
f 322/4/695 437/4/695 327/66/695
f 333/73/696 438/86/696 321/81/696
f 116/74/697 323/78/697 438/86/697
f 323/78/698 111/74/698 326/73/698
f 438/86/699 326/73/699 110/4/699
f 335/87/700 439/87/700 323/74/700
f 117/3/701 324/7/701 439/87/701
f 324/7/702 112/3/702 328/87/702
f 439/87/703 328/87/703 111/74/703
f 302/90/704 440/89/704 319/95/704
f 102/79/705 310/79/705 440/89/705
f 310/79/706 106/79/706 255/88/706
f 319/95/707 440/89/707 255/88/707
f 348/87/708 441/87/708 332/74/708
f 348/87/709 122/3/709 330/7/709
f 330/7/710 117/3/710 335/87/710
f 441/87/711 335/87/711 116/74/711
f 343/4/712 442/4/712 338/4/712
f 120/4/713 331/4/713 442/4/713
f 331/4/714 115/4/714 334/4/714
f 442/4/715 334/4/715 118/17/715
f 129/17/716 353/4/716 443/4/716
f 353/4/717 128/4/717 341/4/717
f 443/4/718 341/4/718 121/4/718
f 343/4/719 443/4/719 336/4/719
f 128/4/720 352/4/720 444/4/720
f 352/4/721 130/17/721 342/4/721
f 444/4/722 342/4/722 119/17/722
f 341/4/723 444/4/723 337/4/723
f 340/73/724 445/86/724 331/81/724
f 123/74/725 332/78/725 445/86/725
f 332/78/726 116/74/726 333/73/726
f 445/86/727 333/73/727 115/4/727
f 121/4/728 337/4/728 446/85/728
f 337/4/729 119/17/729 339/4/729
f 446/85/730 339/4/730 127/17/730
f 446/85/731 346/84/731 124/79/731
f 351/1/732 447/88/732 346/98/732
f 126/7/733 350/7/733 447/88/733
f 350/7/734 125/3/734 345/87/734
f 447/88/735 345/87/735 124/74/735
f 345/87/736 448/87/736 349/74/736
f 125/3/737 347/7/737 448/87/737
f 347/7/738 122/3/738 348/87/738
f 448/87/739 348/87/739 123/74/739
f 120/4/740 336/4/740 449/86/740
f 336/4/741 121/4/741 344/86/741
f 449/86/742 344/86/742 124/79/742
f 340/86/743 449/86/743 349/79/743
