# Blender 4.1.1
# www.blender.org
mtllib goal.mtl
o 円柱
v 0.000000 0.694673 -0.200000
v 0.000000 5.094673 -0.200000
v 0.039018 0.694673 -0.196157
v 0.039018 5.094673 -0.196157
v 0.076537 0.694673 -0.184776
v 0.076537 5.094673 -0.184776
v 0.111114 0.694673 -0.166294
v 0.111114 5.094673 -0.166294
v 0.141421 0.694673 -0.141421
v 0.141421 5.094673 -0.141421
v 0.166294 0.694673 -0.111114
v 0.166294 5.094673 -0.111114
v 0.184776 0.694673 -0.076537
v 0.184776 5.094673 -0.076537
v 0.196157 0.694673 -0.039018
v 0.196157 5.094673 -0.039018
v 0.200000 0.694673 0.000000
v 0.200000 5.094673 0.000000
v 0.196157 0.694673 0.039018
v 0.196157 5.094673 0.039018
v 0.184776 0.694673 0.076537
v 0.184776 5.094673 0.076537
v 0.166294 0.694673 0.111114
v 0.166294 5.094673 0.111114
v 0.141421 0.694673 0.141421
v 0.141421 5.094673 0.141421
v 0.111114 0.694673 0.166294
v 0.111114 5.094673 0.166294
v 0.076537 0.694673 0.184776
v 0.076537 5.094673 0.184776
v 0.039018 0.694673 0.196157
v 0.039018 5.094673 0.196157
v 0.000000 0.694673 0.200000
v 0.000000 5.094673 0.200000
v -0.039018 0.694673 0.196157
v -0.039018 5.094673 0.196157
v -0.076537 0.694673 0.184776
v -0.076537 5.094673 0.184776
v -0.111114 0.694673 0.166294
v -0.111114 5.094673 0.166294
v -0.141421 0.694673 0.141421
v -0.141421 5.094673 0.141421
v -0.166294 0.694673 0.111114
v -0.166294 5.094673 0.111114
v -0.184776 0.694673 0.076537
v -0.184776 5.094673 0.076537
v -0.196157 0.694673 0.039018
v -0.196157 5.094673 0.039018
v -0.200000 0.694673 0.000000
v -0.200000 5.094673 0.000000
v -0.196157 0.694673 -0.039018
v -0.196157 5.094673 -0.039018
v -0.184776 0.694673 -0.076537
v -0.184776 5.094673 -0.076537
v -0.166294 0.694673 -0.111114
v -0.166294 5.094673 -0.111114
v -0.141421 0.694673 -0.141421
v -0.141421 5.094673 -0.141421
v -0.111114 0.694673 -0.166294
v -0.111114 5.094673 -0.166294
v -0.076537 0.694673 -0.184776
v -0.076537 5.094673 -0.184776
v -0.039018 0.694673 -0.196157
v -0.039018 5.094673 -0.196157
v 0.160050 3.106248 0.200264
v 0.160050 5.106248 0.200264
v 0.160050 3.106248 -0.199736
v 0.160050 5.106248 -0.199736
v 2.305038 3.117045 0.200264
v 2.305038 5.095452 0.200264
v 2.305038 3.117045 -0.199736
v 2.305038 5.095452 -0.199736
vn 0.0076 0.0853 -0.9963
vn 0.1943 -0.0853 -0.9772
vn -0.0000 -0.0853 -0.9964
vn 0.2018 0.0853 -0.9757
vn 0.3812 -0.0853 -0.9205
vn 0.3883 0.0853 -0.9176
vn 0.5535 -0.0853 -0.8285
vn 0.5599 0.0852 -0.8242
vn 0.7045 -0.0853 -0.7046
vn 0.7099 0.0853 -0.6991
vn 0.8284 -0.0853 -0.5536
vn 0.8326 0.0853 -0.5473
vn 0.9205 -0.0853 -0.3813
vn 0.9234 0.0853 -0.3743
vn 0.9772 -0.0852 -0.1944
vn 0.9787 0.0853 -0.1869
vn 0.9964 -0.0853 -0.0001
vn 0.9963 0.0853 0.0076
vn 0.9772 -0.0853 0.1943
vn 0.9757 0.0854 0.2018
vn 0.9205 -0.0853 0.3812
vn 0.9176 0.0853 0.3883
vn 0.8285 -0.0853 0.5535
vn 0.8242 0.0853 0.5599
vn 0.7046 -0.0853 0.7045
vn 0.6992 0.0853 0.7099
vn 0.5536 -0.0853 0.8284
vn 0.5473 0.0852 0.8326
vn 0.3813 -0.0853 0.9205
vn 0.3743 0.0853 0.9234
vn 0.1944 -0.0853 0.9772
vn 0.1869 0.0853 0.9787
vn 0.0001 -0.0853 0.9964
vn -0.0076 0.0853 0.9963
vn -0.1943 -0.0853 0.9772
vn -0.2018 0.0853 0.9757
vn -0.3812 -0.0853 0.9205
vn -0.3883 0.0853 0.9176
vn -0.5535 -0.0853 0.8285
vn -0.5599 0.0852 0.8242
vn -0.7045 -0.0853 0.7046
vn -0.7099 0.0853 0.6991
vn -0.8284 -0.0853 0.5536
vn -0.8326 0.0853 0.5473
vn -0.9205 -0.0853 0.3813
vn -0.9234 0.0853 0.3743
vn -0.9772 -0.0852 0.1944
vn -0.9786 0.0854 0.1870
vn -0.9964 -0.0853 0.0001
vn -0.9963 0.0853 -0.0076
vn -0.9772 -0.0853 -0.1943
vn -0.9757 0.0853 -0.2018
vn -0.9205 -0.0853 -0.3812
vn -0.9176 0.0853 -0.3883
vn -0.8285 -0.0853 -0.5535
vn -0.8242 0.0853 -0.5599
vn -0.7046 -0.0853 -0.7045
vn -0.6992 0.0853 -0.7099
vn -0.5536 -0.0853 -0.8284
vn -0.5473 0.0852 -0.8326
vn -0.3813 -0.0853 -0.9205
vn -0.3743 0.0853 -0.9234
vn -0.1944 -0.0853 -0.9772
vn -0.1869 0.0853 -0.9787
vn -0.7056 0.0642 0.7057
vn -0.7056 -0.0642 -0.7057
vn -0.7050 -0.0642 0.7063
vn -0.7056 0.0642 -0.7057
vn 0.7057 -0.0641 -0.7056
vn 0.7057 0.0641 -0.7056
vn 0.7057 -0.0641 0.7056
vn 0.7057 0.0641 0.7056
vt 0.919816 0.014802
vt 0.665958 0.030668
vt 0.665958 0.014802
vt 0.919816 0.030668
vt 0.665958 0.046534
vt 0.919816 0.046534
vt 0.665958 0.062400
vt 0.919816 0.062400
vt 0.665958 0.078266
vt 0.919816 0.078266
vt 0.665958 0.094133
vt 0.919816 0.094133
vt 0.665958 0.109999
vt 0.919816 0.109999
vt 0.665958 0.125865
vt 0.919816 0.125865
vt 0.665958 0.141731
vt 0.919816 0.141731
vt 0.665958 0.157597
vt 0.919816 0.157597
vt 0.665958 0.173463
vt 0.919816 0.173463
vt 0.665958 0.189329
vt 0.919816 0.189329
vt 0.665958 0.205196
vt 0.919816 0.205196
vt 0.665958 0.221062
vt 0.919816 0.221062
vt 0.665958 0.236928
vt 0.919816 0.236928
vt 0.665958 0.252794
vt 0.919816 0.252794
vt 0.665958 0.268660
vt 0.919816 0.268660
vt 0.665958 0.284526
vt 0.919816 0.284526
vt 0.665958 0.300392
vt 0.919816 0.300392
vt 0.665958 0.316259
vt 0.919816 0.316259
vt 0.665958 0.332125
vt 0.919816 0.332125
vt 0.665958 0.347991
vt 0.919816 0.347991
vt 0.665958 0.363857
vt 0.919816 0.363857
vt 0.665958 0.379723
vt 0.919816 0.379723
vt 0.665958 0.395589
vt 0.919816 0.395589
vt 0.665958 0.411455
vt 0.919816 0.411455
vt 0.665958 0.427322
vt 0.919816 0.427322
vt 0.665958 0.443188
vt 0.919816 0.443188
vt 0.665958 0.459054
vt 0.919816 0.459054
vt 0.665958 0.474920
vt 0.919816 0.474920
vt 0.665958 0.490786
vt 0.737403 0.749982
vt 0.669834 0.623568
vt 0.796248 0.555998
vt 0.919816 0.490786
vt 0.665958 0.506652
vt 0.919816 0.506652
vt 0.665958 0.522518
vt 0.756891 0.783462
vt 0.665958 0.894265
vt 0.776760 0.985198
vt 0.814605 0.563602
vt 0.831125 0.574641
vt 0.845175 0.588690
vt 0.856214 0.605211
vt 0.863817 0.623568
vt 0.867694 0.643055
vt 0.867694 0.662925
vt 0.863817 0.682412
vt 0.856214 0.700769
vt 0.845175 0.717290
vt 0.831125 0.731340
vt 0.814605 0.742378
vt 0.796248 0.749982
vt 0.776760 0.753858
vt 0.756891 0.753858
vt 0.719047 0.742378
vt 0.702526 0.731340
vt 0.688476 0.717290
vt 0.677437 0.700769
vt 0.669834 0.682412
vt 0.665958 0.662925
vt 0.665958 0.643055
vt 0.677437 0.605211
vt 0.688476 0.588691
vt 0.702526 0.574641
vt 0.719047 0.563602
vt 0.737403 0.555998
vt 0.756891 0.552122
vt 0.776760 0.552122
vt 0.919816 0.522518
vt 0.796248 0.981322
vt 0.814605 0.973718
vt 0.831125 0.962679
vt 0.845175 0.948630
vt 0.856214 0.932109
vt 0.863817 0.913752
vt 0.867694 0.894265
vt 0.867694 0.874395
vt 0.863817 0.854908
vt 0.856214 0.836551
vt 0.845175 0.820030
vt 0.831125 0.805981
vt 0.814605 0.794942
vt 0.796248 0.787338
vt 0.776760 0.783462
vt 0.737403 0.787338
vt 0.719047 0.794942
vt 0.702526 0.805981
vt 0.688476 0.820031
vt 0.677437 0.836551
vt 0.669834 0.854908
vt 0.665958 0.874395
vt 0.669834 0.913752
vt 0.677437 0.932109
vt 0.688476 0.948630
vt 0.702526 0.962680
vt 0.719047 0.973718
vt 0.737404 0.981322
vt 0.756891 0.985198
vt 0.429170 0.014802
vt 0.221986 0.221986
vt 0.221986 0.014802
vt 0.429170 0.221986
vt 0.221986 0.429170
vt 0.429170 0.429170
vt 0.221986 0.636354
vt 0.429170 0.636354
vt 0.221986 0.843538
vt 0.014802 0.636354
vt 0.014802 0.429170
vt 0.636354 0.429170
vt 0.429170 0.843538
vt 0.636354 0.636354
s 1
usemtl マテリアル
f 2/1/1 3/2/2 1/3/3
f 4/4/4 5/5/5 3/2/2
f 6/6/6 7/7/7 5/5/5
f 8/8/8 9/9/9 7/7/7
f 10/10/10 11/11/11 9/9/9
f 12/12/12 13/13/13 11/11/11
f 14/14/14 15/15/15 13/13/13
f 16/16/16 17/17/17 15/15/15
f 18/18/18 19/19/19 17/17/17
f 20/20/20 21/21/21 19/19/19
f 22/22/22 23/23/23 21/21/21
f 24/24/24 25/25/25 23/23/23
f 26/26/26 27/27/27 25/25/25
f 28/28/28 29/29/29 27/27/27
f 30/30/30 31/31/31 29/29/29
f 32/32/32 33/33/33 31/31/31
f 34/34/34 35/35/35 33/33/33
f 36/36/36 37/37/37 35/35/35
f 38/38/38 39/39/39 37/37/37
f 40/40/40 41/41/41 39/39/39
f 42/42/42 43/43/43 41/41/41
f 44/44/44 45/45/45 43/43/43
f 46/46/46 47/47/47 45/45/45
f 48/48/48 49/49/49 47/47/47
f 50/50/50 51/51/51 49/49/49
f 52/52/52 53/53/53 51/51/51
f 54/54/54 55/55/55 53/53/53
f 56/56/56 57/57/57 55/55/55
f 58/58/58 59/59/59 57/57/57
f 60/60/60 61/61/61 59/59/59
f 38/62/38 22/63/22 6/64/6
f 62/65/62 63/66/63 61/61/61
f 64/67/64 1/68/3 63/66/63
f 31/69/31 47/70/47 63/71/63
f 2/1/1 4/4/4 3/2/2
f 4/4/4 6/6/6 5/5/5
f 6/6/6 8/8/8 7/7/7
f 8/8/8 10/10/10 9/9/9
f 10/10/10 12/12/12 11/11/11
f 12/12/12 14/14/14 13/13/13
f 14/14/14 16/16/16 15/15/15
f 16/16/16 18/18/18 17/17/17
f 18/18/18 20/20/20 19/19/19
f 20/20/20 22/22/22 21/21/21
f 22/22/22 24/24/24 23/23/23
f 24/24/24 26/26/26 25/25/25
f 26/26/26 28/28/28 27/27/27
f 28/28/28 30/30/30 29/29/29
f 30/30/30 32/32/32 31/31/31
f 32/32/32 34/34/34 33/33/33
f 34/34/34 36/36/36 35/35/35
f 36/36/36 38/38/38 37/37/37
f 38/38/38 40/40/40 39/39/39
f 40/40/40 42/42/42 41/41/41
f 42/42/42 44/44/44 43/43/43
f 44/44/44 46/46/46 45/45/45
f 46/46/46 48/48/48 47/47/47
f 48/48/48 50/50/50 49/49/49
f 50/50/50 52/52/52 51/51/51
f 52/52/52 54/54/54 53/53/53
f 54/54/54 56/56/56 55/55/55
f 56/56/56 58/58/58 57/57/57
f 58/58/58 60/60/60 59/59/59
f 60/60/60 62/65/62 61/61/61
f 6/64/6 4/72/4 2/73/1
f 2/73/1 64/74/64 62/75/62
f 62/75/62 60/76/60 58/77/58
f 58/77/58 56/78/56 54/79/54
f 54/79/54 52/80/52 50/81/50
f 50/81/50 48/82/48 46/83/46
f 46/83/46 44/84/44 42/85/42
f 42/85/42 40/86/40 38/62/38
f 38/62/38 36/87/36 34/88/34
f 34/88/34 32/89/32 30/90/30
f 30/90/30 28/91/28 26/92/26
f 26/92/26 24/93/24 22/63/22
f 22/63/22 20/94/20 18/95/18
f 18/95/18 16/96/16 14/97/14
f 14/97/14 12/98/12 10/99/10
f 10/99/10 8/100/8 6/64/6
f 6/64/6 2/73/1 62/75/62
f 62/75/62 58/77/58 54/79/54
f 54/79/54 50/81/50 46/83/46
f 46/83/46 42/85/42 38/62/38
f 38/62/38 34/88/34 30/90/30
f 30/90/30 26/92/26 22/63/22
f 22/63/22 18/95/18 14/97/14
f 14/97/14 10/99/10 6/64/6
f 6/64/6 62/75/62 54/79/54
f 54/79/54 46/83/46 38/62/38
f 38/62/38 30/90/30 22/63/22
f 22/63/22 14/97/14 6/64/6
f 6/64/6 54/79/54 38/62/38
f 62/65/62 64/67/64 63/66/63
f 64/67/64 2/101/1 1/68/3
f 63/71/63 1/102/3 3/103/2
f 3/103/2 5/104/5 7/105/7
f 7/105/7 9/106/9 11/107/11
f 11/107/11 13/108/13 15/109/15
f 15/109/15 17/110/17 19/111/19
f 19/111/19 21/112/21 23/113/23
f 23/113/23 25/114/25 27/115/27
f 27/115/27 29/116/29 31/69/31
f 31/69/31 33/117/33 35/118/35
f 35/118/35 37/119/37 39/120/39
f 39/120/39 41/121/41 43/122/43
f 43/122/43 45/123/45 47/70/47
f 47/70/47 49/124/49 51/125/51
f 51/125/51 53/126/53 55/127/55
f 55/127/55 57/128/57 59/129/59
f 59/129/59 61/130/61 63/71/63
f 63/71/63 3/103/2 7/105/7
f 7/105/7 11/107/11 15/109/15
f 15/109/15 19/111/19 23/113/23
f 23/113/23 27/115/27 31/69/31
f 31/69/31 35/118/35 39/120/39
f 39/120/39 43/122/43 47/70/47
f 47/70/47 51/125/51 55/127/55
f 55/127/55 59/129/59 63/71/63
f 63/71/63 7/105/7 15/109/15
f 15/109/15 23/113/23 31/69/31
f 31/69/31 39/120/39 47/70/47
f 47/70/47 55/127/55 63/71/63
f 63/71/63 15/109/15 31/69/31
usemtl マテリアル.001
f 66/131/65 67/132/66 65/133/67
f 68/134/68 71/135/69 67/132/66
f 72/136/70 69/137/71 71/135/69
f 70/138/72 65/139/67 69/137/71
f 71/135/69 65/140/67 67/141/66
f 68/142/68 70/138/72 72/136/70
f 66/131/65 68/134/68 67/132/66
f 68/134/68 72/136/70 71/135/69
f 72/136/70 70/138/72 69/137/71
f 70/138/72 66/143/65 65/139/67
f 71/135/69 69/137/71 65/140/67
f 68/142/68 66/144/65 70/138/72
