# Blender 4.1.1
# www.blender.org
mtllib goal.mtl
o 立方体
v 0.198330 0.996643 0.204812
v 0.198330 2.996643 0.204812
v 0.198330 0.996643 -0.204812
v 0.198330 2.996643 -0.204812
v 2.198330 1.990992 0.204812
v 2.198330 2.002294 0.204812
v 2.198330 1.990992 -0.204812
v 2.198330 2.002294 -0.204812
v -0.199996 -1.000432 0.200000
v -0.199996 2.999568 0.200000
v -0.199996 -1.000432 -0.200000
v -0.199996 2.999568 -0.200000
v 0.200004 -1.000432 0.200000
v 0.200004 2.999568 0.200000
v 0.200004 -1.000432 -0.200000
v 0.200004 2.999568 -0.200000
vn -1.0000 -0.0000 -0.0000
vn -0.0000 -0.0000 -1.0000
vn 1.0000 -0.0000 -0.0000
vn -0.0000 -0.0000 1.0000
vn 0.4452 -0.8954 -0.0000
vn 0.4452 0.8954 -0.0000
vn -0.0000 -1.0000 -0.0000
vn -0.0000 1.0000 -0.0000
vt 0.863209 0.007402
vt 0.652285 0.050602
vt 0.652285 0.007402
vt 0.863209 0.050602
vt 0.757151 0.261526
vt 0.758343 0.261526
vt 0.757151 0.304726
vt 0.758343 0.304726
vt 0.652285 0.515651
vt 0.521597 0.304726
vt 0.521597 0.261526
vt 0.993897 0.261527
vt 0.428964 0.007260
vt 0.218039 0.218184
vt 0.218039 0.007260
vt 0.428964 0.218184
vt 0.218039 0.429109
vt 0.428964 0.429109
vt 0.218039 0.640033
vt 0.428964 0.640033
vt 0.218039 0.850958
vt 0.007115 0.640033
vt 0.007115 0.429109
vt 0.639888 0.429109
vt 0.863209 0.515651
vt 0.993897 0.304726
vt 0.428964 0.850958
vt 0.639888 0.640033
s 0
usemtl マテリアル.003
f 2/1/1 3/2/1 1/3/1
f 4/4/2 7/5/2 3/2/2
f 8/6/3 5/7/3 7/5/3
f 6/8/4 1/9/4 5/7/4
f 7/5/5 1/10/5 3/11/5
f 4/12/6 6/8/6 8/6/6
f 2/1/1 4/4/1 3/2/1
f 4/4/2 8/6/2 7/5/2
f 8/6/3 6/8/3 5/7/3
f 6/8/4 2/25/4 1/9/4
f 7/5/5 5/7/5 1/10/5
f 4/12/6 2/26/6 6/8/6
usemtl マテリアル.004
f 10/13/1 11/14/1 9/15/1
f 12/16/2 15/17/2 11/14/2
f 16/18/3 13/19/3 15/17/3
f 14/20/4 9/21/4 13/19/4
f 15/17/7 9/22/7 11/23/7
f 12/24/8 14/20/8 16/18/8
f 10/13/1 12/16/1 11/14/1
f 12/16/2 16/18/2 15/17/2
f 16/18/3 14/20/3 13/19/3
f 14/20/4 10/27/4 9/21/4
f 15/17/7 13/19/7 9/22/7
f 12/24/8 10/28/8 14/20/8
