# Blender 4.1.1
# www.blender.org
mtllib float_Body.mtl
o body
v 0.005152 0.425477 -0.000401
v 0.363282 1.487360 -0.238809
v 0.003388 0.425477 -0.000770
v 0.363282 1.487360 0.246171
v 0.004086 0.425477 -0.000702
v -0.350129 1.487360 -0.238809
v 0.002403 0.425477 -0.000349
v -0.350129 1.487360 0.246171
v 0.444894 0.956419 -0.320001
v 0.444894 0.956419 0.320001
v -0.435107 0.956419 0.320001
v -0.435107 0.956419 -0.320001
vn 0.9884 0.1519 -0.0000
vn -0.0000 0.1377 0.9905
vn -0.9874 0.1580 -0.0000
vn -0.0000 0.1512 -0.9885
vn -0.0000 -1.0000 -0.0000
vn -0.0000 1.0000 -0.0000
vn 0.2121 -0.6269 -0.7497
vn -0.1636 -0.6043 -0.7798
vn 0.2947 -0.6616 0.6895
vn -0.1888 -0.3880 0.9021
vn -0.0000 -0.5154 -0.8570
vn -0.7717 -0.6359 -0.0000
vn -0.0000 -0.5166 0.8562
vn 0.7702 -0.6379 -0.0000
vt 0.838754 0.445079
vt 0.733856 0.505715
vt 0.736126 0.404254
vt 0.745658 0.646652
vt 0.683516 0.582434
vt 0.656852 0.709939
vt 0.624181 0.609544
vt 0.479728 0.603584
vt 0.607097 0.489449
vt 0.606899 0.489501
vt 0.606749 0.489333
vt 0.838754 0.777286
vt 0.606668 0.489409
vt 0.607227 0.489625
vt 0.607337 0.489425
vt 0.607623 0.489169
vt 0.806776 0.534594
vt 0.503450 0.718139
vt 0.749948 0.840574
s 0
usemtl body_Material
f 2/1/1 10/2/1 9/3/1
f 10/2/2 8/4/2 11/5/2
f 11/5/3 6/6/3 12/7/3
f 6/6/4 9/8/4 12/7/4
f 3/9/5 5/10/5 1/11/5
f 4/12/6 6/6/6 8/4/6
f 5/10/7 9/8/7 1/13/7
f 7/14/8 12/7/8 5/10/8
f 10/2/9 7/14/9 3/15/9
f 1/16/10 10/2/10 3/15/10
f 2/1/1 4/17/1 10/2/1
f 10/2/2 4/17/2 8/4/2
f 11/5/3 8/4/3 6/6/3
f 6/6/4 2/18/4 9/8/4
f 3/9/6 7/14/6 5/10/6
f 4/12/6 2/19/6 6/6/6
f 5/10/11 12/7/11 9/8/11
f 7/14/12 11/5/12 12/7/12
f 10/2/13 11/5/13 7/14/13
f 1/16/14 9/3/14 10/2/14
