# Blender 4.1.1
# www.blender.org
mtllib UpperClothes.mtl
o 上着
v -0.053080 1.169514 -0.132112
v -0.097977 1.173876 -0.119602
v 0.000000 1.165516 -0.136118
v -0.016180 1.280870 -0.055674
v -0.055893 1.274068 -0.007551
v -0.049987 1.269939 0.039634
v -0.139008 1.079865 -0.126325
v -0.136660 1.183122 0.036548
v -0.121894 1.223878 0.045758
v -0.035954 1.193543 -0.098786
v -0.013222 1.209327 -0.085026
v 0.000102 1.225381 -0.071651
v -0.074496 1.243692 -0.057020
v -0.034512 1.270153 0.056887
v -0.000553 1.269425 0.063399
v 0.064225 1.211783 0.084622
v -0.048565 1.279150 -0.035822
v -0.124324 1.227340 -0.032390
v -0.050894 1.234636 0.074065
v -0.036587 1.172559 0.096194
v -0.053999 1.031405 0.106050
v -0.106359 1.199704 0.072100
v -0.134056 1.177932 -0.067590
v -0.158685 1.026874 -0.031662
v -0.158955 1.020047 0.029294
v -0.125894 1.046096 0.068863
v -0.139014 1.011522 0.077250
v -0.068667 1.121029 -0.173694
v -0.160342 0.980001 -0.022240
v -0.154324 0.973296 0.015228
v -0.154157 0.971687 0.050981
v -0.132671 0.967117 0.083318
v -0.068840 0.964180 0.112124
v -0.037891 0.967418 0.116956
v -0.148889 1.061282 -0.056609
v -0.066194 1.065489 -0.156946
v -0.129818 0.989322 -0.129796
v -0.023568 1.012089 -0.175122
v -0.061415 1.017787 -0.173657
v 0.125978 1.225342 0.001549
v -0.111528 1.003837 -0.172184
v -0.113329 1.051196 -0.162148
v -0.116270 1.091139 -0.175384
v -0.120163 1.137419 -0.163000
v -0.146701 1.152743 -0.034918
v 0.052931 1.169306 -0.131991
v 0.114233 1.141837 -0.164102
v 0.128280 1.149710 -0.123661
v 0.023548 1.280493 -0.052022
v 0.049292 1.270228 0.041620
v 0.057498 1.274768 -0.005272
v 0.138070 1.187004 0.036280
v 0.075480 1.254352 0.027119
v 0.003500 1.220215 -0.077445
v 0.036208 1.193463 -0.099106
v 0.087163 1.210792 -0.075420
v 0.048571 1.279157 -0.035828
v 0.012850 1.209815 -0.084698
v 0.070497 1.254277 -0.049420
v 0.125733 1.222416 0.043031
v 0.119272 1.230329 -0.033790
v 0.034555 1.270215 0.056978
v 0.039352 1.104252 0.101460
v 0.108406 1.199130 0.071698
v 0.136948 1.175119 -0.066078
v 0.004538 1.149398 -0.161232
v 0.158504 1.019622 0.029941
v 0.126642 1.045366 0.068033
v 0.158977 1.025831 -0.030690
v 0.139014 1.011522 0.077250
v 0.072080 0.964395 0.113426
v -0.000772 1.114747 -0.177662
v 0.077121 1.121722 -0.173944
v 0.117263 1.085418 -0.173726
v 0.143294 1.117506 -0.105797
v 0.160439 0.979769 -0.020906
v 0.154324 0.973296 0.015228
v 0.154157 0.971687 0.050981
v 0.132671 0.967117 0.083318
v 0.030681 0.966932 0.117737
v 0.136859 1.027836 -0.108923
v 0.005110 1.057835 -0.160480
v 0.107875 1.053106 -0.162359
v 0.129700 0.989292 -0.129656
v 0.023135 1.011860 -0.174923
v 0.061415 1.017787 -0.173657
v 0.109757 1.005281 -0.174416
v -0.125978 1.225342 0.001549
vn -0.0750 0.8267 -0.5576
vn -0.0227 0.3229 0.9462
vn -0.4416 0.8291 -0.3430
vn -0.5353 0.8429 0.0540
vn -0.9424 0.3315 0.0440
vn -0.0207 0.3315 0.9432
vn 0.0585 0.1412 0.9882
vn -0.0059 0.0704 0.9975
vn -0.2122 0.2844 0.9349
vn -0.4899 0.7745 -0.4002
vn 0.0230 0.8432 -0.5371
vn -0.0130 0.4300 -0.9027
vn -0.0328 0.4718 -0.8811
vn -0.9906 0.0536 -0.1261
vn -0.3366 0.0801 0.9382
vn -0.0789 -0.2956 -0.9520
vn -0.0826 -0.2911 -0.9531
vn -0.0135 0.3125 -0.9498
vn -0.8668 -0.2132 -0.4507
vn -0.9559 0.1930 -0.2212
vn -0.9579 0.2869 0.0126
vn 0.0902 0.2999 -0.9497
vn 0.1470 0.4830 0.8632
vn 0.5805 0.7945 0.1785
vn 0.4185 0.6908 -0.5896
vn 0.3687 0.6102 0.7013
vn 0.0768 0.7187 -0.6911
vn 0.4483 0.8934 -0.0301
vn -0.7905 0.0811 0.6071
vn 0.3007 0.0793 0.9504
vn 0.4877 0.5518 -0.6765
vn -0.0179 0.8400 -0.5423
vn 0.0061 0.4305 -0.9026
vn 0.9409 -0.0559 -0.3342
vn 0.4421 0.0592 0.8950
vn 0.1176 0.3246 0.9385
vn 0.0709 -0.2816 -0.9569
vn -0.2320 -0.2621 -0.9367
vn 0.8967 0.1411 -0.4196
vn -0.0032 0.3085 -0.9512
vn 0.9075 0.1175 -0.4033
vn 0.9181 0.0415 -0.3942
vn 0.9064 0.2238 -0.3584
vn 0.9220 0.2835 -0.2639
vn 0.9602 -0.0594 -0.2730
vn -0.4133 0.6706 -0.6161
vn -0.1544 0.4870 0.8596
vn -0.6230 0.5543 0.5519
vn -0.7776 0.6223 -0.0897
vn 0.0883 0.5792 -0.8104
vn -0.3633 0.6553 0.6623
vn -0.5931 0.7922 0.1436
vn 0.0288 0.6618 -0.7491
vn -0.3787 0.5598 0.7370
vn -0.2890 0.1021 0.9519
vn -0.4528 0.0388 0.8908
vn -0.7858 0.1491 0.6002
vn -0.0941 0.7855 -0.6117
vn -0.5072 0.5641 -0.6516
vn -0.6131 0.6316 -0.4745
vn -0.9816 -0.1373 0.1331
vn -0.0148 0.0818 0.9965
vn -0.8146 0.4089 0.4114
vn -0.3730 0.3500 0.8593
vn -0.1210 0.2471 -0.9614
vn -0.9097 0.0342 -0.4138
vn -0.9016 -0.0544 -0.4291
vn -0.3989 0.1695 0.9012
vn -0.1658 0.1250 0.9782
vn -0.8537 -0.4602 -0.2437
vn -0.0101 0.1655 0.9862
vn 0.1929 -0.2958 -0.9356
vn -0.9951 -0.0986 0.0002
vn -0.8350 -0.0443 0.5485
vn -0.9228 0.0459 -0.3825
vn 0.0134 0.3318 -0.9433
vn -0.0853 0.2035 -0.9754
vn 0.0054 0.6375 -0.7705
vn -0.9623 0.0209 -0.2713
vn 0.7152 0.6902 -0.1098
vn -0.9599 0.1743 -0.2197
vn -0.9557 0.2928 0.0286
vn -0.9896 -0.0104 0.1434
vn -0.9892 0.1375 -0.0499
vn -0.9465 0.2888 -0.1437
vn 0.5926 0.5701 0.5691
vn 0.0386 0.7945 -0.6060
vn 0.5297 0.8477 0.0285
vn 0.2577 0.3730 -0.8913
vn 0.0975 0.5380 -0.8373
vn 0.7888 0.0732 0.6103
vn 0.0389 0.7948 -0.6056
vn 0.5261 0.8493 0.0432
vn 0.3778 0.5936 0.7105
vn 0.7830 0.1581 0.6016
vn 0.5822 0.7078 -0.4000
vn 0.9808 -0.1336 0.1420
vn 0.6234 0.6980 -0.3524
vn 0.3703 0.0218 0.9287
vn 0.4559 0.1813 0.8714
vn 0.8168 0.4093 0.4066
vn 0.2514 0.3388 0.9066
vn 0.0048 0.4278 -0.9038
vn 0.1630 0.1744 -0.9711
vn 0.9617 -0.0274 -0.2726
vn 0.7074 -0.4085 -0.5769
vn 0.8350 -0.0443 0.5485
vn 0.9959 -0.0900 0.0006
vn -0.0262 -0.1778 -0.9837
vn -0.0140 0.2947 -0.9555
vn 0.0484 0.2460 -0.9681
vn 0.0055 0.3017 -0.9534
vn 0.9611 -0.0309 -0.2744
vn -0.3249 0.4369 -0.8388
vn 0.5772 0.7478 -0.3282
vn 0.9814 0.1901 0.0271
vn 0.9923 0.1220 -0.0232
vn 0.9916 0.1269 -0.0256
vn 0.9402 0.3370 -0.0494
vn 0.9434 0.3286 -0.0455
vn -0.7777 0.0858 0.6228
vn -0.0636 0.7578 -0.6493
vn -0.9994 0.0352 -0.0005
vn 0.2055 -0.2742 -0.9395
vn -0.9143 0.0867 0.3956
vn -0.9422 0.0810 -0.3252
vn 0.0038 0.3310 -0.9436
vn -0.1301 0.2389 -0.9623
vn 0.7889 0.6124 -0.0520
vn 0.0009 0.8061 -0.5917
vn 0.7772 0.0773 0.6245
vn 0.5294 0.5756 -0.6233
vn 0.9994 0.0341 0.0113
vn 0.9154 0.0892 0.3924
vt 0.717776 0.779637
vt 0.762247 0.772526
vt 0.692646 0.731205
vt 0.116427 0.043987
vt 0.122988 0.071409
vt 0.180363 0.000726
vt 0.712881 0.679153
vt 0.769060 0.662958
vt 0.677835 0.609950
vt 0.791214 0.564781
vt 0.687647 0.549575
vt 0.829783 0.597877
vt 0.129482 0.122530
vt 0.131033 0.209013
vt 0.105915 0.296955
vt 0.051950 0.090678
vt 0.445526 0.590223
vt 0.578026 0.677187
vt 0.283206 0.705736
vt 0.251973 0.725607
vt 0.217208 0.700554
vt 0.271171 0.766423
vt 0.218716 0.762279
vt 0.927534 0.787501
vt 0.975623 0.759492
vt 0.908054 0.745702
vt 0.140811 0.345612
vt 0.126120 0.451838
vt 0.035441 0.274038
vt 0.018820 0.376131
vt 0.010607 0.320810
vt 0.263914 0.836287
vt 0.222731 0.831610
vt 0.253495 0.893605
vt 0.082210 0.402414
vt 0.135086 0.383402
vt 0.816297 0.712554
vt 0.830792 0.610375
vt 0.831244 0.601816
vt 0.898640 0.629075
vt 0.138609 -0.000000
vt 0.687527 0.547812
vt 0.719819 0.580731
vt 0.678583 0.606733
vt 0.829783 0.567570
vt 0.852167 0.554832
vt 0.724756 0.519233
vt 0.795452 0.571437
vt 0.918334 0.526647
vt 0.941353 0.585898
vt 0.918994 0.614740
vt 0.762364 0.665093
vt 0.699807 0.661940
vt 0.125107 0.679789
vt 0.256404 0.637280
vt 0.070807 0.649518
vt 0.054199 0.091883
vt 0.816409 0.712551
vt 0.723393 0.685662
vt 0.217295 0.700566
vt 0.975289 0.759354
vt 0.943404 0.795970
vt 0.913501 0.745935
vt 0.107016 0.293680
vt 0.073289 0.457005
vt 0.127260 0.385179
vt 0.096245 0.381704
vt 0.018820 0.376131
vt 0.143618 0.377877
vt 0.232138 0.791044
vt 0.979302 0.824391
vt 0.968786 0.868397
vt 0.025144 0.389158
vt 0.083595 0.398829
vt 0.909897 0.911023
vt 0.905867 0.850904
vt 0.189279 0.394688
vt 0.011714 0.443982
vt 0.396918 0.393576
vt 0.063496 0.567312
vt 0.855267 0.559406
vt 0.138637 -0.000000
vt 0.724570 0.519289
vt 0.676535 0.528137
vt 0.660932 0.641764
vt 0.941280 0.586024
vt 0.946266 0.515440
vt 0.918949 0.614295
vt 0.889792 0.534773
vt 0.064467 0.050188
vt 0.033987 0.283237
vt 0.275176 0.672059
vt 0.304462 0.645311
vt 0.011464 0.579711
vt 0.005027 0.626219
vt 0.344160 0.665896
vt 0.353896 0.615618
vt 0.317996 0.614488
vt 0.978227 0.817590
vt 0.063962 0.566018
vt 0.096302 0.381345
vt 0.134669 0.377556
vt 0.921443 0.853446
vt 0.969153 0.868445
vt 0.005443 0.670415
vt 0.055374 0.687937
vt 0.000000 0.700517
vt 0.011733 0.443893
vt 0.024114 0.392059
vt 0.211317 0.887183
vt 0.962098 0.924531
vt 0.660929 0.641772
vt 0.717761 0.779608
vt 0.730767 0.712672
vt 0.790693 0.826787
vt 0.892386 0.527267
vt 0.579913 0.613177
vt 0.098624 0.667885
vt 0.070601 0.649842
vt 0.731454 0.818081
vt 0.062517 0.051624
vt 0.256702 0.628183
vt 0.273467 0.672278
vt 0.011486 0.581375
vt 0.025346 0.278465
vt 0.317996 0.614488
vt 0.344664 0.665914
vt 0.907748 0.778275
vt 0.254015 0.893602
vt 0.907259 0.626221
vt 0.727097 0.817150
vt 0.692785 0.731439
s 0
usemtl Material.004
f 1/1/1 2/2/1 10/3/1
f 19/4/2 16/5/2 15/6/2
f 13/7/3 18/8/3 5/9/3
f 18/8/4 9/10/4 6/11/4
f 9/10/5 18/8/5 8/12/5
f 16/5/6 19/4/6 20/13/6
f 16/5/7 20/13/7 63/14/7
f 21/15/8 63/14/8 20/13/8
f 19/4/9 22/16/9 20/13/9
f 23/17/10 2/2/10 44/18/10
f 3/19/11 66/20/11 1/21/11
f 66/20/12 72/22/12 28/23/12
f 28/24/13 44/25/13 66/26/13
f 45/27/14 7/28/14 35/29/14
f 32/30/15 21/15/15 27/31/15
f 72/22/16 82/32/16 36/33/16
f 72/22/17 36/33/17 28/23/17
f 82/32/18 38/34/18 36/33/18
f 42/35/19 7/28/19 43/36/19
f 45/27/20 23/37/20 44/18/20
f 18/8/21 45/27/21 8/12/21
f 4/38/22 49/39/22 12/40/22
f 15/6/23 16/5/23 62/41/23
f 50/42/24 53/43/24 51/44/24
f 49/39/25 57/45/25 59/46/25
f 16/47/26 60/48/26 50/42/26
f 56/49/27 55/50/27 58/51/27
f 61/52/28 59/53/28 53/43/28
f 26/54/29 8/55/29 25/56/29
f 64/57/30 16/5/30 63/14/30
f 61/52/31 65/58/31 59/59/31
f 66/20/32 3/19/32 46/60/32
f 47/61/33 73/62/33 66/63/33
f 75/64/34 81/65/34 74/66/34
f 71/67/35 79/68/35 70/31/35
f 21/15/36 80/69/36 71/67/36
f 73/70/37 82/32/37 72/22/37
f 74/71/38 83/72/38 73/62/38
f 81/65/39 87/73/39 83/74/39
f 83/72/40 86/75/40 82/76/40
f 75/64/41 74/66/41 47/77/41
f 81/65/42 84/78/42 87/73/42
f 48/79/43 75/64/43 47/77/43
f 65/58/44 75/64/44 48/79/44
f 81/65/45 75/64/45 69/80/45
f 13/81/46 17/45/46 4/38/46
f 15/6/47 14/82/47 19/4/47
f 6/11/48 19/83/48 14/84/48
f 13/7/49 5/9/49 17/85/49
f 10/86/50 2/87/50 11/88/50
f 19/83/51 6/11/51 9/10/51
f 6/11/52 5/9/52 18/8/52
f 13/89/53 11/88/53 2/87/53
f 9/90/54 22/16/54 19/4/54
f 22/16/55 21/15/55 20/13/55
f 26/91/56 21/15/56 22/16/56
f 22/92/57 9/93/57 8/55/57
f 1/1/58 44/18/58 2/2/58
f 18/8/59 13/7/59 23/17/59
f 13/7/60 2/2/60 23/17/60
f 25/56/61 29/94/61 30/95/61
f 21/15/62 71/67/62 63/14/62
f 25/96/63 27/97/63 26/98/63
f 27/31/64 21/15/64 26/91/64
f 28/24/65 43/99/65 44/25/65
f 44/18/66 43/36/66 7/28/66
f 35/29/67 29/94/67 24/100/67
f 32/30/68 33/101/68 21/15/68
f 33/101/69 34/102/69 21/15/69
f 42/35/70 35/29/70 7/28/70
f 34/102/71 80/69/71 21/15/71
f 43/99/72 36/103/72 42/104/72
f 30/95/73 31/105/73 25/56/73
f 27/106/74 31/105/74 32/107/74
f 37/108/75 42/35/75 41/109/75
f 36/33/76 38/34/76 39/110/76
f 42/104/77 39/75/77 41/111/77
f 13/81/78 12/40/78 11/88/78
f 37/108/79 29/94/79 35/29/79
f 51/44/80 59/53/80 57/112/80
f 44/18/81 7/28/81 45/27/81
f 24/100/82 25/56/82 35/29/82
f 8/55/83 45/27/83 35/29/83
f 35/29/84 25/56/84 8/55/84
f 18/8/85 23/17/85 45/27/85
f 62/84/86 16/47/86 50/42/86
f 46/113/87 56/114/87 47/115/87
f 50/42/88 60/48/88 53/43/88
f 58/51/89 49/39/89 59/116/89
f 58/51/90 59/116/90 56/49/90
f 52/117/91 68/118/91 67/119/91
f 66/120/92 46/113/92 47/115/92
f 60/48/93 61/52/93 53/43/93
f 16/5/94 64/57/94 60/121/94
f 52/122/95 60/93/95 64/123/95
f 56/114/96 65/58/96 48/79/96
f 76/124/97 67/119/97 77/95/97
f 56/114/98 48/79/98 47/115/98
f 64/57/99 63/14/99 68/125/99
f 68/125/100 63/14/100 71/67/100
f 68/126/101 70/97/101 67/127/101
f 68/125/102 71/67/102 70/31/102
f 66/63/103 73/62/103 72/128/103
f 47/61/104 74/71/104 73/62/104
f 69/80/105 76/124/105 81/65/105
f 74/66/106 81/65/106 83/74/106
f 78/105/107 70/106/107 79/107/107
f 67/119/108 78/105/108 77/95/108
f 73/62/109 83/72/109 82/76/109
f 86/110/110 85/129/110 82/32/110
f 83/72/111 87/111/111 86/75/111
f 82/32/112 85/129/112 38/34/112
f 81/65/113 76/124/113 84/78/113
f 49/39/114 58/51/114 12/40/114
f 58/51/115 54/130/115 12/40/115
f 69/80/116 75/64/116 67/119/116
f 52/117/117 67/119/117 75/64/117
f 75/64/118 65/58/118 52/117/118
f 52/117/119 65/58/119 60/48/119
f 61/52/120 60/48/120 65/58/120
f 26/54/121 22/92/121 8/55/121
f 1/1/122 66/131/122 44/18/122
f 25/56/123 24/100/123 29/94/123
f 43/99/124 28/24/124 36/103/124
f 27/106/125 25/56/125 31/105/125
f 37/108/126 35/29/126 42/35/126
f 42/104/127 36/103/127 39/75/127
f 13/81/128 4/38/128 12/40/128
f 51/44/129 53/43/129 59/53/129
f 46/113/130 55/132/130 56/114/130
f 52/117/131 64/123/131 68/118/131
f 56/114/132 59/59/132 65/58/132
f 76/124/133 69/80/133 67/119/133
f 78/105/134 67/119/134 70/106/134
