# Blender 4.1.1
# www.blender.org
mtllib RightThigh.mtl
o 右もも
v 0.070502 0.756584 -0.041868
v 0.051369 0.745312 -0.001877
v 0.068910 0.748258 0.040362
v 0.143512 0.778891 0.026621
v 0.111903 0.773584 -0.049494
v 0.144395 0.783512 -0.019012
v 0.109917 0.763202 0.053045
v 0.123442 0.615819 -0.010889
v 0.122808 0.615289 0.021882
v 0.056659 0.611435 0.001507
v 0.070395 0.612728 -0.027231
v 0.100116 0.614680 -0.032748
v 0.069252 0.611773 0.031823
v 0.098691 0.613488 0.040890
v 0.137951 0.667648 -0.016100
v 0.147815 0.736754 -0.020017
v 0.137077 0.665527 0.028959
v 0.146812 0.732512 0.031713
v 0.046036 0.650111 0.000595
v 0.042290 0.701680 -0.000864
v 0.064941 0.655286 -0.038847
v 0.063995 0.712029 -0.046142
v 0.110958 0.727638 -0.054666
v 0.105847 0.663090 -0.046277
v 0.062189 0.704385 0.047072
v 0.063368 0.651464 0.042348
v 0.108705 0.718106 0.061570
v 0.103885 0.658324 0.054971
v 0.061902 0.754380 -0.021538
v 0.061122 0.750259 0.018758
v 0.089812 0.759114 0.045666
v 0.143262 0.784332 0.003613
v 0.091565 0.768375 -0.044878
v 0.127774 0.781705 -0.033683
v 0.126368 0.774278 0.038926
v 0.150673 0.768292 -0.021593
v 0.149645 0.763255 0.031469
v 0.042472 0.726642 -0.001781
v 0.064727 0.738932 -0.048260
v 0.103145 0.632860 -0.041524
v 0.064732 0.626674 0.038745
v 0.101371 0.630324 0.050086
v 0.110966 0.611698 -0.021056
v 0.121959 0.611957 0.005407
v 0.063663 0.608608 0.016247
v 0.084024 0.609478 0.035320
v 0.109968 0.610969 0.030495
v 0.064217 0.609013 -0.012363
v 0.085269 0.610388 -0.028965
v 0.132177 0.635285 -0.014282
v 0.142883 0.702201 -0.017848
v 0.131387 0.634157 0.026488
v 0.141945 0.699019 0.030538
v 0.049059 0.625955 0.001002
v 0.044163 0.675896 0.000001
v 0.066154 0.628708 -0.034722
v 0.064468 0.683657 -0.042337
v 0.112881 0.757468 -0.057077
v 0.108402 0.695364 -0.050280
v 0.062875 0.729854 0.047358
v 0.062778 0.677924 0.044851
v 0.110571 0.746148 0.062155
v 0.106295 0.688215 0.058442
v 0.086393 0.719922 -0.056117
v 0.084451 0.659232 -0.047538
v 0.048364 0.705546 -0.026320
v 0.051327 0.652044 -0.021579
v 0.131012 0.725986 0.051375
v 0.123315 0.662264 0.046087
v 0.084145 0.710409 0.059881
v 0.082493 0.654476 0.053502
v 0.047364 0.701312 0.025304
v 0.050455 0.649927 0.023388
v 0.152671 0.736314 0.006191
v 0.142181 0.667428 0.006727
v 0.132814 0.733615 -0.041648
v 0.124885 0.666079 -0.034940
v 0.120162 0.634080 -0.031077
v 0.135700 0.634790 0.006343
v 0.053294 0.625586 0.021498
v 0.082077 0.627978 0.048504
v 0.118751 0.632074 0.041759
v 0.054077 0.626699 -0.018924
v 0.083836 0.630479 -0.042323
v 0.087777 0.748625 -0.058198
v 0.085422 0.689577 -0.051652
v 0.049004 0.731635 -0.027746
v 0.049845 0.678795 -0.023806
v 0.133267 0.755791 0.051365
v 0.127163 0.694125 0.048919
v 0.085485 0.737382 0.060116
v 0.083319 0.682442 0.056846
v 0.047984 0.726632 0.024909
v 0.048909 0.675620 0.024481
v 0.155350 0.767996 0.005247
v 0.147426 0.701871 0.006669
v 0.135105 0.764807 -0.043513
v 0.128849 0.699847 -0.038090
v 0.100714 0.775626 0.000659
v 0.090982 0.602168 0.003531
vn 0.8157 -0.1765 -0.5510
vn 0.7504 -0.4249 -0.5063
vn 0.4918 -0.4436 -0.7493
vn 0.5240 -0.1779 -0.8330
vn 0.9598 -0.1930 0.2038
vn 0.8796 -0.4426 0.1744
vn 0.8894 -0.4274 -0.1622
vn 0.9664 -0.1826 -0.1808
vn -0.9749 -0.1188 0.1881
vn -0.8751 -0.4521 0.1727
vn -0.7272 -0.4580 0.5112
vn -0.8150 -0.1270 0.5654
vn -0.4793 -0.1554 0.8638
vn -0.4014 -0.4832 0.7781
vn -0.0140 -0.4776 0.8785
vn -0.0373 -0.1685 0.9850
vn 0.4400 -0.1923 0.8772
vn 0.4169 -0.4859 0.7681
vn 0.7156 -0.4548 0.5301
vn 0.7828 -0.1887 0.5930
vn -0.7661 -0.1326 -0.6289
vn -0.6803 -0.4513 -0.5775
vn -0.8582 -0.4573 -0.2332
vn -0.9619 -0.1296 -0.2408
vn 0.0872 -0.1624 -0.9829
vn 0.0918 -0.4452 -0.8907
vn -0.3086 -0.4696 -0.8272
vn -0.3750 -0.1577 -0.9135
vn -0.2979 0.3916 -0.8706
vn 0.0743 -0.0851 -0.9936
vn -0.3781 -0.0488 -0.9245
vn -0.4167 0.5619 -0.7146
vn 0.1027 -0.1419 -0.9845
vn 0.0916 -0.1297 -0.9873
vn -0.3769 -0.1126 -0.9194
vn -0.3669 -0.1239 -0.9220
vn -0.8598 0.3974 -0.3206
vn -0.7888 -0.0269 -0.6141
vn -0.9702 0.0106 -0.2420
vn -0.8274 0.5242 -0.2015
vn -0.7656 -0.0981 -0.6358
vn -0.7701 -0.0905 -0.6314
vn -0.9680 -0.0736 -0.2400
vn -0.9672 -0.0763 -0.2424
vn 0.2459 0.6026 0.7592
vn 0.4405 -0.0331 0.8971
vn 0.7825 -0.0672 0.6190
vn 0.4514 0.4210 0.7868
vn 0.4480 -0.1224 0.8856
vn 0.4422 -0.1323 0.8871
vn 0.7895 -0.1429 0.5969
vn 0.7938 -0.1362 0.5927
vn -0.4630 0.5528 0.6928
vn -0.4957 0.0171 0.8684
vn -0.0755 -0.0158 0.9970
vn -0.3867 0.4229 0.8195
vn -0.4858 -0.0801 0.8704
vn -0.4875 -0.0894 0.8685
vn -0.0408 -0.1120 0.9929
vn -0.0367 -0.1011 0.9942
vn -0.8136 0.5201 0.2599
vn -0.9792 0.0146 0.2022
vn -0.8343 0.0163 0.5511
vn -0.7853 0.5229 0.3315
vn -0.9798 -0.0648 0.1890
vn -0.9797 -0.0668 0.1892
vn -0.8207 -0.0719 0.5669
vn -0.8204 -0.0660 0.5680
vn 0.7903 0.5981 0.1329
vn 0.9771 -0.0767 0.1987
vn 0.9803 -0.0974 -0.1719
vn 0.8028 0.5959 0.0186
vn 0.9689 -0.1448 0.2008
vn 0.9677 -0.1470 0.2047
vn 0.9721 -0.1480 -0.1821
vn 0.9717 -0.1502 -0.1826
vn 0.5931 0.3663 -0.7170
vn 0.8186 -0.1024 -0.5651
vn 0.5403 -0.0897 -0.8367
vn 0.4027 0.5845 -0.7044
vn 0.8224 -0.1518 -0.5483
vn 0.8209 -0.1451 -0.5523
vn 0.5295 -0.1402 -0.8366
vn 0.5359 -0.1505 -0.8307
vn -0.5692 0.8189 0.0727
vn -0.4959 0.8299 0.2556
vn -0.3059 0.8889 0.3410
vn -0.1608 0.9767 0.1422
vn -0.1972 0.9793 -0.0454
vn -0.2848 0.9383 -0.1960
vn -0.4978 0.8593 -0.1175
vn 0.1646 -0.9084 -0.3844
vn 0.4316 -0.8858 -0.1706
vn 0.4098 -0.8979 0.1605
vn 0.1191 -0.9276 0.3541
vn -0.2092 -0.9409 0.2662
vn -0.3380 -0.9409 -0.0199
vn -0.1829 -0.9332 -0.3092
vn 0.8053 -0.1868 -0.5627
vn 0.6367 -0.5175 -0.5716
vn 0.5565 -0.5191 -0.6488
vn 0.5241 -0.1778 -0.8329
vn 0.9612 -0.1901 0.1998
vn 0.8541 -0.5165 0.0605
vn 0.8568 -0.5138 -0.0438
vn 0.9670 -0.1900 -0.1698
vn -0.9716 -0.1287 0.1985
vn -0.7843 -0.5609 0.2651
vn -0.7335 -0.5649 0.3780
vn -0.8213 -0.1388 0.5534
vn -0.4759 -0.1521 0.8662
vn -0.2719 -0.5773 0.7699
vn -0.1436 -0.5843 0.7987
vn -0.0581 -0.1842 0.9812
vn 0.4397 -0.1925 0.8773
vn 0.4902 -0.5603 0.6677
vn 0.5836 -0.5578 0.5901
vn 0.7678 -0.2032 0.6076
vn -0.7764 -0.1484 -0.6125
vn -0.7032 -0.5638 -0.4331
vn -0.7659 -0.5578 -0.3199
vn -0.9611 -0.1244 -0.2467
vn 0.0628 -0.1794 -0.9818
vn -0.0509 -0.5555 -0.8300
vn -0.1818 -0.5534 -0.8128
vn -0.3765 -0.1589 -0.9127
vn -0.1661 0.5731 -0.8025
vn 0.0826 -0.0760 -0.9937
vn -0.3878 -0.0618 -0.9197
vn -0.5045 0.4351 -0.7458
vn 0.0960 -0.1479 -0.9843
vn 0.0828 -0.1365 -0.9872
vn -0.3838 -0.1190 -0.9157
vn -0.3720 -0.1295 -0.9191
vn -0.7526 0.5325 -0.3874
vn -0.7828 -0.0148 -0.6221
vn -0.9726 -0.0015 -0.2323
vn -0.8937 0.4251 -0.1431
vn -0.7678 -0.1020 -0.6326
vn -0.7730 -0.0950 -0.6273
vn -0.9684 -0.0758 -0.2376
vn -0.9675 -0.0783 -0.2405
vn 0.2100 0.4669 0.8590
vn 0.4290 -0.0474 0.9021
vn 0.7876 -0.0594 0.6133
vn 0.4881 0.6053 0.6288
vn 0.4416 -0.1285 0.8880
vn 0.4349 -0.1384 0.8898
vn 0.7845 -0.1483 0.6021
vn 0.7895 -0.1414 0.5973
vn -0.5478 0.4482 0.7064
vn -0.5047 0.0039 0.8633
vn -0.0669 -0.0054 0.9977
vn -0.2624 0.5700 0.7786
vn -0.4887 -0.0838 0.8684
vn -0.4907 -0.0929 0.8664
vn -0.0470 -0.1172 0.9920
vn -0.0422 -0.1066 0.9934
vn -0.8871 0.4236 0.1834
vn -0.9813 0.0270 0.1906
vn -0.8281 0.0290 0.5598
vn -0.7799 0.4290 0.4557
vn -0.9798 -0.0650 0.1892
vn -0.9796 -0.0670 0.1894
vn -0.8215 -0.0735 0.5654
vn -0.8212 -0.0676 0.5667
vn 0.8669 0.4222 0.2650
vn 0.9736 -0.0880 0.2104
vn 0.9792 -0.0882 -0.1829
vn 0.9041 0.3989 -0.1531
vn 0.9676 -0.1478 0.2045
vn 0.9663 -0.1503 0.2090
vn 0.9721 -0.1484 -0.1816
vn 0.9717 -0.1505 -0.1821
vn 0.6192 0.5779 -0.5316
vn 0.8244 -0.0939 -0.5581
vn 0.5295 -0.1022 -0.8421
vn 0.3708 0.4137 -0.8314
vn 0.8203 -0.1543 -0.5507
vn 0.8184 -0.1479 -0.5553
vn 0.5230 -0.1456 -0.8398
vn 0.5308 -0.1553 -0.8332
vn -0.5125 0.8552 0.0775
vn -0.4596 0.8640 0.2056
vn -0.3304 0.9092 0.2535
vn -0.2103 0.9509 0.2271
vn -0.1542 0.9866 0.0531
vn -0.3207 0.9433 -0.0858
vn -0.4577 0.8877 -0.0494
vn 0.1301 -0.9555 -0.2646
vn 0.3057 -0.9448 -0.1178
vn 0.2940 -0.9502 0.1031
vn 0.1008 -0.9646 0.2439
vn -0.1392 -0.9713 0.1929
vn -0.2375 -0.9712 -0.0183
vn -0.1140 -0.9677 -0.2248
vt 0.312765 0.588033
vt 0.312694 0.595378
vt 0.312759 0.587915
vt 0.312800 0.588665
vt 0.312705 0.595277
vt 0.312693 0.601104
vt 0.312639 0.602567
vt 0.312629 0.602841
vt 0.312888 0.572989
vt 0.312829 0.580798
vt 0.312823 0.580452
vt 0.312888 0.572989
vt 0.313647 0.603053
vt 0.313607 0.593733
vt 0.313938 0.603989
vt 0.313939 0.603989
vt 0.313578 0.593639
vt 0.313276 0.583477
vt 0.313276 0.583477
vt 0.313169 0.581036
vt 0.313175 0.580764
vt 0.313071 0.577943
vt 0.313071 0.577944
vt 0.313071 0.577943
vt 0.313071 0.577943
vt 0.312980 0.575466
vt 0.312888 0.572989
vt 0.312500 0.617767
vt 0.313219 0.610878
vt 0.312500 0.617767
vt 0.313190 0.610784
vt 0.312570 0.610204
vt 0.312578 0.609775
vt 0.312500 0.617767
vt 0.312639 0.602567
vt 0.312692 0.605781
vt 0.312693 0.601104
vt 0.312629 0.602841
vt 0.312565 0.610304
vt 0.312500 0.617767
vt 0.312500 0.617767
vt 0.312586 0.609905
vt 0.312718 0.613780
vt 0.312500 0.617767
vt 0.313219 0.610878
vt 0.313183 0.610761
vt 0.313181 0.610638
vt 0.313618 0.602960
vt 0.313939 0.603988
vt 0.313205 0.610362
vt 0.313618 0.602960
vt 0.313588 0.602867
vt 0.312980 0.575937
vt 0.312987 0.579517
vt 0.312980 0.575466
vt 0.312888 0.572989
vt 0.312888 0.572989
vt 0.312980 0.575474
vt 0.313074 0.578024
vt 0.313182 0.580970
vt 0.313174 0.580711
vt 0.313346 0.585766
vt 0.313183 0.581024
vt 0.313352 0.585974
vt 0.313182 0.580978
vt 0.313346 0.585766
vt 0.313579 0.593876
vt 0.313607 0.593733
vt 0.313573 0.593905
vt 0.313579 0.593876
vt 0.312823 0.580452
vt 0.312823 0.580452
vt 0.312759 0.587915
vt 0.312759 0.587915
vt 0.312823 0.580452
vt 0.312759 0.587915
vt 0.312772 0.594467
vt 0.312704 0.595263
vt 0.312694 0.595378
vt 0.313939 0.603989
vt 0.313607 0.593733
vt 0.312987 0.579517
vt 0.313019 0.592357
vt 0.312823 0.580452
vt 0.312772 0.594467
vt 0.312776 0.594606
vt 0.312871 0.583422
vt 0.312776 0.594606
vt 0.312980 0.575466
vt 0.313144 0.583528
vt 0.313144 0.583528
vt 0.313939 0.603989
vt 0.312772 0.594467
vt 0.313019 0.592443
s 0
usemtl Material.006
f 50/1/1 77/2/1 15/3/1
f 8/4/2 78/5/2 50/1/2
f 78/5/3 12/6/3 40/7/3
f 78/5/4 24/8/4 77/2/4
f 17/9/5 79/10/5 75/11/5
f 9/9/6 79/10/6 52/12/6
f 79/10/7 8/4/7 50/1/7
f 75/11/8 50/1/8 15/3/8
f 54/13/9 73/14/9 19/15/9
f 10/16/10 80/17/10 54/13/10
f 80/17/11 13/18/11 41/18/11
f 73/14/12 41/18/12 26/18/12
f 26/19/13 81/20/13 71/21/13
f 13/19/14 81/20/14 41/18/14
f 81/20/15 14/22/15 42/23/15
f 71/21/16 42/23/16 28/24/16
f 28/25/17 82/26/17 69/26/17
f 14/23/18 82/26/18 42/23/18
f 82/26/19 9/27/19 52/12/19
f 69/26/20 52/12/20 17/9/20
f 56/28/21 67/29/21 21/30/21
f 11/30/22 83/31/22 56/28/22
f 83/31/23 10/16/23 54/13/23
f 83/31/24 19/15/24 67/29/24
f 40/7/25 65/32/25 24/8/25
f 12/6/26 84/33/26 40/7/26
f 84/33/27 11/34/27 56/28/27
f 84/33/28 21/34/28 65/32/28
f 58/35/29 33/36/29 5/37/29
f 23/38/30 85/33/30 58/35/30
f 64/39/31 39/40/31 85/33/31
f 85/33/32 1/41/32 33/36/32
f 59/38/33 64/39/33 23/38/33
f 24/8/34 86/42/34 59/38/34
f 65/32/35 57/43/35 86/42/35
f 86/42/36 22/44/36 64/39/36
f 39/40/37 29/45/37 1/40/37
f 22/44/38 87/46/38 39/40/38
f 66/47/39 38/48/39 87/46/39
f 87/46/40 2/49/40 29/45/40
f 57/43/41 66/47/41 22/44/41
f 21/34/42 88/50/42 57/43/42
f 67/29/43 55/51/43 88/50/43
f 88/50/44 20/52/44 66/47/44
f 7/22/45 89/53/45 35/54/45
f 62/23/46 68/55/46 89/53/46
f 89/53/47 18/56/47 37/12/47
f 35/54/48 37/12/48 4/57/48
f 27/22/49 90/58/49 68/55/49
f 63/59/50 69/26/50 90/58/50
f 90/58/51 17/9/51 53/12/51
f 68/55/52 53/12/52 18/56/52
f 3/19/53 91/60/53 31/61/53
f 60/62/54 70/63/54 91/60/54
f 91/60/55 27/22/55 62/23/55
f 31/61/56 62/23/56 7/23/56
f 25/64/57 92/65/57 70/63/57
f 61/66/58 71/21/58 92/65/58
f 92/65/59 28/24/59 63/59/59
f 70/63/60 63/59/60 27/22/60
f 2/49/61 93/67/61 30/68/61
f 20/52/62 93/67/62 38/48/62
f 93/67/63 25/64/63 60/62/63
f 93/67/64 3/19/64 30/68/64
f 55/51/65 72/69/65 20/52/65
f 19/15/66 94/70/66 55/51/66
f 94/70/67 26/19/67 61/66/67
f 72/69/68 61/66/68 25/64/68
f 4/9/69 95/11/69 32/71/69
f 37/12/70 74/72/70 95/11/70
f 95/11/71 16/73/71 36/73/71
f 95/11/72 6/74/72 32/71/72
f 18/56/73 96/75/73 74/72/73
f 53/12/74 75/11/74 96/75/74
f 96/75/75 15/76/75 51/73/75
f 74/72/76 51/73/76 16/73/76
f 36/73/77 34/77/77 6/76/77
f 16/73/78 97/78/78 36/73/78
f 76/79/79 58/35/79 97/78/79
f 97/78/80 5/37/80 34/77/80
f 51/73/81 76/79/81 16/73/81
f 15/3/82 98/79/82 51/73/82
f 77/2/83 59/38/83 98/79/83
f 98/79/84 23/38/84 76/79/84
f 30/68/85 29/45/85 2/80/85
f 31/61/86 30/81/86 3/18/86
f 35/82/87 31/61/87 7/22/87
f 4/57/88 99/83/88 35/54/88
f 6/76/89 99/83/89 32/84/89
f 33/36/90 34/85/90 5/37/90
f 29/45/91 33/36/91 1/41/91
f 43/86/92 49/36/92 12/6/92
f 44/87/93 43/88/93 8/4/93
f 47/89/94 44/87/94 9/9/94
f 46/90/95 47/89/95 14/22/95
f 45/81/96 46/91/96 13/19/96
f 48/45/97 45/68/97 10/92/97
f 49/36/98 48/45/98 11/34/98
f 50/1/99 78/5/99 77/2/99
f 8/4/100 43/88/100 78/5/100
f 78/5/101 43/88/101 12/6/101
f 78/5/102 40/7/102 24/8/102
f 17/9/103 52/12/103 79/10/103
f 9/9/104 44/87/104 79/10/104
f 79/10/105 44/87/105 8/4/105
f 75/11/106 79/10/106 50/1/106
f 54/13/107 80/17/107 73/14/107
f 10/16/108 45/68/108 80/17/108
f 80/17/109 45/68/109 13/18/109
f 73/14/110 80/17/110 41/18/110
f 26/19/111 41/18/111 81/20/111
f 13/19/112 46/91/112 81/20/112
f 81/20/113 46/91/113 14/22/113
f 71/21/114 81/20/114 42/23/114
f 28/25/115 42/23/115 82/26/115
f 14/23/116 47/89/116 82/26/116
f 82/26/117 47/89/117 9/27/117
f 69/26/118 82/26/118 52/12/118
f 56/28/119 83/31/119 67/29/119
f 11/30/120 48/45/120 83/31/120
f 83/31/121 48/45/121 10/16/121
f 83/31/122 54/13/122 19/15/122
f 40/7/123 84/33/123 65/32/123
f 12/6/124 49/36/124 84/33/124
f 84/33/125 49/36/125 11/34/125
f 84/33/126 56/28/126 21/34/126
f 58/35/127 85/33/127 33/36/127
f 23/38/128 64/39/128 85/33/128
f 64/39/129 22/41/129 39/40/129
f 85/33/130 39/40/130 1/41/130
f 59/38/131 86/42/131 64/39/131
f 24/8/132 65/32/132 86/42/132
f 65/32/133 21/34/133 57/43/133
f 86/42/134 57/43/134 22/44/134
f 39/40/135 87/46/135 29/45/135
f 22/44/136 66/47/136 87/46/136
f 66/47/137 20/52/137 38/48/137
f 87/46/138 38/48/138 2/49/138
f 57/43/139 88/50/139 66/47/139
f 21/34/140 67/29/140 88/50/140
f 67/29/141 19/15/141 55/51/141
f 88/50/142 55/51/142 20/52/142
f 7/22/143 62/23/143 89/53/143
f 62/23/144 27/23/144 68/55/144
f 89/53/145 68/55/145 18/56/145
f 35/54/146 89/53/146 37/12/146
f 27/22/147 63/59/147 90/58/147
f 63/59/148 28/24/148 69/26/148
f 90/58/149 69/26/149 17/9/149
f 68/55/150 90/58/150 53/12/150
f 3/19/151 60/62/151 91/60/151
f 60/62/152 25/64/152 70/63/152
f 91/60/153 70/63/153 27/22/153
f 31/61/154 91/60/154 62/23/154
f 25/64/155 61/66/155 92/65/155
f 61/66/156 26/19/156 71/21/156
f 92/65/157 71/21/157 28/24/157
f 70/63/158 92/65/158 63/59/158
f 2/49/159 38/48/159 93/67/159
f 20/52/160 72/69/160 93/67/160
f 93/67/161 72/69/161 25/64/161
f 93/67/162 60/62/162 3/19/162
f 55/51/163 94/70/163 72/69/163
f 19/15/164 73/14/164 94/70/164
f 94/70/165 73/14/165 26/19/165
f 72/69/166 94/70/166 61/66/166
f 4/9/167 37/12/167 95/11/167
f 37/12/168 18/56/168 74/72/168
f 95/11/169 74/72/169 16/73/169
f 95/11/170 36/73/170 6/74/170
f 18/56/171 53/12/171 96/75/171
f 53/12/172 17/9/172 75/11/172
f 96/75/173 75/11/173 15/76/173
f 74/72/174 96/75/174 51/73/174
f 36/73/175 97/78/175 34/77/175
f 16/73/176 76/79/176 97/78/176
f 76/79/177 23/38/177 58/35/177
f 97/78/178 58/35/178 5/37/178
f 51/73/179 98/79/179 76/79/179
f 15/3/180 77/2/180 98/79/180
f 77/2/181 24/8/181 59/38/181
f 98/79/182 59/38/182 23/38/182
f 30/68/183 99/83/183 29/45/183
f 31/61/184 99/83/184 30/81/184
f 35/82/185 99/83/185 31/61/185
f 4/57/186 32/71/186 99/83/186
f 6/76/187 34/93/187 99/83/187
f 33/36/188 99/83/188 34/85/188
f 29/45/189 99/83/189 33/36/189
f 43/86/190 100/94/190 49/36/190
f 44/87/191 100/94/191 43/88/191
f 47/89/192 100/94/192 44/87/192
f 46/90/193 100/94/193 47/89/193
f 45/81/194 100/94/194 46/91/194
f 48/45/195 100/94/195 45/68/195
f 49/36/196 100/94/196 48/45/196
