# Blender 4.1.1
# www.blender.org
mtllib LowerClothes.mtl
o 下着
v -0.039160 0.943278 -0.133451
v -0.132297 0.950335 -0.105437
v -0.154838 0.956568 -0.080805
v -0.160733 0.951699 -0.052151
v -0.164493 0.954897 -0.021679
v -0.163394 0.950897 0.013545
v -0.144359 0.949484 0.081824
v -0.066030 0.949874 -0.126458
v -0.069458 0.950660 0.108201
v 0.000005 0.772955 -0.137483
v 0.000000 0.942626 0.114158
v -0.115596 0.950030 0.098064
v -0.182094 0.864363 -0.002484
v -0.172671 0.865459 -0.086750
v -0.142383 0.863320 -0.109185
v -0.064135 0.858673 -0.131659
v -0.173514 0.865153 0.081668
v -0.058029 0.877748 0.119094
v -0.229828 0.781225 0.070296
v -0.218588 0.793338 0.043563
v -0.245608 0.781225 0.007703
v -0.221559 0.804949 -0.027071
v -0.241077 0.781225 -0.056194
v -0.212514 0.808035 -0.080023
v -0.204346 0.783248 -0.088344
v -0.182919 0.795274 -0.112918
v -0.132287 0.792791 -0.128710
v -0.205164 0.800596 0.088334
v -0.170383 0.777845 -0.121053
v -0.113676 0.774090 -0.133908
v -0.195788 0.781225 0.100071
v -0.170107 0.790575 0.107111
v -0.152218 0.781225 0.112189
v -0.075458 0.805425 0.132615
v 0.000000 0.781432 0.121121
v 0.000000 0.940683 -0.137665
v -0.043870 0.787758 -0.135412
v 0.000000 0.903238 0.115410
v 0.039160 0.943278 -0.133451
v 0.066030 0.949874 -0.126458
v 0.154838 0.956568 -0.080805
v 0.160733 0.951699 -0.052151
v 0.164758 0.954965 -0.022039
v 0.162674 0.950804 0.012215
v 0.132216 0.950308 -0.105072
v 0.146013 0.950121 0.082209
v 0.115596 0.950030 0.098064
v 0.173233 0.864997 0.081548
v 0.069953 0.950660 0.107950
v 0.180072 0.863811 0.013637
v 0.174674 0.862185 -0.083814
v 0.145425 0.865039 -0.108002
v 0.062906 0.857997 -0.131968
v 0.053559 0.882516 0.119719
v 0.229828 0.781225 0.070296
v 0.218588 0.793338 0.043563
v 0.245608 0.781225 0.007703
v 0.221559 0.804949 -0.027071
v 0.241077 0.781225 -0.056194
v 0.212514 0.808035 -0.080023
v 0.204346 0.783248 -0.088344
v 0.182919 0.795274 -0.112918
v 0.132287 0.792791 -0.128710
v 0.205164 0.800596 0.088334
v 0.170383 0.777845 -0.121053
v 0.113676 0.774090 -0.133908
v 0.195788 0.781225 0.100071
v 0.170107 0.790575 0.107111
v 0.152218 0.781225 0.112189
v 0.075458 0.805425 0.132615
v 0.043870 0.787758 -0.135412
vn -0.9125 0.3150 0.2609
vn -0.5874 0.1027 -0.8028
vn -0.9729 0.2098 0.0972
vn -0.0063 0.0172 0.9998
vn -0.1560 0.1174 -0.9808
vn -0.7946 0.5889 -0.1477
vn -0.2853 0.2538 -0.9242
vn -0.7642 0.4789 -0.4320
vn 0.6988 0.1690 -0.6950
vn 0.9288 0.2953 0.2240
vn 0.0699 0.1534 0.9857
vn 0.9645 0.2079 -0.1631
vn 0.9750 0.2009 0.0947
vn 0.6395 0.1251 -0.7585
vn -0.3010 0.0758 -0.9506
vn -0.9716 0.1906 -0.1399
vn -0.2400 0.0503 -0.9695
vn -0.2147 0.1113 0.9703
vn -0.4872 0.1668 0.8572
vn -0.0689 0.1368 0.9882
vn -0.9867 0.1549 0.0484
vn -0.8634 0.4977 0.0834
vn -0.9659 0.1998 -0.1648
vn -0.2730 0.0491 -0.9608
vn -0.9800 0.1678 -0.1074
vn -0.3110 0.0287 0.9500
vn -0.2578 0.2152 -0.9419
vn 0.1912 0.1357 0.9721
vn -0.4371 0.3018 0.8473
vn -0.7250 0.5961 0.3449
vn -0.8233 0.5613 -0.0848
vn -0.8517 0.4971 0.1659
vn -0.0302 0.0442 -0.9986
vn -0.0324 0.0436 -0.9985
vn -0.3493 0.2882 0.8916
vn -0.3987 0.1711 -0.9010
vn -0.1063 0.0103 -0.9943
vn -0.2063 0.1319 0.9696
vn -0.7263 0.4128 0.5497
vn -0.3214 0.2483 0.9138
vn 0.8198 0.5657 -0.0884
vn 0.3060 0.0800 -0.9487
vn 0.2401 0.0500 -0.9695
vn 0.2118 0.1166 0.9703
vn 0.4574 0.1394 0.8783
vn 0.9789 0.1869 0.0823
vn 0.9672 0.2042 -0.1514
vn 0.2748 0.0482 -0.9603
vn 0.9880 0.1436 -0.0571
vn 0.3069 0.0232 0.9515
vn 0.1562 0.1172 -0.9807
vn 0.2932 0.2231 -0.9297
vn -0.1841 0.1111 0.9766
vn 0.4333 0.3042 0.8483
vn 0.7409 0.5615 0.3686
vn 0.7746 0.6227 -0.1109
vn 0.3501 0.2911 0.8903
vn 0.2871 0.2594 -0.9221
vn 0.7730 0.6344 0.0012
vn 0.0337 0.0398 -0.9986
vn 0.0295 0.0410 -0.9987
vn 0.7794 0.5202 -0.3490
vn 0.6282 0.2778 -0.7268
vn 0.1062 0.0123 -0.9943
vn 0.2074 0.1299 0.9696
vn 0.7711 0.4464 -0.4539
vn 0.7268 0.4178 0.5451
vn 0.3205 0.2442 0.9152
vn -0.7020 0.1823 -0.6885
vn -0.0092 0.0840 0.9964
vn -0.8213 0.5633 -0.0901
vn -0.2913 0.2245 -0.9299
vn -0.7470 0.6419 -0.1732
vn -0.3235 0.2923 0.9000
vn -0.5680 0.2341 -0.7891
vn -0.0919 -0.0011 -0.9958
vn 0.8605 0.5034 0.0779
vn 0.2555 0.2143 -0.9428
vn 0.7981 0.6000 -0.0542
vn 0.3293 0.2943 0.8972
vn 0.3605 0.1879 -0.9136
vn 0.0888 -0.0011 -0.9961
vt 0.092565 0.707239
vt 0.011910 0.808442
vt 0.008213 0.706084
vt 0.473205 0.465647
vt 0.368320 0.417083
vt 0.476222 0.430506
vt 0.136020 0.703670
vt 0.111416 0.814881
vt 0.663826 0.179334
vt 0.787300 0.248854
vt 0.658526 0.312301
vt 0.479052 0.335379
vt 0.581631 0.395890
vt 0.559194 0.418438
vt 0.143931 0.891059
vt 0.103665 0.922236
vt 0.577651 0.464614
vt 0.556888 0.479782
vt 0.572558 0.505666
vt 0.477443 0.049369
vt 0.368320 0.098387
vt 0.362808 0.069937
vt 0.986913 0.109968
vt 0.905967 0.006783
vt 0.991216 0.005556
vt 0.592329 0.248854
vt 0.583443 0.333610
vt 0.828316 0.006253
vt 0.792211 0.116338
vt 0.794130 -0.000000
vt 0.907968 0.114203
vt 0.863926 0.003013
vt 0.471119 0.084702
vt 0.369426 0.336842
vt 0.171684 0.706771
vt 0.210883 0.812709
vt 0.376573 0.305477
vt 0.583490 0.164728
vt 0.586998 0.106840
vt 0.586197 0.073950
vt 0.686593 0.052944
vt 0.057995 0.903833
vt 0.205870 0.700517
vt 0.757524 0.157327
vt 0.765876 0.000000
vt 0.788683 0.011373
vt 0.207153 0.886865
vt 0.180481 0.922459
vt 0.564996 0.311224
vt 0.582869 0.258021
vt 0.776957 0.042523
vt 0.542884 0.515533
vt 0.379531 0.257997
vt 0.787999 0.064221
vt 0.026483 0.919512
vt 0.002746 0.892862
vt 0.942005 0.203315
vt 0.973517 0.218994
vt 0.369426 0.179031
vt 0.480973 0.181494
vt 0.376573 0.210479
vt 0.586998 0.390868
vt 0.687483 0.444974
vt 0.586197 0.423758
vt 0.559194 0.097526
vt 0.581631 0.120125
vt 0.577651 0.051287
vt 0.556888 0.036043
vt 0.757524 0.340381
vt 0.788683 0.486335
vt 0.765876 0.497708
vt 0.896335 0.221718
vt 0.856069 0.190542
vt 0.776957 0.455184
vt 0.819519 0.221942
vt 0.564996 0.204800
vt 0.792848 0.186348
vt 0.572558 0.009947
vt 0.787999 0.433486
vt 0.997254 0.192345
vt 0.362808 0.445555
vt 0.542884 -0.000000
s 0
usemtl Material.004
f 6/1/1 17/2/1 7/3/1
f 14/4/2 2/5/2 15/6/2
f 5/7/3 13/8/3 17/2/3
f 18/9/4 35/10/4 54/11/4
f 16/12/5 30/13/5 27/14/5
f 13/8/6 22/15/6 21/16/6
f 16/12/7 27/14/7 29/17/7
f 15/6/8 26/18/8 25/19/8
f 51/20/9 45/21/9 41/22/9
f 48/23/10 44/24/10 46/25/10
f 11/26/11 54/11/11 49/27/11
f 42/28/12 51/29/12 41/30/12
f 50/31/13 43/32/13 48/23/13
f 51/20/14 52/33/14 45/21/14
f 2/5/15 8/34/15 15/6/15
f 4/35/16 14/36/16 5/7/16
f 1/37/17 16/12/17 8/34/17
f 9/38/18 12/39/18 18/9/18
f 7/40/19 17/41/19 12/39/19
f 18/9/20 11/26/20 9/38/20
f 6/1/21 5/7/21 17/2/21
f 20/42/22 17/2/22 13/8/22
f 4/35/23 3/43/23 14/36/23
f 8/34/24 16/12/24 15/6/24
f 5/7/25 14/36/25 13/8/25
f 12/39/26 17/41/26 18/9/26
f 29/17/27 15/6/27 16/12/27
f 18/9/28 34/44/28 35/10/28
f 17/41/29 28/45/29 31/46/29
f 13/8/30 21/16/30 20/42/30
f 24/47/31 13/8/31 14/36/31
f 13/8/32 23/48/32 22/15/32
f 30/13/33 16/12/33 37/49/33
f 16/12/34 10/50/34 37/49/34
f 32/51/35 17/41/35 31/46/35
f 14/4/36 25/19/36 24/52/36
f 36/53/37 16/12/37 1/37/37
f 18/9/38 32/51/38 33/54/38
f 17/2/39 19/55/39 28/56/39
f 18/9/40 33/54/40 34/44/40
f 56/57/41 48/23/41 55/58/41
f 52/33/42 40/59/42 45/21/42
f 40/59/43 53/60/43 39/61/43
f 54/11/44 47/62/44 49/27/44
f 47/62/45 48/63/45 46/64/45
f 48/23/46 43/32/46 44/24/46
f 42/28/47 43/32/47 51/29/47
f 52/33/48 53/60/48 40/59/48
f 43/32/49 50/31/49 51/29/49
f 54/11/50 48/63/50 47/62/50
f 53/60/51 63/65/51 66/66/51
f 65/67/52 52/33/52 62/68/52
f 35/10/53 70/69/53 54/11/53
f 67/70/54 64/71/54 48/63/54
f 56/57/55 57/72/55 50/31/55
f 58/73/56 50/31/56 57/72/56
f 48/63/57 68/74/57 67/70/57
f 53/60/58 65/67/58 63/65/58
f 58/73/59 59/75/59 51/29/59
f 10/50/60 53/60/60 71/76/60
f 53/60/61 66/66/61 71/76/61
f 51/29/62 59/75/62 60/77/62
f 51/20/63 61/78/63 52/33/63
f 53/60/64 36/53/64 39/61/64
f 69/79/65 68/74/65 54/11/65
f 52/33/66 61/78/66 62/68/66
f 64/80/67 55/58/67 48/23/67
f 70/69/68 69/79/68 54/11/68
f 14/4/69 3/81/69 2/5/69
f 18/9/70 54/11/70 11/26/70
f 20/42/71 19/55/71 17/2/71
f 29/17/72 26/18/72 15/6/72
f 24/47/73 23/48/73 13/8/73
f 32/51/74 18/9/74 17/41/74
f 14/4/75 15/6/75 25/19/75
f 36/53/76 10/50/76 16/12/76
f 56/57/77 50/31/77 48/23/77
f 65/67/78 53/60/78 52/33/78
f 58/73/79 51/29/79 50/31/79
f 48/63/80 54/11/80 68/74/80
f 51/20/81 60/82/81 61/78/81
f 53/60/82 10/50/82 36/53/82
l 38 11
